<svg width="72" height="68" viewBox="0 0 72 68" fill="none" xmlns="http://www.w3.org/2000/svg">
<path fill-rule="evenodd" clip-rule="evenodd" d="M35.0758 59.3195C46.6426 54.9389 46.8832 54.8176 57.2565 48.0934C64.4441 43.5685 67.1348 34.2293 63.2224 26.4999C61.5286 23.1535 58.8587 20.6259 55.7342 19.0879C46.9557 14.6552 46.8389 14.6118 37.3686 11.6411C33.3676 10.3807 28.8899 10.6224 24.8515 12.6665C20.5658 14.8358 17.623 18.606 16.3822 22.8818L16.3821 22.8818C13.7202 32.0622 13.6885 32.1881 12.5133 41.5322C12.0596 44.7788 12.558 48.192 14.1507 51.3385C18.0616 59.065 27.1756 62.4266 35.0758 59.3195Z" fill="#33477C"/>
<g clip-path="url(#clip0_247_10)">
<path d="M53.4514 40.1714C53.4492 34.7322 49.0447 30.3277 43.6077 30.3277C43.5803 30.3277 43.5541 30.331 43.5267 30.3321C44.2727 29.0436 44.7014 27.5485 44.7014 25.9527C44.7014 21.1205 40.7836 17.2027 35.9514 17.2027C31.1192 17.2027 27.2014 21.1205 27.2014 25.9527C27.2014 30.6121 30.8458 34.4096 35.4384 34.6775C34.9802 35.3579 34.6149 36.1038 34.3359 36.8902H22.8264C18.4514 36.8902 18.4514 41.2652 18.4514 41.2652V50.0152H53.4514V41.2652C53.4514 41.2652 53.4514 40.3979 53.4514 40.1714ZM51.1359 40.1714C51.1261 44.3266 47.7628 47.6899 43.6077 47.6997C39.4503 47.6899 36.087 44.3266 36.0783 40.1714C36.087 36.0141 39.4503 32.6508 43.6077 32.6421C47.7628 32.6508 51.1261 36.0141 51.1359 40.1714Z" fill="white"/>
<path d="M47.0464 39.0777C47.0552 38.9344 47.0617 38.7857 47.0617 38.6304C47.0552 37.8888 46.9655 36.9985 46.4536 36.1596C45.9538 35.3075 44.8808 34.6721 43.6077 34.7016C42.3334 34.6721 41.2583 35.3075 40.7584 36.1596C40.2444 36.9985 40.1547 37.8888 40.1503 38.6304C40.1503 38.7868 40.1569 38.9344 40.1656 39.0777H39.2327V44.5465H47.9827V39.0777H47.0464ZM42.3356 38.6304C42.3313 38.1075 42.4374 37.5825 42.6134 37.32C42.8027 37.0718 42.9088 36.9197 43.6077 36.8891C44.3044 36.9186 44.4061 37.0696 44.5964 37.32C44.7736 37.5825 44.8797 38.1108 44.8731 38.6304C44.8731 38.789 44.8644 38.9366 44.8524 39.0777H42.3564C42.3455 38.9344 42.3356 38.7846 42.3356 38.6304Z" fill="white"/>
</g>
<defs>
<clipPath id="clip0_247_10">
<rect width="35" height="35" fill="white" transform="translate(18.4514 15.0152)"/>
</clipPath>
</defs>
</svg>
