<svg width="176" height="171" viewBox="0 0 176 171" fill="none" xmlns="http://www.w3.org/2000/svg">
<g opacity="0.5" filter="url(#filter0_dd_63_663)">
<rect x="40.5925" y="30.2036" width="100" height="100" rx="20" fill="#33477C"/>
</g>
<path d="M81.5412 61.8906L81.541 61.8895C80.9088 58.0426 80.7115 53.5366 80.6762 50.4341L80.6762 50.4333C80.6706 50.0955 80.5327 49.7734 80.2921 49.5363C80.0514 49.2992 79.7273 49.166 79.3895 49.1654H79.3892H79.3767V49.1654L79.3746 49.1654C79.2056 49.1679 79.0388 49.2036 78.8837 49.2706C78.7286 49.3376 78.5882 49.4346 78.4706 49.5559C78.353 49.6772 78.2605 49.8205 78.1984 49.9776C78.1363 50.1347 78.1057 50.3024 78.1085 50.4712C78.1542 53.6578 78.3477 58.2998 79.0063 62.3081L79.0064 62.3084C79.0562 62.608 79.2103 62.8804 79.4414 63.0775C79.6725 63.2746 79.9658 63.3838 80.2696 63.3858L80.2717 63.3858C80.4579 63.3843 80.6415 63.3427 80.8101 63.2638L80.7465 63.128L80.8101 63.2638C80.9787 63.185 81.1283 63.0707 81.2488 62.9289L81.1344 62.8318L81.2488 62.9289C81.3693 62.787 81.4577 62.6208 81.5082 62.4416C81.5586 62.2625 81.5699 62.0745 81.5412 61.8906Z" fill="url(#paint0_linear_63_663)"/>
<path d="M81.5412 61.8906L81.541 61.8895C80.9088 58.0426 80.7115 53.5366 80.6762 50.4341L80.6762 50.4333C80.6706 50.0955 80.5327 49.7734 80.2921 49.5363C80.0514 49.2992 79.7273 49.166 79.3895 49.1654H79.3892H79.3767V49.1654L79.3746 49.1654C79.2056 49.1679 79.0388 49.2036 78.8837 49.2706C78.7286 49.3376 78.5882 49.4346 78.4706 49.5559C78.353 49.6772 78.2605 49.8205 78.1984 49.9776C78.1363 50.1347 78.1057 50.3024 78.1085 50.4712C78.1542 53.6578 78.3477 58.2998 79.0063 62.3081L79.0064 62.3084C79.0562 62.608 79.2103 62.8804 79.4414 63.0775C79.6725 63.2746 79.9658 63.3838 80.2696 63.3858L80.2717 63.3858C80.4579 63.3843 80.6415 63.3427 80.8101 63.2638L80.7465 63.128L80.8101 63.2638C80.9787 63.185 81.1283 63.0707 81.2488 62.9289L81.1344 62.8318L81.2488 62.9289C81.3693 62.787 81.4577 62.6208 81.5082 62.4416C81.5586 62.2625 81.5699 62.0745 81.5412 61.8906Z" fill="url(#paint1_radial_63_663)" fill-opacity="0.2"/>
<path d="M81.5412 61.8906L81.541 61.8895C80.9088 58.0426 80.7115 53.5366 80.6762 50.4341L80.6762 50.4333C80.6706 50.0955 80.5327 49.7734 80.2921 49.5363C80.0514 49.2992 79.7273 49.166 79.3895 49.1654H79.3892H79.3767V49.1654L79.3746 49.1654C79.2056 49.1679 79.0388 49.2036 78.8837 49.2706C78.7286 49.3376 78.5882 49.4346 78.4706 49.5559C78.353 49.6772 78.2605 49.8205 78.1984 49.9776C78.1363 50.1347 78.1057 50.3024 78.1085 50.4712C78.1542 53.6578 78.3477 58.2998 79.0063 62.3081L79.0064 62.3084C79.0562 62.608 79.2103 62.8804 79.4414 63.0775C79.6725 63.2746 79.9658 63.3838 80.2696 63.3858L80.2717 63.3858C80.4579 63.3843 80.6415 63.3427 80.8101 63.2638L80.7465 63.128L80.8101 63.2638C80.9787 63.185 81.1283 63.0707 81.2488 62.9289L81.1344 62.8318L81.2488 62.9289C81.3693 62.787 81.4577 62.6208 81.5082 62.4416C81.5586 62.2625 81.5699 62.0745 81.5412 61.8906Z" stroke="url(#paint2_linear_63_663)" stroke-width="0.3"/>
<path d="M81.5412 61.8906L81.541 61.8895C80.9088 58.0426 80.7115 53.5366 80.6762 50.4341L80.6762 50.4333C80.6706 50.0955 80.5327 49.7734 80.2921 49.5363C80.0514 49.2992 79.7273 49.166 79.3895 49.1654H79.3892H79.3767V49.1654L79.3746 49.1654C79.2056 49.1679 79.0388 49.2036 78.8837 49.2706C78.7286 49.3376 78.5882 49.4346 78.4706 49.5559C78.353 49.6772 78.2605 49.8205 78.1984 49.9776C78.1363 50.1347 78.1057 50.3024 78.1085 50.4712C78.1542 53.6578 78.3477 58.2998 79.0063 62.3081L79.0064 62.3084C79.0562 62.608 79.2103 62.8804 79.4414 63.0775C79.6725 63.2746 79.9658 63.3838 80.2696 63.3858L80.2717 63.3858C80.4579 63.3843 80.6415 63.3427 80.8101 63.2638L80.7465 63.128L80.8101 63.2638C80.9787 63.185 81.1283 63.0707 81.2488 62.9289L81.1344 62.8318L81.2488 62.9289C81.3693 62.787 81.4577 62.6208 81.5082 62.4416C81.5586 62.2625 81.5699 62.0745 81.5412 61.8906Z" stroke="url(#paint3_radial_63_663)" stroke-opacity="0.2" stroke-width="0.3"/>
<path d="M78.0406 44.4179H78.0403H72.8106C72.4692 44.4179 72.1419 44.5535 71.9005 44.7948C71.6592 45.0362 71.5236 45.3635 71.5236 45.7049C71.5236 46.0462 71.6592 46.3735 71.9005 46.6149C72.1419 46.8563 72.4692 46.9919 72.8106 46.9919L78.0403 46.9919L78.0406 46.9919C78.3815 46.9912 78.7083 46.8554 78.9491 46.6141C79.19 46.3728 79.3252 46.0458 79.3252 45.7049C79.3252 45.3639 79.19 45.0369 78.9491 44.7957C78.7083 44.5544 78.3815 44.4185 78.0406 44.4179Z" fill="url(#paint4_linear_63_663)"/>
<path d="M78.0406 44.4179H78.0403H72.8106C72.4692 44.4179 72.1419 44.5535 71.9005 44.7948C71.6592 45.0362 71.5236 45.3635 71.5236 45.7049C71.5236 46.0462 71.6592 46.3735 71.9005 46.6149C72.1419 46.8563 72.4692 46.9919 72.8106 46.9919L78.0403 46.9919L78.0406 46.9919C78.3815 46.9912 78.7083 46.8554 78.9491 46.6141C79.19 46.3728 79.3252 46.0458 79.3252 45.7049C79.3252 45.3639 79.19 45.0369 78.9491 44.7957C78.7083 44.5544 78.3815 44.4185 78.0406 44.4179Z" fill="url(#paint5_radial_63_663)" fill-opacity="0.2"/>
<path d="M78.0406 44.4179H78.0403H72.8106C72.4692 44.4179 72.1419 44.5535 71.9005 44.7948C71.6592 45.0362 71.5236 45.3635 71.5236 45.7049C71.5236 46.0462 71.6592 46.3735 71.9005 46.6149C72.1419 46.8563 72.4692 46.9919 72.8106 46.9919L78.0403 46.9919L78.0406 46.9919C78.3815 46.9912 78.7083 46.8554 78.9491 46.6141C79.19 46.3728 79.3252 46.0458 79.3252 45.7049C79.3252 45.3639 79.19 45.0369 78.9491 44.7957C78.7083 44.5544 78.3815 44.4185 78.0406 44.4179Z" stroke="url(#paint6_linear_63_663)" stroke-width="0.3"/>
<path d="M78.0406 44.4179H78.0403H72.8106C72.4692 44.4179 72.1419 44.5535 71.9005 44.7948C71.6592 45.0362 71.5236 45.3635 71.5236 45.7049C71.5236 46.0462 71.6592 46.3735 71.9005 46.6149C72.1419 46.8563 72.4692 46.9919 72.8106 46.9919L78.0403 46.9919L78.0406 46.9919C78.3815 46.9912 78.7083 46.8554 78.9491 46.6141C79.19 46.3728 79.3252 46.0458 79.3252 45.7049C79.3252 45.3639 79.19 45.0369 78.9491 44.7957C78.7083 44.5544 78.3815 44.4185 78.0406 44.4179Z" stroke="url(#paint7_radial_63_663)" stroke-opacity="0.2" stroke-width="0.3"/>
<path d="M75.3541 52.5625L75.3541 52.5625C75.1851 52.5594 75.0184 52.523 74.8636 52.4555C74.7087 52.3879 74.5687 52.2905 74.4515 52.1687C74.3343 52.0469 74.2423 51.9033 74.1808 51.7459C74.1192 51.5886 74.0893 51.4206 74.0927 51.2517L74.0927 51.2518L74.2427 51.2547L74.0927 51.2517L74.1343 49.1217C74.1343 49.1216 74.1343 49.1215 74.1343 49.1214L74.1343 49.1212L74.2842 49.1241C74.2892 48.8266 74.411 48.5429 74.6233 48.3344C74.8357 48.126 75.1216 48.0094 75.4191 48.01L75.3541 52.5625ZM75.3541 52.5625H75.3568H75.3796H75.3541ZM75.4152 47.8583L75.4054 47.8601L75.3797 52.4125C75.6771 52.4125 75.9626 52.2958 76.1749 52.0875C76.3871 51.8791 76.5091 51.5957 76.5146 51.2984L76.6645 51.3013L76.6645 51.3011L76.7061 49.1666L76.7061 49.1664C76.7124 48.8255 76.5831 48.4959 76.3467 48.2502C76.1102 48.0045 75.7859 47.8627 75.445 47.8559L75.43 47.8556L75.4152 47.8583Z" fill="url(#paint8_linear_63_663)"/>
<path d="M75.3541 52.5625L75.3541 52.5625C75.1851 52.5594 75.0184 52.523 74.8636 52.4555C74.7087 52.3879 74.5687 52.2905 74.4515 52.1687C74.3343 52.0469 74.2423 51.9033 74.1808 51.7459C74.1192 51.5886 74.0893 51.4206 74.0927 51.2517L74.0927 51.2518L74.2427 51.2547L74.0927 51.2517L74.1343 49.1217C74.1343 49.1216 74.1343 49.1215 74.1343 49.1214L74.1343 49.1212L74.2842 49.1241C74.2892 48.8266 74.411 48.5429 74.6233 48.3344C74.8357 48.126 75.1216 48.0094 75.4191 48.01L75.3541 52.5625ZM75.3541 52.5625H75.3568H75.3796H75.3541ZM75.4152 47.8583L75.4054 47.8601L75.3797 52.4125C75.6771 52.4125 75.9626 52.2958 76.1749 52.0875C76.3871 51.8791 76.5091 51.5957 76.5146 51.2984L76.6645 51.3013L76.6645 51.3011L76.7061 49.1666L76.7061 49.1664C76.7124 48.8255 76.5831 48.4959 76.3467 48.2502C76.1102 48.0045 75.7859 47.8627 75.445 47.8559L75.43 47.8556L75.4152 47.8583Z" fill="url(#paint9_radial_63_663)" fill-opacity="0.2"/>
<path d="M75.3541 52.5625L75.3541 52.5625C75.1851 52.5594 75.0184 52.523 74.8636 52.4555C74.7087 52.3879 74.5687 52.2905 74.4515 52.1687C74.3343 52.0469 74.2423 51.9033 74.1808 51.7459C74.1192 51.5886 74.0893 51.4206 74.0927 51.2517L74.0927 51.2518L74.2427 51.2547L74.0927 51.2517L74.1343 49.1217C74.1343 49.1216 74.1343 49.1215 74.1343 49.1214L74.1343 49.1212L74.2842 49.1241C74.2892 48.8266 74.411 48.5429 74.6233 48.3344C74.8357 48.126 75.1216 48.0094 75.4191 48.01L75.3541 52.5625ZM75.3541 52.5625H75.3568H75.3796H75.3541ZM75.4152 47.8583L75.4054 47.8601L75.3797 52.4125C75.6771 52.4125 75.9626 52.2958 76.1749 52.0875C76.3871 51.8791 76.5091 51.5957 76.5146 51.2984L76.6645 51.3013L76.6645 51.3011L76.7061 49.1666L76.7061 49.1664C76.7124 48.8255 76.5831 48.4959 76.3467 48.2502C76.1102 48.0045 75.7859 47.8627 75.445 47.8559L75.43 47.8556L75.4152 47.8583Z" stroke="url(#paint10_linear_63_663)" stroke-width="0.3"/>
<path d="M75.3541 52.5625L75.3541 52.5625C75.1851 52.5594 75.0184 52.523 74.8636 52.4555C74.7087 52.3879 74.5687 52.2905 74.4515 52.1687C74.3343 52.0469 74.2423 51.9033 74.1808 51.7459C74.1192 51.5886 74.0893 51.4206 74.0927 51.2517L74.0927 51.2518L74.2427 51.2547L74.0927 51.2517L74.1343 49.1217C74.1343 49.1216 74.1343 49.1215 74.1343 49.1214L74.1343 49.1212L74.2842 49.1241C74.2892 48.8266 74.411 48.5429 74.6233 48.3344C74.8357 48.126 75.1216 48.0094 75.4191 48.01L75.3541 52.5625ZM75.3541 52.5625H75.3568H75.3796H75.3541ZM75.4152 47.8583L75.4054 47.8601L75.3797 52.4125C75.6771 52.4125 75.9626 52.2958 76.1749 52.0875C76.3871 51.8791 76.5091 51.5957 76.5146 51.2984L76.6645 51.3013L76.6645 51.3011L76.7061 49.1666L76.7061 49.1664C76.7124 48.8255 76.5831 48.4959 76.3467 48.2502C76.1102 48.0045 75.7859 47.8627 75.445 47.8559L75.43 47.8556L75.4152 47.8583Z" stroke="url(#paint11_radial_63_663)" stroke-opacity="0.2" stroke-width="0.3"/>
<path d="M76.5576 34.0901C76.4209 34.1259 73.3307 34.9622 71.825 38.1199L71.8249 38.1203L71.7875 38.1993L71.7875 38.1993L71.7867 38.2009C71.4533 38.9267 71.3346 39.7329 71.4446 40.524C71.5546 41.3152 71.8888 42.0583 72.4076 42.6657L72.4073 42.6659L72.4149 42.6736C72.6418 42.9037 72.9471 43.0399 73.2699 43.0553C73.5927 43.0706 73.9095 42.964 74.1573 42.7565C74.4051 42.549 74.5657 42.2559 74.6073 41.9354C74.6489 41.6149 74.5684 41.2905 74.3818 41.0266L74.3823 41.0263L74.3734 41.0158C74.1706 40.7786 74.0399 40.4884 73.9968 40.1793C73.9536 39.8703 73.9997 39.5554 74.1297 39.2717L74.1539 39.2192C74.4934 38.5146 74.9933 37.9006 75.6121 37.4258C75.6898 37.7811 75.8211 38.123 76.0019 38.4397L76.0019 38.4397L76.004 38.4433L76.0327 38.4904L76.0387 38.5006C76.2473 38.8531 76.5342 39.338 76.7125 39.8349C76.895 40.3434 76.9473 40.8203 76.7387 41.1743L76.7387 41.1743L76.7369 41.1775C76.5736 41.4712 76.5316 41.8172 76.62 42.1414C76.7083 42.4656 76.92 42.7424 77.2098 42.9126C77.4995 43.0829 77.8444 43.133 78.1706 43.0524C78.4968 42.9717 78.7786 42.7666 78.9556 42.481L78.9556 42.481L78.9574 42.478C79.5689 41.4377 79.5254 40.3415 79.2645 39.3969C79.0054 38.4591 78.528 37.6557 78.2462 37.1816L78.2428 37.176L78.2166 37.1296L78.2166 37.1296L78.2159 37.1283C78.1322 36.9834 78.0868 36.7198 78.0791 36.4162C78.0715 36.1198 78.1004 35.8147 78.1434 35.6068C78.1896 35.3912 78.1798 35.1673 78.1147 34.9566C78.0497 34.7458 77.9315 34.5551 77.7717 34.403C77.6129 34.2515 77.4179 34.1432 77.2054 34.0884C76.9929 34.0336 76.7699 34.0342 76.5576 34.0901ZM76.5576 34.0901L76.5957 34.2352L76.5575 34.0901C76.5575 34.0901 76.5576 34.0901 76.5576 34.0901Z" fill="url(#paint12_linear_63_663)"/>
<path d="M76.5576 34.0901C76.4209 34.1259 73.3307 34.9622 71.825 38.1199L71.8249 38.1203L71.7875 38.1993L71.7875 38.1993L71.7867 38.2009C71.4533 38.9267 71.3346 39.7329 71.4446 40.524C71.5546 41.3152 71.8888 42.0583 72.4076 42.6657L72.4073 42.6659L72.4149 42.6736C72.6418 42.9037 72.9471 43.0399 73.2699 43.0553C73.5927 43.0706 73.9095 42.964 74.1573 42.7565C74.4051 42.549 74.5657 42.2559 74.6073 41.9354C74.6489 41.6149 74.5684 41.2905 74.3818 41.0266L74.3823 41.0263L74.3734 41.0158C74.1706 40.7786 74.0399 40.4884 73.9968 40.1793C73.9536 39.8703 73.9997 39.5554 74.1297 39.2717L74.1539 39.2192C74.4934 38.5146 74.9933 37.9006 75.6121 37.4258C75.6898 37.7811 75.8211 38.123 76.0019 38.4397L76.0019 38.4397L76.004 38.4433L76.0327 38.4904L76.0387 38.5006C76.2473 38.8531 76.5342 39.338 76.7125 39.8349C76.895 40.3434 76.9473 40.8203 76.7387 41.1743L76.7387 41.1743L76.7369 41.1775C76.5736 41.4712 76.5316 41.8172 76.62 42.1414C76.7083 42.4656 76.92 42.7424 77.2098 42.9126C77.4995 43.0829 77.8444 43.133 78.1706 43.0524C78.4968 42.9717 78.7786 42.7666 78.9556 42.481L78.9556 42.481L78.9574 42.478C79.5689 41.4377 79.5254 40.3415 79.2645 39.3969C79.0054 38.4591 78.528 37.6557 78.2462 37.1816L78.2428 37.176L78.2166 37.1296L78.2166 37.1296L78.2159 37.1283C78.1322 36.9834 78.0868 36.7198 78.0791 36.4162C78.0715 36.1198 78.1004 35.8147 78.1434 35.6068C78.1896 35.3912 78.1798 35.1673 78.1147 34.9566C78.0497 34.7458 77.9315 34.5551 77.7717 34.403C77.6129 34.2515 77.4179 34.1432 77.2054 34.0884C76.9929 34.0336 76.7699 34.0342 76.5576 34.0901ZM76.5576 34.0901L76.5957 34.2352L76.5575 34.0901C76.5575 34.0901 76.5576 34.0901 76.5576 34.0901Z" fill="url(#paint13_radial_63_663)" fill-opacity="0.2"/>
<path d="M76.5576 34.0901C76.4209 34.1259 73.3307 34.9622 71.825 38.1199L71.8249 38.1203L71.7875 38.1993L71.7875 38.1993L71.7867 38.2009C71.4533 38.9267 71.3346 39.7329 71.4446 40.524C71.5546 41.3152 71.8888 42.0583 72.4076 42.6657L72.4073 42.6659L72.4149 42.6736C72.6418 42.9037 72.9471 43.0399 73.2699 43.0553C73.5927 43.0706 73.9095 42.964 74.1573 42.7565C74.4051 42.549 74.5657 42.2559 74.6073 41.9354C74.6489 41.6149 74.5684 41.2905 74.3818 41.0266L74.3823 41.0263L74.3734 41.0158C74.1706 40.7786 74.0399 40.4884 73.9968 40.1793C73.9536 39.8703 73.9997 39.5554 74.1297 39.2717L74.1539 39.2192C74.4934 38.5146 74.9933 37.9006 75.6121 37.4258C75.6898 37.7811 75.8211 38.123 76.0019 38.4397L76.0019 38.4397L76.004 38.4433L76.0327 38.4904L76.0387 38.5006C76.2473 38.8531 76.5342 39.338 76.7125 39.8349C76.895 40.3434 76.9473 40.8203 76.7387 41.1743L76.7387 41.1743L76.7369 41.1775C76.5736 41.4712 76.5316 41.8172 76.62 42.1414C76.7083 42.4656 76.92 42.7424 77.2098 42.9126C77.4995 43.0829 77.8444 43.133 78.1706 43.0524C78.4968 42.9717 78.7786 42.7666 78.9556 42.481L78.9556 42.481L78.9574 42.478C79.5689 41.4377 79.5254 40.3415 79.2645 39.3969C79.0054 38.4591 78.528 37.6557 78.2462 37.1816L78.2428 37.176L78.2166 37.1296L78.2166 37.1296L78.2159 37.1283C78.1322 36.9834 78.0868 36.7198 78.0791 36.4162C78.0715 36.1198 78.1004 35.8147 78.1434 35.6068C78.1896 35.3912 78.1798 35.1673 78.1147 34.9566C78.0497 34.7458 77.9315 34.5551 77.7717 34.403C77.6129 34.2515 77.4179 34.1432 77.2054 34.0884C76.9929 34.0336 76.7699 34.0342 76.5576 34.0901ZM76.5576 34.0901L76.5957 34.2352L76.5575 34.0901C76.5575 34.0901 76.5576 34.0901 76.5576 34.0901Z" stroke="url(#paint14_linear_63_663)" stroke-width="0.3"/>
<path d="M76.5576 34.0901C76.4209 34.1259 73.3307 34.9622 71.825 38.1199L71.8249 38.1203L71.7875 38.1993L71.7875 38.1993L71.7867 38.2009C71.4533 38.9267 71.3346 39.7329 71.4446 40.524C71.5546 41.3152 71.8888 42.0583 72.4076 42.6657L72.4073 42.6659L72.4149 42.6736C72.6418 42.9037 72.9471 43.0399 73.2699 43.0553C73.5927 43.0706 73.9095 42.964 74.1573 42.7565C74.4051 42.549 74.5657 42.2559 74.6073 41.9354C74.6489 41.6149 74.5684 41.2905 74.3818 41.0266L74.3823 41.0263L74.3734 41.0158C74.1706 40.7786 74.0399 40.4884 73.9968 40.1793C73.9536 39.8703 73.9997 39.5554 74.1297 39.2717L74.1539 39.2192C74.4934 38.5146 74.9933 37.9006 75.6121 37.4258C75.6898 37.7811 75.8211 38.123 76.0019 38.4397L76.0019 38.4397L76.004 38.4433L76.0327 38.4904L76.0387 38.5006C76.2473 38.8531 76.5342 39.338 76.7125 39.8349C76.895 40.3434 76.9473 40.8203 76.7387 41.1743L76.7387 41.1743L76.7369 41.1775C76.5736 41.4712 76.5316 41.8172 76.62 42.1414C76.7083 42.4656 76.92 42.7424 77.2098 42.9126C77.4995 43.0829 77.8444 43.133 78.1706 43.0524C78.4968 42.9717 78.7786 42.7666 78.9556 42.481L78.9556 42.481L78.9574 42.478C79.5689 41.4377 79.5254 40.3415 79.2645 39.3969C79.0054 38.4591 78.528 37.6557 78.2462 37.1816L78.2428 37.176L78.2166 37.1296L78.2166 37.1296L78.2159 37.1283C78.1322 36.9834 78.0868 36.7198 78.0791 36.4162C78.0715 36.1198 78.1004 35.8147 78.1434 35.6068C78.1896 35.3912 78.1798 35.1673 78.1147 34.9566C78.0497 34.7458 77.9315 34.5551 77.7717 34.403C77.6129 34.2515 77.4179 34.1432 77.2054 34.0884C76.9929 34.0336 76.7699 34.0342 76.5576 34.0901ZM76.5576 34.0901L76.5957 34.2352L76.5575 34.0901C76.5575 34.0901 76.5576 34.0901 76.5576 34.0901Z" stroke="url(#paint15_radial_63_663)" stroke-opacity="0.2" stroke-width="0.3"/>
<path d="M85.7925 80.6292C85.9507 80.562 86.0938 80.4637 86.2134 80.3403L86.4613 80.1006C86.5887 79.9851 86.6916 79.8452 86.764 79.6892C86.8368 79.5325 86.8773 79.3627 86.883 79.1899C86.8887 79.0172 86.8596 78.8451 86.7974 78.6838C86.7351 78.5226 86.6411 78.3755 86.5208 78.2514C86.4005 78.1273 86.2564 78.0288 86.0972 77.9615C85.938 77.8943 85.7668 77.8599 85.594 77.8603C85.4212 77.8606 85.2502 77.8958 85.0912 77.9637C84.9332 78.0312 84.7902 78.1297 84.6708 78.2533L84.4251 78.4908C84.2978 78.6062 84.1948 78.7459 84.1222 78.9018C84.0494 79.0584 84.0088 79.2281 84.0029 79.4008C83.9969 79.5735 84.0259 79.7455 84.0879 79.9068C84.1499 80.068 84.2438 80.2152 84.3639 80.3394C84.484 80.4636 84.6278 80.5623 84.7869 80.6297C84.946 80.6971 85.117 80.7318 85.2898 80.7317C85.4625 80.7316 85.6335 80.6968 85.7925 80.6292Z" fill="url(#paint16_linear_63_663)"/>
<path d="M85.7925 80.6292C85.9507 80.562 86.0938 80.4637 86.2134 80.3403L86.4613 80.1006C86.5887 79.9851 86.6916 79.8452 86.764 79.6892C86.8368 79.5325 86.8773 79.3627 86.883 79.1899C86.8887 79.0172 86.8596 78.8451 86.7974 78.6838C86.7351 78.5226 86.6411 78.3755 86.5208 78.2514C86.4005 78.1273 86.2564 78.0288 86.0972 77.9615C85.938 77.8943 85.7668 77.8599 85.594 77.8603C85.4212 77.8606 85.2502 77.8958 85.0912 77.9637C84.9332 78.0312 84.7902 78.1297 84.6708 78.2533L84.4251 78.4908C84.2978 78.6062 84.1948 78.7459 84.1222 78.9018C84.0494 79.0584 84.0088 79.2281 84.0029 79.4008C83.9969 79.5735 84.0259 79.7455 84.0879 79.9068C84.1499 80.068 84.2438 80.2152 84.3639 80.3394C84.484 80.4636 84.6278 80.5623 84.7869 80.6297C84.946 80.6971 85.117 80.7318 85.2898 80.7317C85.4625 80.7316 85.6335 80.6968 85.7925 80.6292Z" fill="url(#paint17_radial_63_663)" fill-opacity="0.2"/>
<path d="M85.7925 80.6292C85.9507 80.562 86.0938 80.4637 86.2134 80.3403L86.4613 80.1006C86.5887 79.9851 86.6916 79.8452 86.764 79.6892C86.8368 79.5325 86.8773 79.3627 86.883 79.1899C86.8887 79.0172 86.8596 78.8451 86.7974 78.6838C86.7351 78.5226 86.6411 78.3755 86.5208 78.2514C86.4005 78.1273 86.2564 78.0288 86.0972 77.9615C85.938 77.8943 85.7668 77.8599 85.594 77.8603C85.4212 77.8606 85.2502 77.8958 85.0912 77.9637C84.9332 78.0312 84.7902 78.1297 84.6708 78.2533L84.4251 78.4908C84.2978 78.6062 84.1948 78.7459 84.1222 78.9018C84.0494 79.0584 84.0088 79.2281 84.0029 79.4008C83.9969 79.5735 84.0259 79.7455 84.0879 79.9068C84.1499 80.068 84.2438 80.2152 84.3639 80.3394C84.484 80.4636 84.6278 80.5623 84.7869 80.6297C84.946 80.6971 85.117 80.7318 85.2898 80.7317C85.4625 80.7316 85.6335 80.6968 85.7925 80.6292Z" stroke="url(#paint18_linear_63_663)" stroke-width="0.3"/>
<path d="M85.7925 80.6292C85.9507 80.562 86.0938 80.4637 86.2134 80.3403L86.4613 80.1006C86.5887 79.9851 86.6916 79.8452 86.764 79.6892C86.8368 79.5325 86.8773 79.3627 86.883 79.1899C86.8887 79.0172 86.8596 78.8451 86.7974 78.6838C86.7351 78.5226 86.6411 78.3755 86.5208 78.2514C86.4005 78.1273 86.2564 78.0288 86.0972 77.9615C85.938 77.8943 85.7668 77.8599 85.594 77.8603C85.4212 77.8606 85.2502 77.8958 85.0912 77.9637C84.9332 78.0312 84.7902 78.1297 84.6708 78.2533L84.4251 78.4908C84.2978 78.6062 84.1948 78.7459 84.1222 78.9018C84.0494 79.0584 84.0088 79.2281 84.0029 79.4008C83.9969 79.5735 84.0259 79.7455 84.0879 79.9068C84.1499 80.068 84.2438 80.2152 84.3639 80.3394C84.484 80.4636 84.6278 80.5623 84.7869 80.6297C84.946 80.6971 85.117 80.7318 85.2898 80.7317C85.4625 80.7316 85.6335 80.6968 85.7925 80.6292Z" stroke="url(#paint19_radial_63_663)" stroke-opacity="0.2" stroke-width="0.3"/>
<mask id="path-7-outside-1_63_663" maskUnits="userSpaceOnUse" x="68.4619" y="52.2368" width="44" height="75" fill="black">
<rect fill="white" x="68.4619" y="52.2368" width="44" height="75"/>
<path d="M69.4619 125.072C69.4619 125.221 69.4913 125.369 69.5485 125.507C69.6056 125.645 69.6894 125.77 69.7949 125.876C69.9005 125.981 70.0259 126.065 70.1638 126.122C70.3017 126.179 70.4496 126.209 70.5989 126.209H104.553C104.706 126.215 104.859 126.191 105.003 126.137C105.146 126.082 105.277 126 105.388 125.894C105.499 125.788 105.587 125.66 105.647 125.519C105.707 125.378 105.738 125.226 105.738 125.073C105.738 124.919 105.707 124.768 105.647 124.626C105.587 124.485 105.499 124.358 105.388 124.252C105.277 124.146 105.146 124.063 105.003 124.009C104.859 123.955 104.706 123.93 104.553 123.937H100.697V122.029C100.696 121.001 100.287 120.017 99.5609 119.29C98.8345 118.564 97.8497 118.155 96.8224 118.154H96.7975L95.4817 98.3847C96.3746 97.4138 96.8701 96.143 96.8702 94.824V91.6396L104.353 83.5581L108.539 87.0646C108.684 87.1854 108.802 87.3343 108.886 87.5023C108.971 87.6703 109.021 87.8538 109.032 88.0416C109.043 88.2294 109.016 88.4175 108.952 88.5944C108.888 88.7713 108.789 88.9333 108.66 89.0705L102.237 95.9298C101.992 96.1954 101.651 96.3533 101.29 96.3693C100.929 96.3852 100.576 96.2579 100.308 96.0151C100.083 95.8141 99.7878 95.7108 99.4867 95.7277C99.1855 95.7447 98.9035 95.8806 98.7025 96.1055C98.5016 96.3304 98.3982 96.6259 98.4152 96.9271C98.4321 97.2282 98.568 97.5103 98.7929 97.7112C99.5021 98.3519 100.435 98.6873 101.39 98.6449C102.345 98.6025 103.244 98.1857 103.894 97.4846L110.317 90.6253C110.656 90.2627 110.917 89.8349 111.085 89.3678C111.254 88.9008 111.325 88.4043 111.295 87.9089C111.264 87.4134 111.134 86.9293 110.91 86.486C110.687 86.0428 110.375 85.6499 109.994 85.3311L104.983 81.1261C104.76 80.9387 104.473 80.8445 104.181 80.8631C103.89 80.8817 103.618 81.0116 103.42 81.2259L96.8702 88.2931V84.5849C96.916 84.6389 96.9575 84.6971 97.0033 84.7491C97.1014 84.8614 97.2207 84.9533 97.3543 85.0195C97.488 85.0858 97.6334 85.125 97.7822 85.135C97.931 85.1451 98.0803 85.1257 98.2217 85.078C98.363 85.0304 98.4935 84.9553 98.6059 84.8572C98.7182 84.759 98.8101 84.6397 98.8763 84.5061C98.9425 84.3725 98.9818 84.2271 98.9918 84.0783C99.0019 83.9294 98.9825 83.7801 98.9348 83.6388C98.8871 83.4975 98.8121 83.3669 98.714 83.2546C98.0667 82.4928 97.5087 81.6594 97.0511 80.7707C97.0046 80.6836 96.9466 80.6032 96.8786 80.5316V78.2452C96.8804 76.6876 96.436 75.1622 95.5979 73.8493C94.7599 72.5364 93.5633 71.4911 92.1498 70.8371C91.8546 70.702 91.5698 70.5668 91.2913 70.4213C92.5135 69.5774 93.2244 68.1349 93.2244 66.2642V61.5873L94.7584 61.606H94.7729C95.066 61.5955 95.3436 61.4722 95.5479 61.2618C95.7522 61.0514 95.8673 60.7703 95.8691 60.4771C95.871 60.1838 95.7595 59.9012 95.558 59.6882C95.3564 59.4753 95.0804 59.3484 94.7875 59.3341L93.0934 59.3113C92.9979 58.9081 92.8475 58.52 92.6465 58.1576L93.8521 56.6714C93.9462 56.5557 94.0165 56.4226 94.0591 56.2797C94.1017 56.1368 94.1157 55.9869 94.1003 55.8385C94.085 55.6902 94.0406 55.5463 93.9696 55.4152C93.8987 55.284 93.8026 55.1681 93.6869 55.074C93.5711 54.98 93.438 54.9097 93.2951 54.8671C93.1522 54.8245 93.0023 54.8105 92.854 54.8258C92.7056 54.8412 92.5618 54.8856 92.4306 54.9565C92.2994 55.0275 92.1835 55.1236 92.0895 55.2393L91.0668 56.4865C90.6655 56.2342 90.2271 56.0462 89.7677 55.9294V54.4224C89.7743 54.2691 89.7497 54.1161 89.6956 53.9726C89.6415 53.8291 89.5588 53.698 89.4527 53.5872C89.3466 53.4764 89.2191 53.3883 89.0781 53.3281C88.937 53.2679 88.7851 53.2368 88.6317 53.2368C88.4783 53.2368 88.3265 53.2679 88.1854 53.3281C88.0443 53.3883 87.9169 53.4764 87.8108 53.5872C87.7046 53.698 87.622 53.8291 87.5679 53.9726C87.5138 54.1161 87.4892 54.2691 87.4958 54.4224V55.9398C87.0364 56.0566 86.598 56.2446 86.1967 56.4968L85.174 55.2497C84.98 55.0284 84.7077 54.891 84.4145 54.8664C84.1212 54.8417 83.8298 54.9317 83.6016 55.1174C83.3733 55.3032 83.226 55.5702 83.1905 55.8623C83.155 56.1544 83.2342 56.449 83.4114 56.6839L84.6169 58.168C84.4153 58.5339 84.2642 58.9255 84.168 59.332L83.5984 59.3445C83.3054 59.3601 83.0297 59.4883 82.829 59.7024C82.6283 59.9166 82.5182 60.2 82.5217 60.4934C82.5252 60.7869 82.642 61.0676 82.8477 61.2769C83.0534 61.4862 83.3321 61.6079 83.6254 61.6164H83.6525H84.037V65.7736C83.607 65.3947 83.2061 64.9841 82.8377 64.5452C82.7188 64.3913 82.5625 64.2706 82.3836 64.1944C82.2048 64.1182 82.0094 64.0891 81.8161 64.11C81.6228 64.1308 81.4381 64.2009 81.2796 64.3135C81.1211 64.4261 80.9941 64.5774 80.9108 64.753C80.175 66.2974 78.7615 67.4323 77.6682 68.1287C76.8943 65.6393 76.5128 63.0446 76.5374 60.4379V55.179C76.544 55.0258 76.5195 54.8727 76.4653 54.7292C76.4112 54.5857 76.3286 54.4546 76.2225 54.3438C76.1163 54.233 75.9889 54.1449 75.8478 54.0847C75.7067 54.0245 75.5549 53.9934 75.4015 53.9934C75.2481 53.9934 75.0963 54.0245 74.9552 54.0847C74.8141 54.1449 74.6866 54.233 74.5805 54.3438C74.4744 54.4546 74.3918 54.5857 74.3376 54.7292C74.2835 54.8727 74.259 55.0258 74.2655 55.179V60.4379C74.2374 63.4373 74.708 66.4206 75.6582 69.2656C74.8891 69.8456 73.9829 71.0117 74.3508 72.6247C74.7062 74.1878 76.2215 74.8487 77.2733 75.119V81.1739C76.7081 81.9227 76.4393 82.8538 76.5183 83.7886C76.5973 84.7234 77.0186 85.5961 77.7015 86.2394C77.6807 88.3451 77.5372 91.7436 77.2857 96.3539C77.2686 96.6546 77.3717 96.9498 77.5723 97.1745C77.7728 97.3992 78.0545 97.5351 78.3552 97.5522C78.6559 97.5693 78.9511 97.4662 79.1758 97.2656C79.4005 97.0651 79.5364 96.7835 79.5535 96.4827C79.8216 91.7789 79.9692 88.318 79.9858 86.1771L83.2014 83.0446C83.4056 82.8322 83.5193 82.5489 83.5187 82.2543C83.5181 81.9597 83.4031 81.6768 83.1981 81.4653C82.993 81.2538 82.7139 81.1301 82.4194 81.1203C82.125 81.1106 81.8382 81.2155 81.6196 81.4129L78.8946 84.0528C78.8399 83.9197 78.8035 83.7799 78.7865 83.637C78.7633 83.4147 78.7884 83.1901 78.8602 82.9784C78.932 82.7667 79.0486 82.573 79.2022 82.4107L79.2271 82.3857L85.968 75.6656C86.0804 75.5618 86.1707 75.4364 86.2335 75.2969C86.2963 75.1574 86.3303 75.0066 86.3334 74.8537C86.3366 74.7007 86.3088 74.5487 86.2518 74.4067C86.1948 74.2647 86.1098 74.1357 86.0017 74.0274C85.8937 73.919 85.7649 73.8336 85.623 73.7763C85.4812 73.7189 85.3292 73.6907 85.1763 73.6935C85.0233 73.6962 84.8724 73.7298 84.7328 73.7923C84.5931 73.8547 84.4674 73.9447 84.3634 74.0568L79.5452 78.8542V74.1732C79.5452 73.8886 79.4384 73.6143 79.246 73.4045C79.0536 73.1948 78.7895 73.0648 78.5059 73.0404C77.8823 72.9884 76.685 72.6247 76.5686 72.1216C76.4231 71.4981 76.9615 71.1114 77.1153 71.0179C77.5996 70.81 80.3537 69.5296 82.1372 67.106C83.5361 68.4321 86.3692 70.6999 91.1978 72.9094C92.2157 73.3821 93.0771 74.1363 93.6801 75.0829C94.2831 76.0296 94.6024 77.129 94.6004 78.2514V94.824C94.5989 95.2531 94.5053 95.6768 94.326 96.0665C94.1467 96.4563 93.8859 96.8031 93.5611 97.0835L88.7097 101.307L92.077 88.7836C92.1453 88.4959 92.0989 88.1929 91.9475 87.9388C91.7961 87.6848 91.5517 87.4997 91.2661 87.4229C90.9805 87.3461 90.6762 87.3836 90.4178 87.5274C90.1594 87.6713 89.9672 87.9101 89.882 88.1933L85.5481 104.313C85.2666 104.877 85.2089 105.526 85.3866 106.131C85.5644 106.735 85.9645 107.25 86.5064 107.572L87.4979 108.164C87.5317 108.184 87.5598 108.212 87.5795 108.245C87.5992 108.279 87.6098 108.317 87.6101 108.356C87.6132 108.396 87.6053 108.437 87.5874 108.473C87.5695 108.51 87.5422 108.541 87.5083 108.564L79.0567 114.224C78.9915 114.271 78.914 114.298 78.8336 114.302C78.7532 114.306 78.6734 114.286 78.6039 114.246C78.5343 114.205 78.478 114.146 78.4418 114.074C78.4056 114.002 78.391 113.921 78.3999 113.841C78.5454 111.829 78.7657 108.709 78.9923 105.267C78.9986 105.169 78.9909 105.07 78.9694 104.974L85.9826 91.9202C86.1101 91.6563 86.1307 91.3533 86.0402 91.0744C85.9496 90.7956 85.7549 90.5626 85.4966 90.4239C85.2383 90.2852 84.9365 90.2517 84.654 90.3303C84.3716 90.4088 84.1304 90.5935 83.9809 90.8456L75.5709 106.497C75.5002 106.629 75.4561 106.773 75.4411 106.921C75.4262 107.07 75.4406 107.22 75.4837 107.363C75.5267 107.505 75.5975 107.638 75.692 107.754C75.7865 107.869 75.9029 107.965 76.0344 108.036C76.1848 108.115 76.3509 108.161 76.5208 108.169C76.3712 110.362 76.234 112.286 76.1342 113.677C76.0955 114.18 76.2002 114.683 76.436 115.129C76.6718 115.575 77.0291 115.945 77.4666 116.196L77.4915 116.209L77.3606 118.154H77.3273C76.3001 118.155 75.3152 118.564 74.5888 119.29C73.8625 120.017 73.4539 121.001 73.4528 122.029V123.937H70.5989C70.4497 123.937 70.3019 123.966 70.164 124.023C70.026 124.08 69.9007 124.163 69.7951 124.268C69.6895 124.374 69.6057 124.499 69.5485 124.637C69.4913 124.775 69.4619 124.923 69.4619 125.072V125.072ZM88.6224 58.0641C89.2284 58.065 89.8101 58.3026 90.2434 58.7262C90.6768 59.1499 90.9275 59.726 90.9421 60.3319C90.2403 59.9155 89.4394 59.6957 88.6234 59.6957C87.8074 59.6957 87.0065 59.9155 86.3048 60.3319C86.3194 59.7264 86.5698 59.1505 87.0027 58.727C87.4356 58.3034 88.0167 58.0656 88.6224 58.0641ZM86.2985 67.4199V64.2895C86.2892 63.9789 86.3424 63.6696 86.4548 63.3799C86.5673 63.0902 86.7367 62.826 86.9531 62.603C87.1696 62.38 87.4285 62.2027 87.7147 62.0817C88.0009 61.9606 88.3085 61.8982 88.6193 61.8982C88.93 61.8982 89.2376 61.9606 89.5238 62.0817C89.81 62.2027 90.069 62.38 90.2854 62.603C90.5018 62.826 90.6713 63.0902 90.7837 63.3799C90.8962 63.6696 90.9493 63.9789 90.94 64.2895V66.2829C90.94 68.0393 90.1294 68.9435 88.5351 68.985C87.6808 68.4841 86.9325 67.9977 86.286 67.5446C86.2925 67.5033 86.2966 67.4616 86.2985 67.4199ZM75.7206 122.029C75.7206 121.604 75.8891 121.197 76.1892 120.896C76.4893 120.596 76.8964 120.427 77.3211 120.426H87.0302C87.1834 120.433 87.3365 120.408 87.48 120.354C87.6235 120.3 87.7546 120.217 87.8654 120.111C87.9762 120.005 88.0643 119.878 88.1245 119.736C88.1847 119.595 88.2158 119.444 88.2158 119.29C88.2158 119.137 88.1847 118.985 88.1245 118.844C88.0643 118.703 87.9762 118.575 87.8654 118.469C87.7546 118.363 87.6235 118.28 87.48 118.226C87.3365 118.172 87.1834 118.148 87.0302 118.154H79.6325L79.7634 116.385C79.96 116.314 80.1477 116.22 80.3226 116.105L88.7679 110.443C89.1204 110.209 89.4078 109.89 89.603 109.515C89.7983 109.139 89.8949 108.721 89.8839 108.298C89.8729 107.875 89.7546 107.462 89.5401 107.098C89.3256 106.734 89.022 106.43 88.6577 106.215L87.6662 105.624C87.6348 105.606 87.6082 105.58 87.5887 105.55C87.5692 105.519 87.5573 105.484 87.554 105.448C87.5503 105.411 87.5556 105.375 87.5694 105.341C87.5832 105.308 87.605 105.278 87.633 105.254L93.3325 100.297L94.5194 118.152H93.1766C92.8837 118.165 92.607 118.29 92.4042 118.501C92.2014 118.713 92.0882 118.995 92.0882 119.288C92.0882 119.581 92.2014 119.863 92.4042 120.075C92.607 120.286 92.8837 120.411 93.1766 120.424H96.8224C97.2471 120.425 97.6542 120.594 97.9543 120.894C98.2544 121.195 98.423 121.602 98.423 122.027V123.935H75.7206V122.029Z"/>
</mask>
<path d="M69.4619 125.072C69.4619 125.221 69.4913 125.369 69.5485 125.507C69.6056 125.645 69.6894 125.77 69.7949 125.876C69.9005 125.981 70.0259 126.065 70.1638 126.122C70.3017 126.179 70.4496 126.209 70.5989 126.209H104.553C104.706 126.215 104.859 126.191 105.003 126.137C105.146 126.082 105.277 126 105.388 125.894C105.499 125.788 105.587 125.66 105.647 125.519C105.707 125.378 105.738 125.226 105.738 125.073C105.738 124.919 105.707 124.768 105.647 124.626C105.587 124.485 105.499 124.358 105.388 124.252C105.277 124.146 105.146 124.063 105.003 124.009C104.859 123.955 104.706 123.93 104.553 123.937H100.697V122.029C100.696 121.001 100.287 120.017 99.5609 119.29C98.8345 118.564 97.8497 118.155 96.8224 118.154H96.7975L95.4817 98.3847C96.3746 97.4138 96.8701 96.143 96.8702 94.824V91.6396L104.353 83.5581L108.539 87.0646C108.684 87.1854 108.802 87.3343 108.886 87.5023C108.971 87.6703 109.021 87.8538 109.032 88.0416C109.043 88.2294 109.016 88.4175 108.952 88.5944C108.888 88.7713 108.789 88.9333 108.66 89.0705L102.237 95.9298C101.992 96.1954 101.651 96.3533 101.29 96.3693C100.929 96.3852 100.576 96.2579 100.308 96.0151C100.083 95.8141 99.7878 95.7108 99.4867 95.7277C99.1855 95.7447 98.9035 95.8806 98.7025 96.1055C98.5016 96.3304 98.3982 96.6259 98.4152 96.9271C98.4321 97.2282 98.568 97.5103 98.7929 97.7112C99.5021 98.3519 100.435 98.6873 101.39 98.6449C102.345 98.6025 103.244 98.1857 103.894 97.4846L110.317 90.6253C110.656 90.2627 110.917 89.8349 111.085 89.3678C111.254 88.9008 111.325 88.4043 111.295 87.9089C111.264 87.4134 111.134 86.9293 110.91 86.486C110.687 86.0428 110.375 85.6499 109.994 85.3311L104.983 81.1261C104.76 80.9387 104.473 80.8445 104.181 80.8631C103.89 80.8817 103.618 81.0116 103.42 81.2259L96.8702 88.2931V84.5849C96.916 84.6389 96.9575 84.6971 97.0033 84.7491C97.1014 84.8614 97.2207 84.9533 97.3543 85.0195C97.488 85.0858 97.6334 85.125 97.7822 85.135C97.931 85.1451 98.0803 85.1257 98.2217 85.078C98.363 85.0304 98.4935 84.9553 98.6059 84.8572C98.7182 84.759 98.8101 84.6397 98.8763 84.5061C98.9425 84.3725 98.9818 84.2271 98.9918 84.0783C99.0019 83.9294 98.9825 83.7801 98.9348 83.6388C98.8871 83.4975 98.8121 83.3669 98.714 83.2546C98.0667 82.4928 97.5087 81.6594 97.0511 80.7707C97.0046 80.6836 96.9466 80.6032 96.8786 80.5316V78.2452C96.8804 76.6876 96.436 75.1622 95.5979 73.8493C94.7599 72.5364 93.5633 71.4911 92.1498 70.8371C91.8546 70.702 91.5698 70.5668 91.2913 70.4213C92.5135 69.5774 93.2244 68.1349 93.2244 66.2642V61.5873L94.7584 61.606H94.7729C95.066 61.5955 95.3436 61.4722 95.5479 61.2618C95.7522 61.0514 95.8673 60.7703 95.8691 60.4771C95.871 60.1838 95.7595 59.9012 95.558 59.6882C95.3564 59.4753 95.0804 59.3484 94.7875 59.3341L93.0934 59.3113C92.9979 58.9081 92.8475 58.52 92.6465 58.1576L93.8521 56.6714C93.9462 56.5557 94.0165 56.4226 94.0591 56.2797C94.1017 56.1368 94.1157 55.9869 94.1003 55.8385C94.085 55.6902 94.0406 55.5463 93.9696 55.4152C93.8987 55.284 93.8026 55.1681 93.6869 55.074C93.5711 54.98 93.438 54.9097 93.2951 54.8671C93.1522 54.8245 93.0023 54.8105 92.854 54.8258C92.7056 54.8412 92.5618 54.8856 92.4306 54.9565C92.2994 55.0275 92.1835 55.1236 92.0895 55.2393L91.0668 56.4865C90.6655 56.2342 90.2271 56.0462 89.7677 55.9294V54.4224C89.7743 54.2691 89.7497 54.1161 89.6956 53.9726C89.6415 53.8291 89.5588 53.698 89.4527 53.5872C89.3466 53.4764 89.2191 53.3883 89.0781 53.3281C88.937 53.2679 88.7851 53.2368 88.6317 53.2368C88.4783 53.2368 88.3265 53.2679 88.1854 53.3281C88.0443 53.3883 87.9169 53.4764 87.8108 53.5872C87.7046 53.698 87.622 53.8291 87.5679 53.9726C87.5138 54.1161 87.4892 54.2691 87.4958 54.4224V55.9398C87.0364 56.0566 86.598 56.2446 86.1967 56.4968L85.174 55.2497C84.98 55.0284 84.7077 54.891 84.4145 54.8664C84.1212 54.8417 83.8298 54.9317 83.6016 55.1174C83.3733 55.3032 83.226 55.5702 83.1905 55.8623C83.155 56.1544 83.2342 56.449 83.4114 56.6839L84.6169 58.168C84.4153 58.5339 84.2642 58.9255 84.168 59.332L83.5984 59.3445C83.3054 59.3601 83.0297 59.4883 82.829 59.7024C82.6283 59.9166 82.5182 60.2 82.5217 60.4934C82.5252 60.7869 82.642 61.0676 82.8477 61.2769C83.0534 61.4862 83.3321 61.6079 83.6254 61.6164H83.6525H84.037V65.7736C83.607 65.3947 83.2061 64.9841 82.8377 64.5452C82.7188 64.3913 82.5625 64.2706 82.3836 64.1944C82.2048 64.1182 82.0094 64.0891 81.8161 64.11C81.6228 64.1308 81.4381 64.2009 81.2796 64.3135C81.1211 64.4261 80.9941 64.5774 80.9108 64.753C80.175 66.2974 78.7615 67.4323 77.6682 68.1287C76.8943 65.6393 76.5128 63.0446 76.5374 60.4379V55.179C76.544 55.0258 76.5195 54.8727 76.4653 54.7292C76.4112 54.5857 76.3286 54.4546 76.2225 54.3438C76.1163 54.233 75.9889 54.1449 75.8478 54.0847C75.7067 54.0245 75.5549 53.9934 75.4015 53.9934C75.2481 53.9934 75.0963 54.0245 74.9552 54.0847C74.8141 54.1449 74.6866 54.233 74.5805 54.3438C74.4744 54.4546 74.3918 54.5857 74.3376 54.7292C74.2835 54.8727 74.259 55.0258 74.2655 55.179V60.4379C74.2374 63.4373 74.708 66.4206 75.6582 69.2656C74.8891 69.8456 73.9829 71.0117 74.3508 72.6247C74.7062 74.1878 76.2215 74.8487 77.2733 75.119V81.1739C76.7081 81.9227 76.4393 82.8538 76.5183 83.7886C76.5973 84.7234 77.0186 85.5961 77.7015 86.2394C77.6807 88.3451 77.5372 91.7436 77.2857 96.3539C77.2686 96.6546 77.3717 96.9498 77.5723 97.1745C77.7728 97.3992 78.0545 97.5351 78.3552 97.5522C78.6559 97.5693 78.9511 97.4662 79.1758 97.2656C79.4005 97.0651 79.5364 96.7835 79.5535 96.4827C79.8216 91.7789 79.9692 88.318 79.9858 86.1771L83.2014 83.0446C83.4056 82.8322 83.5193 82.5489 83.5187 82.2543C83.5181 81.9597 83.4031 81.6768 83.1981 81.4653C82.993 81.2538 82.7139 81.1301 82.4194 81.1203C82.125 81.1106 81.8382 81.2155 81.6196 81.4129L78.8946 84.0528C78.8399 83.9197 78.8035 83.7799 78.7865 83.637C78.7633 83.4147 78.7884 83.1901 78.8602 82.9784C78.932 82.7667 79.0486 82.573 79.2022 82.4107L79.2271 82.3857L85.968 75.6656C86.0804 75.5618 86.1707 75.4364 86.2335 75.2969C86.2963 75.1574 86.3303 75.0066 86.3334 74.8537C86.3366 74.7007 86.3088 74.5487 86.2518 74.4067C86.1948 74.2647 86.1098 74.1357 86.0017 74.0274C85.8937 73.919 85.7649 73.8336 85.623 73.7763C85.4812 73.7189 85.3292 73.6907 85.1763 73.6935C85.0233 73.6962 84.8724 73.7298 84.7328 73.7923C84.5931 73.8547 84.4674 73.9447 84.3634 74.0568L79.5452 78.8542V74.1732C79.5452 73.8886 79.4384 73.6143 79.246 73.4045C79.0536 73.1948 78.7895 73.0648 78.5059 73.0404C77.8823 72.9884 76.685 72.6247 76.5686 72.1216C76.4231 71.4981 76.9615 71.1114 77.1153 71.0179C77.5996 70.81 80.3537 69.5296 82.1372 67.106C83.5361 68.4321 86.3692 70.6999 91.1978 72.9094C92.2157 73.3821 93.0771 74.1363 93.6801 75.0829C94.2831 76.0296 94.6024 77.129 94.6004 78.2514V94.824C94.5989 95.2531 94.5053 95.6768 94.326 96.0665C94.1467 96.4563 93.8859 96.8031 93.5611 97.0835L88.7097 101.307L92.077 88.7836C92.1453 88.4959 92.0989 88.1929 91.9475 87.9388C91.7961 87.6848 91.5517 87.4997 91.2661 87.4229C90.9805 87.3461 90.6762 87.3836 90.4178 87.5274C90.1594 87.6713 89.9672 87.9101 89.882 88.1933L85.5481 104.313C85.2666 104.877 85.2089 105.526 85.3866 106.131C85.5644 106.735 85.9645 107.25 86.5064 107.572L87.4979 108.164C87.5317 108.184 87.5598 108.212 87.5795 108.245C87.5992 108.279 87.6098 108.317 87.6101 108.356C87.6132 108.396 87.6053 108.437 87.5874 108.473C87.5695 108.51 87.5422 108.541 87.5083 108.564L79.0567 114.224C78.9915 114.271 78.914 114.298 78.8336 114.302C78.7532 114.306 78.6734 114.286 78.6039 114.246C78.5343 114.205 78.478 114.146 78.4418 114.074C78.4056 114.002 78.391 113.921 78.3999 113.841C78.5454 111.829 78.7657 108.709 78.9923 105.267C78.9986 105.169 78.9909 105.07 78.9694 104.974L85.9826 91.9202C86.1101 91.6563 86.1307 91.3533 86.0402 91.0744C85.9496 90.7956 85.7549 90.5626 85.4966 90.4239C85.2383 90.2852 84.9365 90.2517 84.654 90.3303C84.3716 90.4088 84.1304 90.5935 83.9809 90.8456L75.5709 106.497C75.5002 106.629 75.4561 106.773 75.4411 106.921C75.4262 107.07 75.4406 107.22 75.4837 107.363C75.5267 107.505 75.5975 107.638 75.692 107.754C75.7865 107.869 75.9029 107.965 76.0344 108.036C76.1848 108.115 76.3509 108.161 76.5208 108.169C76.3712 110.362 76.234 112.286 76.1342 113.677C76.0955 114.18 76.2002 114.683 76.436 115.129C76.6718 115.575 77.0291 115.945 77.4666 116.196L77.4915 116.209L77.3606 118.154H77.3273C76.3001 118.155 75.3152 118.564 74.5888 119.29C73.8625 120.017 73.4539 121.001 73.4528 122.029V123.937H70.5989C70.4497 123.937 70.3019 123.966 70.164 124.023C70.026 124.08 69.9007 124.163 69.7951 124.268C69.6895 124.374 69.6057 124.499 69.5485 124.637C69.4913 124.775 69.4619 124.923 69.4619 125.072V125.072ZM88.6224 58.0641C89.2284 58.065 89.8101 58.3026 90.2434 58.7262C90.6768 59.1499 90.9275 59.726 90.9421 60.3319C90.2403 59.9155 89.4394 59.6957 88.6234 59.6957C87.8074 59.6957 87.0065 59.9155 86.3048 60.3319C86.3194 59.7264 86.5698 59.1505 87.0027 58.727C87.4356 58.3034 88.0167 58.0656 88.6224 58.0641ZM86.2985 67.4199V64.2895C86.2892 63.9789 86.3424 63.6696 86.4548 63.3799C86.5673 63.0902 86.7367 62.826 86.9531 62.603C87.1696 62.38 87.4285 62.2027 87.7147 62.0817C88.0009 61.9606 88.3085 61.8982 88.6193 61.8982C88.93 61.8982 89.2376 61.9606 89.5238 62.0817C89.81 62.2027 90.069 62.38 90.2854 62.603C90.5018 62.826 90.6713 63.0902 90.7837 63.3799C90.8962 63.6696 90.9493 63.9789 90.94 64.2895V66.2829C90.94 68.0393 90.1294 68.9435 88.5351 68.985C87.6808 68.4841 86.9325 67.9977 86.286 67.5446C86.2925 67.5033 86.2966 67.4616 86.2985 67.4199ZM75.7206 122.029C75.7206 121.604 75.8891 121.197 76.1892 120.896C76.4893 120.596 76.8964 120.427 77.3211 120.426H87.0302C87.1834 120.433 87.3365 120.408 87.48 120.354C87.6235 120.3 87.7546 120.217 87.8654 120.111C87.9762 120.005 88.0643 119.878 88.1245 119.736C88.1847 119.595 88.2158 119.444 88.2158 119.29C88.2158 119.137 88.1847 118.985 88.1245 118.844C88.0643 118.703 87.9762 118.575 87.8654 118.469C87.7546 118.363 87.6235 118.28 87.48 118.226C87.3365 118.172 87.1834 118.148 87.0302 118.154H79.6325L79.7634 116.385C79.96 116.314 80.1477 116.22 80.3226 116.105L88.7679 110.443C89.1204 110.209 89.4078 109.89 89.603 109.515C89.7983 109.139 89.8949 108.721 89.8839 108.298C89.8729 107.875 89.7546 107.462 89.5401 107.098C89.3256 106.734 89.022 106.43 88.6577 106.215L87.6662 105.624C87.6348 105.606 87.6082 105.58 87.5887 105.55C87.5692 105.519 87.5573 105.484 87.554 105.448C87.5503 105.411 87.5556 105.375 87.5694 105.341C87.5832 105.308 87.605 105.278 87.633 105.254L93.3325 100.297L94.5194 118.152H93.1766C92.8837 118.165 92.607 118.29 92.4042 118.501C92.2014 118.713 92.0882 118.995 92.0882 119.288C92.0882 119.581 92.2014 119.863 92.4042 120.075C92.607 120.286 92.8837 120.411 93.1766 120.424H96.8224C97.2471 120.425 97.6542 120.594 97.9543 120.894C98.2544 121.195 98.423 121.602 98.423 122.027V123.935H75.7206V122.029Z" fill="url(#paint20_linear_63_663)"/>
<path d="M69.4619 125.072C69.4619 125.221 69.4913 125.369 69.5485 125.507C69.6056 125.645 69.6894 125.77 69.7949 125.876C69.9005 125.981 70.0259 126.065 70.1638 126.122C70.3017 126.179 70.4496 126.209 70.5989 126.209H104.553C104.706 126.215 104.859 126.191 105.003 126.137C105.146 126.082 105.277 126 105.388 125.894C105.499 125.788 105.587 125.66 105.647 125.519C105.707 125.378 105.738 125.226 105.738 125.073C105.738 124.919 105.707 124.768 105.647 124.626C105.587 124.485 105.499 124.358 105.388 124.252C105.277 124.146 105.146 124.063 105.003 124.009C104.859 123.955 104.706 123.93 104.553 123.937H100.697V122.029C100.696 121.001 100.287 120.017 99.5609 119.29C98.8345 118.564 97.8497 118.155 96.8224 118.154H96.7975L95.4817 98.3847C96.3746 97.4138 96.8701 96.143 96.8702 94.824V91.6396L104.353 83.5581L108.539 87.0646C108.684 87.1854 108.802 87.3343 108.886 87.5023C108.971 87.6703 109.021 87.8538 109.032 88.0416C109.043 88.2294 109.016 88.4175 108.952 88.5944C108.888 88.7713 108.789 88.9333 108.66 89.0705L102.237 95.9298C101.992 96.1954 101.651 96.3533 101.29 96.3693C100.929 96.3852 100.576 96.2579 100.308 96.0151C100.083 95.8141 99.7878 95.7108 99.4867 95.7277C99.1855 95.7447 98.9035 95.8806 98.7025 96.1055C98.5016 96.3304 98.3982 96.6259 98.4152 96.9271C98.4321 97.2282 98.568 97.5103 98.7929 97.7112C99.5021 98.3519 100.435 98.6873 101.39 98.6449C102.345 98.6025 103.244 98.1857 103.894 97.4846L110.317 90.6253C110.656 90.2627 110.917 89.8349 111.085 89.3678C111.254 88.9008 111.325 88.4043 111.295 87.9089C111.264 87.4134 111.134 86.9293 110.91 86.486C110.687 86.0428 110.375 85.6499 109.994 85.3311L104.983 81.1261C104.76 80.9387 104.473 80.8445 104.181 80.8631C103.89 80.8817 103.618 81.0116 103.42 81.2259L96.8702 88.2931V84.5849C96.916 84.6389 96.9575 84.6971 97.0033 84.7491C97.1014 84.8614 97.2207 84.9533 97.3543 85.0195C97.488 85.0858 97.6334 85.125 97.7822 85.135C97.931 85.1451 98.0803 85.1257 98.2217 85.078C98.363 85.0304 98.4935 84.9553 98.6059 84.8572C98.7182 84.759 98.8101 84.6397 98.8763 84.5061C98.9425 84.3725 98.9818 84.2271 98.9918 84.0783C99.0019 83.9294 98.9825 83.7801 98.9348 83.6388C98.8871 83.4975 98.8121 83.3669 98.714 83.2546C98.0667 82.4928 97.5087 81.6594 97.0511 80.7707C97.0046 80.6836 96.9466 80.6032 96.8786 80.5316V78.2452C96.8804 76.6876 96.436 75.1622 95.5979 73.8493C94.7599 72.5364 93.5633 71.4911 92.1498 70.8371C91.8546 70.702 91.5698 70.5668 91.2913 70.4213C92.5135 69.5774 93.2244 68.1349 93.2244 66.2642V61.5873L94.7584 61.606H94.7729C95.066 61.5955 95.3436 61.4722 95.5479 61.2618C95.7522 61.0514 95.8673 60.7703 95.8691 60.4771C95.871 60.1838 95.7595 59.9012 95.558 59.6882C95.3564 59.4753 95.0804 59.3484 94.7875 59.3341L93.0934 59.3113C92.9979 58.9081 92.8475 58.52 92.6465 58.1576L93.8521 56.6714C93.9462 56.5557 94.0165 56.4226 94.0591 56.2797C94.1017 56.1368 94.1157 55.9869 94.1003 55.8385C94.085 55.6902 94.0406 55.5463 93.9696 55.4152C93.8987 55.284 93.8026 55.1681 93.6869 55.074C93.5711 54.98 93.438 54.9097 93.2951 54.8671C93.1522 54.8245 93.0023 54.8105 92.854 54.8258C92.7056 54.8412 92.5618 54.8856 92.4306 54.9565C92.2994 55.0275 92.1835 55.1236 92.0895 55.2393L91.0668 56.4865C90.6655 56.2342 90.2271 56.0462 89.7677 55.9294V54.4224C89.7743 54.2691 89.7497 54.1161 89.6956 53.9726C89.6415 53.8291 89.5588 53.698 89.4527 53.5872C89.3466 53.4764 89.2191 53.3883 89.0781 53.3281C88.937 53.2679 88.7851 53.2368 88.6317 53.2368C88.4783 53.2368 88.3265 53.2679 88.1854 53.3281C88.0443 53.3883 87.9169 53.4764 87.8108 53.5872C87.7046 53.698 87.622 53.8291 87.5679 53.9726C87.5138 54.1161 87.4892 54.2691 87.4958 54.4224V55.9398C87.0364 56.0566 86.598 56.2446 86.1967 56.4968L85.174 55.2497C84.98 55.0284 84.7077 54.891 84.4145 54.8664C84.1212 54.8417 83.8298 54.9317 83.6016 55.1174C83.3733 55.3032 83.226 55.5702 83.1905 55.8623C83.155 56.1544 83.2342 56.449 83.4114 56.6839L84.6169 58.168C84.4153 58.5339 84.2642 58.9255 84.168 59.332L83.5984 59.3445C83.3054 59.3601 83.0297 59.4883 82.829 59.7024C82.6283 59.9166 82.5182 60.2 82.5217 60.4934C82.5252 60.7869 82.642 61.0676 82.8477 61.2769C83.0534 61.4862 83.3321 61.6079 83.6254 61.6164H83.6525H84.037V65.7736C83.607 65.3947 83.2061 64.9841 82.8377 64.5452C82.7188 64.3913 82.5625 64.2706 82.3836 64.1944C82.2048 64.1182 82.0094 64.0891 81.8161 64.11C81.6228 64.1308 81.4381 64.2009 81.2796 64.3135C81.1211 64.4261 80.9941 64.5774 80.9108 64.753C80.175 66.2974 78.7615 67.4323 77.6682 68.1287C76.8943 65.6393 76.5128 63.0446 76.5374 60.4379V55.179C76.544 55.0258 76.5195 54.8727 76.4653 54.7292C76.4112 54.5857 76.3286 54.4546 76.2225 54.3438C76.1163 54.233 75.9889 54.1449 75.8478 54.0847C75.7067 54.0245 75.5549 53.9934 75.4015 53.9934C75.2481 53.9934 75.0963 54.0245 74.9552 54.0847C74.8141 54.1449 74.6866 54.233 74.5805 54.3438C74.4744 54.4546 74.3918 54.5857 74.3376 54.7292C74.2835 54.8727 74.259 55.0258 74.2655 55.179V60.4379C74.2374 63.4373 74.708 66.4206 75.6582 69.2656C74.8891 69.8456 73.9829 71.0117 74.3508 72.6247C74.7062 74.1878 76.2215 74.8487 77.2733 75.119V81.1739C76.7081 81.9227 76.4393 82.8538 76.5183 83.7886C76.5973 84.7234 77.0186 85.5961 77.7015 86.2394C77.6807 88.3451 77.5372 91.7436 77.2857 96.3539C77.2686 96.6546 77.3717 96.9498 77.5723 97.1745C77.7728 97.3992 78.0545 97.5351 78.3552 97.5522C78.6559 97.5693 78.9511 97.4662 79.1758 97.2656C79.4005 97.0651 79.5364 96.7835 79.5535 96.4827C79.8216 91.7789 79.9692 88.318 79.9858 86.1771L83.2014 83.0446C83.4056 82.8322 83.5193 82.5489 83.5187 82.2543C83.5181 81.9597 83.4031 81.6768 83.1981 81.4653C82.993 81.2538 82.7139 81.1301 82.4194 81.1203C82.125 81.1106 81.8382 81.2155 81.6196 81.4129L78.8946 84.0528C78.8399 83.9197 78.8035 83.7799 78.7865 83.637C78.7633 83.4147 78.7884 83.1901 78.8602 82.9784C78.932 82.7667 79.0486 82.573 79.2022 82.4107L79.2271 82.3857L85.968 75.6656C86.0804 75.5618 86.1707 75.4364 86.2335 75.2969C86.2963 75.1574 86.3303 75.0066 86.3334 74.8537C86.3366 74.7007 86.3088 74.5487 86.2518 74.4067C86.1948 74.2647 86.1098 74.1357 86.0017 74.0274C85.8937 73.919 85.7649 73.8336 85.623 73.7763C85.4812 73.7189 85.3292 73.6907 85.1763 73.6935C85.0233 73.6962 84.8724 73.7298 84.7328 73.7923C84.5931 73.8547 84.4674 73.9447 84.3634 74.0568L79.5452 78.8542V74.1732C79.5452 73.8886 79.4384 73.6143 79.246 73.4045C79.0536 73.1948 78.7895 73.0648 78.5059 73.0404C77.8823 72.9884 76.685 72.6247 76.5686 72.1216C76.4231 71.4981 76.9615 71.1114 77.1153 71.0179C77.5996 70.81 80.3537 69.5296 82.1372 67.106C83.5361 68.4321 86.3692 70.6999 91.1978 72.9094C92.2157 73.3821 93.0771 74.1363 93.6801 75.0829C94.2831 76.0296 94.6024 77.129 94.6004 78.2514V94.824C94.5989 95.2531 94.5053 95.6768 94.326 96.0665C94.1467 96.4563 93.8859 96.8031 93.5611 97.0835L88.7097 101.307L92.077 88.7836C92.1453 88.4959 92.0989 88.1929 91.9475 87.9388C91.7961 87.6848 91.5517 87.4997 91.2661 87.4229C90.9805 87.3461 90.6762 87.3836 90.4178 87.5274C90.1594 87.6713 89.9672 87.9101 89.882 88.1933L85.5481 104.313C85.2666 104.877 85.2089 105.526 85.3866 106.131C85.5644 106.735 85.9645 107.25 86.5064 107.572L87.4979 108.164C87.5317 108.184 87.5598 108.212 87.5795 108.245C87.5992 108.279 87.6098 108.317 87.6101 108.356C87.6132 108.396 87.6053 108.437 87.5874 108.473C87.5695 108.51 87.5422 108.541 87.5083 108.564L79.0567 114.224C78.9915 114.271 78.914 114.298 78.8336 114.302C78.7532 114.306 78.6734 114.286 78.6039 114.246C78.5343 114.205 78.478 114.146 78.4418 114.074C78.4056 114.002 78.391 113.921 78.3999 113.841C78.5454 111.829 78.7657 108.709 78.9923 105.267C78.9986 105.169 78.9909 105.07 78.9694 104.974L85.9826 91.9202C86.1101 91.6563 86.1307 91.3533 86.0402 91.0744C85.9496 90.7956 85.7549 90.5626 85.4966 90.4239C85.2383 90.2852 84.9365 90.2517 84.654 90.3303C84.3716 90.4088 84.1304 90.5935 83.9809 90.8456L75.5709 106.497C75.5002 106.629 75.4561 106.773 75.4411 106.921C75.4262 107.07 75.4406 107.22 75.4837 107.363C75.5267 107.505 75.5975 107.638 75.692 107.754C75.7865 107.869 75.9029 107.965 76.0344 108.036C76.1848 108.115 76.3509 108.161 76.5208 108.169C76.3712 110.362 76.234 112.286 76.1342 113.677C76.0955 114.18 76.2002 114.683 76.436 115.129C76.6718 115.575 77.0291 115.945 77.4666 116.196L77.4915 116.209L77.3606 118.154H77.3273C76.3001 118.155 75.3152 118.564 74.5888 119.29C73.8625 120.017 73.4539 121.001 73.4528 122.029V123.937H70.5989C70.4497 123.937 70.3019 123.966 70.164 124.023C70.026 124.08 69.9007 124.163 69.7951 124.268C69.6895 124.374 69.6057 124.499 69.5485 124.637C69.4913 124.775 69.4619 124.923 69.4619 125.072V125.072ZM88.6224 58.0641C89.2284 58.065 89.8101 58.3026 90.2434 58.7262C90.6768 59.1499 90.9275 59.726 90.9421 60.3319C90.2403 59.9155 89.4394 59.6957 88.6234 59.6957C87.8074 59.6957 87.0065 59.9155 86.3048 60.3319C86.3194 59.7264 86.5698 59.1505 87.0027 58.727C87.4356 58.3034 88.0167 58.0656 88.6224 58.0641ZM86.2985 67.4199V64.2895C86.2892 63.9789 86.3424 63.6696 86.4548 63.3799C86.5673 63.0902 86.7367 62.826 86.9531 62.603C87.1696 62.38 87.4285 62.2027 87.7147 62.0817C88.0009 61.9606 88.3085 61.8982 88.6193 61.8982C88.93 61.8982 89.2376 61.9606 89.5238 62.0817C89.81 62.2027 90.069 62.38 90.2854 62.603C90.5018 62.826 90.6713 63.0902 90.7837 63.3799C90.8962 63.6696 90.9493 63.9789 90.94 64.2895V66.2829C90.94 68.0393 90.1294 68.9435 88.5351 68.985C87.6808 68.4841 86.9325 67.9977 86.286 67.5446C86.2925 67.5033 86.2966 67.4616 86.2985 67.4199ZM75.7206 122.029C75.7206 121.604 75.8891 121.197 76.1892 120.896C76.4893 120.596 76.8964 120.427 77.3211 120.426H87.0302C87.1834 120.433 87.3365 120.408 87.48 120.354C87.6235 120.3 87.7546 120.217 87.8654 120.111C87.9762 120.005 88.0643 119.878 88.1245 119.736C88.1847 119.595 88.2158 119.444 88.2158 119.29C88.2158 119.137 88.1847 118.985 88.1245 118.844C88.0643 118.703 87.9762 118.575 87.8654 118.469C87.7546 118.363 87.6235 118.28 87.48 118.226C87.3365 118.172 87.1834 118.148 87.0302 118.154H79.6325L79.7634 116.385C79.96 116.314 80.1477 116.22 80.3226 116.105L88.7679 110.443C89.1204 110.209 89.4078 109.89 89.603 109.515C89.7983 109.139 89.8949 108.721 89.8839 108.298C89.8729 107.875 89.7546 107.462 89.5401 107.098C89.3256 106.734 89.022 106.43 88.6577 106.215L87.6662 105.624C87.6348 105.606 87.6082 105.58 87.5887 105.55C87.5692 105.519 87.5573 105.484 87.554 105.448C87.5503 105.411 87.5556 105.375 87.5694 105.341C87.5832 105.308 87.605 105.278 87.633 105.254L93.3325 100.297L94.5194 118.152H93.1766C92.8837 118.165 92.607 118.29 92.4042 118.501C92.2014 118.713 92.0882 118.995 92.0882 119.288C92.0882 119.581 92.2014 119.863 92.4042 120.075C92.607 120.286 92.8837 120.411 93.1766 120.424H96.8224C97.2471 120.425 97.6542 120.594 97.9543 120.894C98.2544 121.195 98.423 121.602 98.423 122.027V123.935H75.7206V122.029Z" fill="url(#paint21_radial_63_663)" fill-opacity="0.2"/>
<path d="M69.4619 125.072C69.4619 125.221 69.4913 125.369 69.5485 125.507C69.6056 125.645 69.6894 125.77 69.7949 125.876C69.9005 125.981 70.0259 126.065 70.1638 126.122C70.3017 126.179 70.4496 126.209 70.5989 126.209H104.553C104.706 126.215 104.859 126.191 105.003 126.137C105.146 126.082 105.277 126 105.388 125.894C105.499 125.788 105.587 125.66 105.647 125.519C105.707 125.378 105.738 125.226 105.738 125.073C105.738 124.919 105.707 124.768 105.647 124.626C105.587 124.485 105.499 124.358 105.388 124.252C105.277 124.146 105.146 124.063 105.003 124.009C104.859 123.955 104.706 123.93 104.553 123.937H100.697V122.029C100.696 121.001 100.287 120.017 99.5609 119.29C98.8345 118.564 97.8497 118.155 96.8224 118.154H96.7975L95.4817 98.3847C96.3746 97.4138 96.8701 96.143 96.8702 94.824V91.6396L104.353 83.5581L108.539 87.0646C108.684 87.1854 108.802 87.3343 108.886 87.5023C108.971 87.6703 109.021 87.8538 109.032 88.0416C109.043 88.2294 109.016 88.4175 108.952 88.5944C108.888 88.7713 108.789 88.9333 108.66 89.0705L102.237 95.9298C101.992 96.1954 101.651 96.3533 101.29 96.3693C100.929 96.3852 100.576 96.2579 100.308 96.0151C100.083 95.8141 99.7878 95.7108 99.4867 95.7277C99.1855 95.7447 98.9035 95.8806 98.7025 96.1055C98.5016 96.3304 98.3982 96.6259 98.4152 96.9271C98.4321 97.2282 98.568 97.5103 98.7929 97.7112C99.5021 98.3519 100.435 98.6873 101.39 98.6449C102.345 98.6025 103.244 98.1857 103.894 97.4846L110.317 90.6253C110.656 90.2627 110.917 89.8349 111.085 89.3678C111.254 88.9008 111.325 88.4043 111.295 87.9089C111.264 87.4134 111.134 86.9293 110.91 86.486C110.687 86.0428 110.375 85.6499 109.994 85.3311L104.983 81.1261C104.76 80.9387 104.473 80.8445 104.181 80.8631C103.89 80.8817 103.618 81.0116 103.42 81.2259L96.8702 88.2931V84.5849C96.916 84.6389 96.9575 84.6971 97.0033 84.7491C97.1014 84.8614 97.2207 84.9533 97.3543 85.0195C97.488 85.0858 97.6334 85.125 97.7822 85.135C97.931 85.1451 98.0803 85.1257 98.2217 85.078C98.363 85.0304 98.4935 84.9553 98.6059 84.8572C98.7182 84.759 98.8101 84.6397 98.8763 84.5061C98.9425 84.3725 98.9818 84.2271 98.9918 84.0783C99.0019 83.9294 98.9825 83.7801 98.9348 83.6388C98.8871 83.4975 98.8121 83.3669 98.714 83.2546C98.0667 82.4928 97.5087 81.6594 97.0511 80.7707C97.0046 80.6836 96.9466 80.6032 96.8786 80.5316V78.2452C96.8804 76.6876 96.436 75.1622 95.5979 73.8493C94.7599 72.5364 93.5633 71.4911 92.1498 70.8371C91.8546 70.702 91.5698 70.5668 91.2913 70.4213C92.5135 69.5774 93.2244 68.1349 93.2244 66.2642V61.5873L94.7584 61.606H94.7729C95.066 61.5955 95.3436 61.4722 95.5479 61.2618C95.7522 61.0514 95.8673 60.7703 95.8691 60.4771C95.871 60.1838 95.7595 59.9012 95.558 59.6882C95.3564 59.4753 95.0804 59.3484 94.7875 59.3341L93.0934 59.3113C92.9979 58.9081 92.8475 58.52 92.6465 58.1576L93.8521 56.6714C93.9462 56.5557 94.0165 56.4226 94.0591 56.2797C94.1017 56.1368 94.1157 55.9869 94.1003 55.8385C94.085 55.6902 94.0406 55.5463 93.9696 55.4152C93.8987 55.284 93.8026 55.1681 93.6869 55.074C93.5711 54.98 93.438 54.9097 93.2951 54.8671C93.1522 54.8245 93.0023 54.8105 92.854 54.8258C92.7056 54.8412 92.5618 54.8856 92.4306 54.9565C92.2994 55.0275 92.1835 55.1236 92.0895 55.2393L91.0668 56.4865C90.6655 56.2342 90.2271 56.0462 89.7677 55.9294V54.4224C89.7743 54.2691 89.7497 54.1161 89.6956 53.9726C89.6415 53.8291 89.5588 53.698 89.4527 53.5872C89.3466 53.4764 89.2191 53.3883 89.0781 53.3281C88.937 53.2679 88.7851 53.2368 88.6317 53.2368C88.4783 53.2368 88.3265 53.2679 88.1854 53.3281C88.0443 53.3883 87.9169 53.4764 87.8108 53.5872C87.7046 53.698 87.622 53.8291 87.5679 53.9726C87.5138 54.1161 87.4892 54.2691 87.4958 54.4224V55.9398C87.0364 56.0566 86.598 56.2446 86.1967 56.4968L85.174 55.2497C84.98 55.0284 84.7077 54.891 84.4145 54.8664C84.1212 54.8417 83.8298 54.9317 83.6016 55.1174C83.3733 55.3032 83.226 55.5702 83.1905 55.8623C83.155 56.1544 83.2342 56.449 83.4114 56.6839L84.6169 58.168C84.4153 58.5339 84.2642 58.9255 84.168 59.332L83.5984 59.3445C83.3054 59.3601 83.0297 59.4883 82.829 59.7024C82.6283 59.9166 82.5182 60.2 82.5217 60.4934C82.5252 60.7869 82.642 61.0676 82.8477 61.2769C83.0534 61.4862 83.3321 61.6079 83.6254 61.6164H83.6525H84.037V65.7736C83.607 65.3947 83.2061 64.9841 82.8377 64.5452C82.7188 64.3913 82.5625 64.2706 82.3836 64.1944C82.2048 64.1182 82.0094 64.0891 81.8161 64.11C81.6228 64.1308 81.4381 64.2009 81.2796 64.3135C81.1211 64.4261 80.9941 64.5774 80.9108 64.753C80.175 66.2974 78.7615 67.4323 77.6682 68.1287C76.8943 65.6393 76.5128 63.0446 76.5374 60.4379V55.179C76.544 55.0258 76.5195 54.8727 76.4653 54.7292C76.4112 54.5857 76.3286 54.4546 76.2225 54.3438C76.1163 54.233 75.9889 54.1449 75.8478 54.0847C75.7067 54.0245 75.5549 53.9934 75.4015 53.9934C75.2481 53.9934 75.0963 54.0245 74.9552 54.0847C74.8141 54.1449 74.6866 54.233 74.5805 54.3438C74.4744 54.4546 74.3918 54.5857 74.3376 54.7292C74.2835 54.8727 74.259 55.0258 74.2655 55.179V60.4379C74.2374 63.4373 74.708 66.4206 75.6582 69.2656C74.8891 69.8456 73.9829 71.0117 74.3508 72.6247C74.7062 74.1878 76.2215 74.8487 77.2733 75.119V81.1739C76.7081 81.9227 76.4393 82.8538 76.5183 83.7886C76.5973 84.7234 77.0186 85.5961 77.7015 86.2394C77.6807 88.3451 77.5372 91.7436 77.2857 96.3539C77.2686 96.6546 77.3717 96.9498 77.5723 97.1745C77.7728 97.3992 78.0545 97.5351 78.3552 97.5522C78.6559 97.5693 78.9511 97.4662 79.1758 97.2656C79.4005 97.0651 79.5364 96.7835 79.5535 96.4827C79.8216 91.7789 79.9692 88.318 79.9858 86.1771L83.2014 83.0446C83.4056 82.8322 83.5193 82.5489 83.5187 82.2543C83.5181 81.9597 83.4031 81.6768 83.1981 81.4653C82.993 81.2538 82.7139 81.1301 82.4194 81.1203C82.125 81.1106 81.8382 81.2155 81.6196 81.4129L78.8946 84.0528C78.8399 83.9197 78.8035 83.7799 78.7865 83.637C78.7633 83.4147 78.7884 83.1901 78.8602 82.9784C78.932 82.7667 79.0486 82.573 79.2022 82.4107L79.2271 82.3857L85.968 75.6656C86.0804 75.5618 86.1707 75.4364 86.2335 75.2969C86.2963 75.1574 86.3303 75.0066 86.3334 74.8537C86.3366 74.7007 86.3088 74.5487 86.2518 74.4067C86.1948 74.2647 86.1098 74.1357 86.0017 74.0274C85.8937 73.919 85.7649 73.8336 85.623 73.7763C85.4812 73.7189 85.3292 73.6907 85.1763 73.6935C85.0233 73.6962 84.8724 73.7298 84.7328 73.7923C84.5931 73.8547 84.4674 73.9447 84.3634 74.0568L79.5452 78.8542V74.1732C79.5452 73.8886 79.4384 73.6143 79.246 73.4045C79.0536 73.1948 78.7895 73.0648 78.5059 73.0404C77.8823 72.9884 76.685 72.6247 76.5686 72.1216C76.4231 71.4981 76.9615 71.1114 77.1153 71.0179C77.5996 70.81 80.3537 69.5296 82.1372 67.106C83.5361 68.4321 86.3692 70.6999 91.1978 72.9094C92.2157 73.3821 93.0771 74.1363 93.6801 75.0829C94.2831 76.0296 94.6024 77.129 94.6004 78.2514V94.824C94.5989 95.2531 94.5053 95.6768 94.326 96.0665C94.1467 96.4563 93.8859 96.8031 93.5611 97.0835L88.7097 101.307L92.077 88.7836C92.1453 88.4959 92.0989 88.1929 91.9475 87.9388C91.7961 87.6848 91.5517 87.4997 91.2661 87.4229C90.9805 87.3461 90.6762 87.3836 90.4178 87.5274C90.1594 87.6713 89.9672 87.9101 89.882 88.1933L85.5481 104.313C85.2666 104.877 85.2089 105.526 85.3866 106.131C85.5644 106.735 85.9645 107.25 86.5064 107.572L87.4979 108.164C87.5317 108.184 87.5598 108.212 87.5795 108.245C87.5992 108.279 87.6098 108.317 87.6101 108.356C87.6132 108.396 87.6053 108.437 87.5874 108.473C87.5695 108.51 87.5422 108.541 87.5083 108.564L79.0567 114.224C78.9915 114.271 78.914 114.298 78.8336 114.302C78.7532 114.306 78.6734 114.286 78.6039 114.246C78.5343 114.205 78.478 114.146 78.4418 114.074C78.4056 114.002 78.391 113.921 78.3999 113.841C78.5454 111.829 78.7657 108.709 78.9923 105.267C78.9986 105.169 78.9909 105.07 78.9694 104.974L85.9826 91.9202C86.1101 91.6563 86.1307 91.3533 86.0402 91.0744C85.9496 90.7956 85.7549 90.5626 85.4966 90.4239C85.2383 90.2852 84.9365 90.2517 84.654 90.3303C84.3716 90.4088 84.1304 90.5935 83.9809 90.8456L75.5709 106.497C75.5002 106.629 75.4561 106.773 75.4411 106.921C75.4262 107.07 75.4406 107.22 75.4837 107.363C75.5267 107.505 75.5975 107.638 75.692 107.754C75.7865 107.869 75.9029 107.965 76.0344 108.036C76.1848 108.115 76.3509 108.161 76.5208 108.169C76.3712 110.362 76.234 112.286 76.1342 113.677C76.0955 114.18 76.2002 114.683 76.436 115.129C76.6718 115.575 77.0291 115.945 77.4666 116.196L77.4915 116.209L77.3606 118.154H77.3273C76.3001 118.155 75.3152 118.564 74.5888 119.29C73.8625 120.017 73.4539 121.001 73.4528 122.029V123.937H70.5989C70.4497 123.937 70.3019 123.966 70.164 124.023C70.026 124.08 69.9007 124.163 69.7951 124.268C69.6895 124.374 69.6057 124.499 69.5485 124.637C69.4913 124.775 69.4619 124.923 69.4619 125.072V125.072ZM88.6224 58.0641C89.2284 58.065 89.8101 58.3026 90.2434 58.7262C90.6768 59.1499 90.9275 59.726 90.9421 60.3319C90.2403 59.9155 89.4394 59.6957 88.6234 59.6957C87.8074 59.6957 87.0065 59.9155 86.3048 60.3319C86.3194 59.7264 86.5698 59.1505 87.0027 58.727C87.4356 58.3034 88.0167 58.0656 88.6224 58.0641ZM86.2985 67.4199V64.2895C86.2892 63.9789 86.3424 63.6696 86.4548 63.3799C86.5673 63.0902 86.7367 62.826 86.9531 62.603C87.1696 62.38 87.4285 62.2027 87.7147 62.0817C88.0009 61.9606 88.3085 61.8982 88.6193 61.8982C88.93 61.8982 89.2376 61.9606 89.5238 62.0817C89.81 62.2027 90.069 62.38 90.2854 62.603C90.5018 62.826 90.6713 63.0902 90.7837 63.3799C90.8962 63.6696 90.9493 63.9789 90.94 64.2895V66.2829C90.94 68.0393 90.1294 68.9435 88.5351 68.985C87.6808 68.4841 86.9325 67.9977 86.286 67.5446C86.2925 67.5033 86.2966 67.4616 86.2985 67.4199ZM75.7206 122.029C75.7206 121.604 75.8891 121.197 76.1892 120.896C76.4893 120.596 76.8964 120.427 77.3211 120.426H87.0302C87.1834 120.433 87.3365 120.408 87.48 120.354C87.6235 120.3 87.7546 120.217 87.8654 120.111C87.9762 120.005 88.0643 119.878 88.1245 119.736C88.1847 119.595 88.2158 119.444 88.2158 119.29C88.2158 119.137 88.1847 118.985 88.1245 118.844C88.0643 118.703 87.9762 118.575 87.8654 118.469C87.7546 118.363 87.6235 118.28 87.48 118.226C87.3365 118.172 87.1834 118.148 87.0302 118.154H79.6325L79.7634 116.385C79.96 116.314 80.1477 116.22 80.3226 116.105L88.7679 110.443C89.1204 110.209 89.4078 109.89 89.603 109.515C89.7983 109.139 89.8949 108.721 89.8839 108.298C89.8729 107.875 89.7546 107.462 89.5401 107.098C89.3256 106.734 89.022 106.43 88.6577 106.215L87.6662 105.624C87.6348 105.606 87.6082 105.58 87.5887 105.55C87.5692 105.519 87.5573 105.484 87.554 105.448C87.5503 105.411 87.5556 105.375 87.5694 105.341C87.5832 105.308 87.605 105.278 87.633 105.254L93.3325 100.297L94.5194 118.152H93.1766C92.8837 118.165 92.607 118.29 92.4042 118.501C92.2014 118.713 92.0882 118.995 92.0882 119.288C92.0882 119.581 92.2014 119.863 92.4042 120.075C92.607 120.286 92.8837 120.411 93.1766 120.424H96.8224C97.2471 120.425 97.6542 120.594 97.9543 120.894C98.2544 121.195 98.423 121.602 98.423 122.027V123.935H75.7206V122.029Z" stroke="url(#paint22_linear_63_663)" stroke-width="0.6" mask="url(#path-7-outside-1_63_663)"/>
<path d="M69.4619 125.072C69.4619 125.221 69.4913 125.369 69.5485 125.507C69.6056 125.645 69.6894 125.77 69.7949 125.876C69.9005 125.981 70.0259 126.065 70.1638 126.122C70.3017 126.179 70.4496 126.209 70.5989 126.209H104.553C104.706 126.215 104.859 126.191 105.003 126.137C105.146 126.082 105.277 126 105.388 125.894C105.499 125.788 105.587 125.66 105.647 125.519C105.707 125.378 105.738 125.226 105.738 125.073C105.738 124.919 105.707 124.768 105.647 124.626C105.587 124.485 105.499 124.358 105.388 124.252C105.277 124.146 105.146 124.063 105.003 124.009C104.859 123.955 104.706 123.93 104.553 123.937H100.697V122.029C100.696 121.001 100.287 120.017 99.5609 119.29C98.8345 118.564 97.8497 118.155 96.8224 118.154H96.7975L95.4817 98.3847C96.3746 97.4138 96.8701 96.143 96.8702 94.824V91.6396L104.353 83.5581L108.539 87.0646C108.684 87.1854 108.802 87.3343 108.886 87.5023C108.971 87.6703 109.021 87.8538 109.032 88.0416C109.043 88.2294 109.016 88.4175 108.952 88.5944C108.888 88.7713 108.789 88.9333 108.66 89.0705L102.237 95.9298C101.992 96.1954 101.651 96.3533 101.29 96.3693C100.929 96.3852 100.576 96.2579 100.308 96.0151C100.083 95.8141 99.7878 95.7108 99.4867 95.7277C99.1855 95.7447 98.9035 95.8806 98.7025 96.1055C98.5016 96.3304 98.3982 96.6259 98.4152 96.9271C98.4321 97.2282 98.568 97.5103 98.7929 97.7112C99.5021 98.3519 100.435 98.6873 101.39 98.6449C102.345 98.6025 103.244 98.1857 103.894 97.4846L110.317 90.6253C110.656 90.2627 110.917 89.8349 111.085 89.3678C111.254 88.9008 111.325 88.4043 111.295 87.9089C111.264 87.4134 111.134 86.9293 110.91 86.486C110.687 86.0428 110.375 85.6499 109.994 85.3311L104.983 81.1261C104.76 80.9387 104.473 80.8445 104.181 80.8631C103.89 80.8817 103.618 81.0116 103.42 81.2259L96.8702 88.2931V84.5849C96.916 84.6389 96.9575 84.6971 97.0033 84.7491C97.1014 84.8614 97.2207 84.9533 97.3543 85.0195C97.488 85.0858 97.6334 85.125 97.7822 85.135C97.931 85.1451 98.0803 85.1257 98.2217 85.078C98.363 85.0304 98.4935 84.9553 98.6059 84.8572C98.7182 84.759 98.8101 84.6397 98.8763 84.5061C98.9425 84.3725 98.9818 84.2271 98.9918 84.0783C99.0019 83.9294 98.9825 83.7801 98.9348 83.6388C98.8871 83.4975 98.8121 83.3669 98.714 83.2546C98.0667 82.4928 97.5087 81.6594 97.0511 80.7707C97.0046 80.6836 96.9466 80.6032 96.8786 80.5316V78.2452C96.8804 76.6876 96.436 75.1622 95.5979 73.8493C94.7599 72.5364 93.5633 71.4911 92.1498 70.8371C91.8546 70.702 91.5698 70.5668 91.2913 70.4213C92.5135 69.5774 93.2244 68.1349 93.2244 66.2642V61.5873L94.7584 61.606H94.7729C95.066 61.5955 95.3436 61.4722 95.5479 61.2618C95.7522 61.0514 95.8673 60.7703 95.8691 60.4771C95.871 60.1838 95.7595 59.9012 95.558 59.6882C95.3564 59.4753 95.0804 59.3484 94.7875 59.3341L93.0934 59.3113C92.9979 58.9081 92.8475 58.52 92.6465 58.1576L93.8521 56.6714C93.9462 56.5557 94.0165 56.4226 94.0591 56.2797C94.1017 56.1368 94.1157 55.9869 94.1003 55.8385C94.085 55.6902 94.0406 55.5463 93.9696 55.4152C93.8987 55.284 93.8026 55.1681 93.6869 55.074C93.5711 54.98 93.438 54.9097 93.2951 54.8671C93.1522 54.8245 93.0023 54.8105 92.854 54.8258C92.7056 54.8412 92.5618 54.8856 92.4306 54.9565C92.2994 55.0275 92.1835 55.1236 92.0895 55.2393L91.0668 56.4865C90.6655 56.2342 90.2271 56.0462 89.7677 55.9294V54.4224C89.7743 54.2691 89.7497 54.1161 89.6956 53.9726C89.6415 53.8291 89.5588 53.698 89.4527 53.5872C89.3466 53.4764 89.2191 53.3883 89.0781 53.3281C88.937 53.2679 88.7851 53.2368 88.6317 53.2368C88.4783 53.2368 88.3265 53.2679 88.1854 53.3281C88.0443 53.3883 87.9169 53.4764 87.8108 53.5872C87.7046 53.698 87.622 53.8291 87.5679 53.9726C87.5138 54.1161 87.4892 54.2691 87.4958 54.4224V55.9398C87.0364 56.0566 86.598 56.2446 86.1967 56.4968L85.174 55.2497C84.98 55.0284 84.7077 54.891 84.4145 54.8664C84.1212 54.8417 83.8298 54.9317 83.6016 55.1174C83.3733 55.3032 83.226 55.5702 83.1905 55.8623C83.155 56.1544 83.2342 56.449 83.4114 56.6839L84.6169 58.168C84.4153 58.5339 84.2642 58.9255 84.168 59.332L83.5984 59.3445C83.3054 59.3601 83.0297 59.4883 82.829 59.7024C82.6283 59.9166 82.5182 60.2 82.5217 60.4934C82.5252 60.7869 82.642 61.0676 82.8477 61.2769C83.0534 61.4862 83.3321 61.6079 83.6254 61.6164H83.6525H84.037V65.7736C83.607 65.3947 83.2061 64.9841 82.8377 64.5452C82.7188 64.3913 82.5625 64.2706 82.3836 64.1944C82.2048 64.1182 82.0094 64.0891 81.8161 64.11C81.6228 64.1308 81.4381 64.2009 81.2796 64.3135C81.1211 64.4261 80.9941 64.5774 80.9108 64.753C80.175 66.2974 78.7615 67.4323 77.6682 68.1287C76.8943 65.6393 76.5128 63.0446 76.5374 60.4379V55.179C76.544 55.0258 76.5195 54.8727 76.4653 54.7292C76.4112 54.5857 76.3286 54.4546 76.2225 54.3438C76.1163 54.233 75.9889 54.1449 75.8478 54.0847C75.7067 54.0245 75.5549 53.9934 75.4015 53.9934C75.2481 53.9934 75.0963 54.0245 74.9552 54.0847C74.8141 54.1449 74.6866 54.233 74.5805 54.3438C74.4744 54.4546 74.3918 54.5857 74.3376 54.7292C74.2835 54.8727 74.259 55.0258 74.2655 55.179V60.4379C74.2374 63.4373 74.708 66.4206 75.6582 69.2656C74.8891 69.8456 73.9829 71.0117 74.3508 72.6247C74.7062 74.1878 76.2215 74.8487 77.2733 75.119V81.1739C76.7081 81.9227 76.4393 82.8538 76.5183 83.7886C76.5973 84.7234 77.0186 85.5961 77.7015 86.2394C77.6807 88.3451 77.5372 91.7436 77.2857 96.3539C77.2686 96.6546 77.3717 96.9498 77.5723 97.1745C77.7728 97.3992 78.0545 97.5351 78.3552 97.5522C78.6559 97.5693 78.9511 97.4662 79.1758 97.2656C79.4005 97.0651 79.5364 96.7835 79.5535 96.4827C79.8216 91.7789 79.9692 88.318 79.9858 86.1771L83.2014 83.0446C83.4056 82.8322 83.5193 82.5489 83.5187 82.2543C83.5181 81.9597 83.4031 81.6768 83.1981 81.4653C82.993 81.2538 82.7139 81.1301 82.4194 81.1203C82.125 81.1106 81.8382 81.2155 81.6196 81.4129L78.8946 84.0528C78.8399 83.9197 78.8035 83.7799 78.7865 83.637C78.7633 83.4147 78.7884 83.1901 78.8602 82.9784C78.932 82.7667 79.0486 82.573 79.2022 82.4107L79.2271 82.3857L85.968 75.6656C86.0804 75.5618 86.1707 75.4364 86.2335 75.2969C86.2963 75.1574 86.3303 75.0066 86.3334 74.8537C86.3366 74.7007 86.3088 74.5487 86.2518 74.4067C86.1948 74.2647 86.1098 74.1357 86.0017 74.0274C85.8937 73.919 85.7649 73.8336 85.623 73.7763C85.4812 73.7189 85.3292 73.6907 85.1763 73.6935C85.0233 73.6962 84.8724 73.7298 84.7328 73.7923C84.5931 73.8547 84.4674 73.9447 84.3634 74.0568L79.5452 78.8542V74.1732C79.5452 73.8886 79.4384 73.6143 79.246 73.4045C79.0536 73.1948 78.7895 73.0648 78.5059 73.0404C77.8823 72.9884 76.685 72.6247 76.5686 72.1216C76.4231 71.4981 76.9615 71.1114 77.1153 71.0179C77.5996 70.81 80.3537 69.5296 82.1372 67.106C83.5361 68.4321 86.3692 70.6999 91.1978 72.9094C92.2157 73.3821 93.0771 74.1363 93.6801 75.0829C94.2831 76.0296 94.6024 77.129 94.6004 78.2514V94.824C94.5989 95.2531 94.5053 95.6768 94.326 96.0665C94.1467 96.4563 93.8859 96.8031 93.5611 97.0835L88.7097 101.307L92.077 88.7836C92.1453 88.4959 92.0989 88.1929 91.9475 87.9388C91.7961 87.6848 91.5517 87.4997 91.2661 87.4229C90.9805 87.3461 90.6762 87.3836 90.4178 87.5274C90.1594 87.6713 89.9672 87.9101 89.882 88.1933L85.5481 104.313C85.2666 104.877 85.2089 105.526 85.3866 106.131C85.5644 106.735 85.9645 107.25 86.5064 107.572L87.4979 108.164C87.5317 108.184 87.5598 108.212 87.5795 108.245C87.5992 108.279 87.6098 108.317 87.6101 108.356C87.6132 108.396 87.6053 108.437 87.5874 108.473C87.5695 108.51 87.5422 108.541 87.5083 108.564L79.0567 114.224C78.9915 114.271 78.914 114.298 78.8336 114.302C78.7532 114.306 78.6734 114.286 78.6039 114.246C78.5343 114.205 78.478 114.146 78.4418 114.074C78.4056 114.002 78.391 113.921 78.3999 113.841C78.5454 111.829 78.7657 108.709 78.9923 105.267C78.9986 105.169 78.9909 105.07 78.9694 104.974L85.9826 91.9202C86.1101 91.6563 86.1307 91.3533 86.0402 91.0744C85.9496 90.7956 85.7549 90.5626 85.4966 90.4239C85.2383 90.2852 84.9365 90.2517 84.654 90.3303C84.3716 90.4088 84.1304 90.5935 83.9809 90.8456L75.5709 106.497C75.5002 106.629 75.4561 106.773 75.4411 106.921C75.4262 107.07 75.4406 107.22 75.4837 107.363C75.5267 107.505 75.5975 107.638 75.692 107.754C75.7865 107.869 75.9029 107.965 76.0344 108.036C76.1848 108.115 76.3509 108.161 76.5208 108.169C76.3712 110.362 76.234 112.286 76.1342 113.677C76.0955 114.18 76.2002 114.683 76.436 115.129C76.6718 115.575 77.0291 115.945 77.4666 116.196L77.4915 116.209L77.3606 118.154H77.3273C76.3001 118.155 75.3152 118.564 74.5888 119.29C73.8625 120.017 73.4539 121.001 73.4528 122.029V123.937H70.5989C70.4497 123.937 70.3019 123.966 70.164 124.023C70.026 124.08 69.9007 124.163 69.7951 124.268C69.6895 124.374 69.6057 124.499 69.5485 124.637C69.4913 124.775 69.4619 124.923 69.4619 125.072V125.072ZM88.6224 58.0641C89.2284 58.065 89.8101 58.3026 90.2434 58.7262C90.6768 59.1499 90.9275 59.726 90.9421 60.3319C90.2403 59.9155 89.4394 59.6957 88.6234 59.6957C87.8074 59.6957 87.0065 59.9155 86.3048 60.3319C86.3194 59.7264 86.5698 59.1505 87.0027 58.727C87.4356 58.3034 88.0167 58.0656 88.6224 58.0641ZM86.2985 67.4199V64.2895C86.2892 63.9789 86.3424 63.6696 86.4548 63.3799C86.5673 63.0902 86.7367 62.826 86.9531 62.603C87.1696 62.38 87.4285 62.2027 87.7147 62.0817C88.0009 61.9606 88.3085 61.8982 88.6193 61.8982C88.93 61.8982 89.2376 61.9606 89.5238 62.0817C89.81 62.2027 90.069 62.38 90.2854 62.603C90.5018 62.826 90.6713 63.0902 90.7837 63.3799C90.8962 63.6696 90.9493 63.9789 90.94 64.2895V66.2829C90.94 68.0393 90.1294 68.9435 88.5351 68.985C87.6808 68.4841 86.9325 67.9977 86.286 67.5446C86.2925 67.5033 86.2966 67.4616 86.2985 67.4199ZM75.7206 122.029C75.7206 121.604 75.8891 121.197 76.1892 120.896C76.4893 120.596 76.8964 120.427 77.3211 120.426H87.0302C87.1834 120.433 87.3365 120.408 87.48 120.354C87.6235 120.3 87.7546 120.217 87.8654 120.111C87.9762 120.005 88.0643 119.878 88.1245 119.736C88.1847 119.595 88.2158 119.444 88.2158 119.29C88.2158 119.137 88.1847 118.985 88.1245 118.844C88.0643 118.703 87.9762 118.575 87.8654 118.469C87.7546 118.363 87.6235 118.28 87.48 118.226C87.3365 118.172 87.1834 118.148 87.0302 118.154H79.6325L79.7634 116.385C79.96 116.314 80.1477 116.22 80.3226 116.105L88.7679 110.443C89.1204 110.209 89.4078 109.89 89.603 109.515C89.7983 109.139 89.8949 108.721 89.8839 108.298C89.8729 107.875 89.7546 107.462 89.5401 107.098C89.3256 106.734 89.022 106.43 88.6577 106.215L87.6662 105.624C87.6348 105.606 87.6082 105.58 87.5887 105.55C87.5692 105.519 87.5573 105.484 87.554 105.448C87.5503 105.411 87.5556 105.375 87.5694 105.341C87.5832 105.308 87.605 105.278 87.633 105.254L93.3325 100.297L94.5194 118.152H93.1766C92.8837 118.165 92.607 118.29 92.4042 118.501C92.2014 118.713 92.0882 118.995 92.0882 119.288C92.0882 119.581 92.2014 119.863 92.4042 120.075C92.607 120.286 92.8837 120.411 93.1766 120.424H96.8224C97.2471 120.425 97.6542 120.594 97.9543 120.894C98.2544 121.195 98.423 121.602 98.423 122.027V123.935H75.7206V122.029Z" stroke="url(#paint23_radial_63_663)" stroke-opacity="0.2" stroke-width="0.6" mask="url(#path-7-outside-1_63_663)"/>
<path d="M108.861 125.071C108.861 125.24 108.894 125.408 108.958 125.564C109.023 125.72 109.117 125.862 109.237 125.981C109.356 126.101 109.498 126.196 109.654 126.26C109.81 126.325 109.977 126.358 110.146 126.358H110.635V126.359L110.641 126.358C110.973 126.344 111.286 126.202 111.515 125.963C111.745 125.723 111.873 125.404 111.873 125.072C111.873 124.741 111.745 124.422 111.515 124.182C111.286 123.943 110.973 123.801 110.641 123.787L110.641 123.787H110.635H110.146M108.861 125.071C108.861 124.903 108.894 124.736 108.958 124.58C109.023 124.423 109.118 124.282 109.237 124.162C109.356 124.043 109.498 123.948 109.654 123.884C109.81 123.819 109.977 123.786 110.146 123.787M108.861 125.071C108.861 125.071 108.861 125.071 108.861 125.071L109.011 125.071M108.861 125.071C108.861 125.072 108.861 125.072 108.861 125.072L109.011 125.071M110.146 123.787C110.146 123.787 110.146 123.787 110.146 123.787L110.146 123.937M110.146 123.787H110.146V123.937M110.146 123.937H110.635L109.011 125.071M110.146 123.937C109.997 123.936 109.849 123.965 109.712 124.022C109.574 124.079 109.448 124.163 109.343 124.268C109.238 124.374 109.154 124.499 109.097 124.637C109.04 124.775 109.011 124.922 109.011 125.071" fill="url(#paint24_linear_63_663)"/>
<path d="M108.861 125.071C108.861 125.24 108.894 125.408 108.958 125.564C109.023 125.72 109.117 125.862 109.237 125.981C109.356 126.101 109.498 126.196 109.654 126.26C109.81 126.325 109.977 126.358 110.146 126.358H110.635V126.359L110.641 126.358C110.973 126.344 111.286 126.202 111.515 125.963C111.745 125.723 111.873 125.404 111.873 125.072C111.873 124.741 111.745 124.422 111.515 124.182C111.286 123.943 110.973 123.801 110.641 123.787L110.641 123.787H110.635H110.146M108.861 125.071C108.861 124.903 108.894 124.736 108.958 124.58C109.023 124.423 109.118 124.282 109.237 124.162C109.356 124.043 109.498 123.948 109.654 123.884C109.81 123.819 109.977 123.786 110.146 123.787M108.861 125.071C108.861 125.071 108.861 125.071 108.861 125.071L109.011 125.071M108.861 125.071C108.861 125.072 108.861 125.072 108.861 125.072L109.011 125.071M110.146 123.787C110.146 123.787 110.146 123.787 110.146 123.787L110.146 123.937M110.146 123.787H110.146V123.937M110.146 123.937H110.635L109.011 125.071M110.146 123.937C109.997 123.936 109.849 123.965 109.712 124.022C109.574 124.079 109.448 124.163 109.343 124.268C109.238 124.374 109.154 124.499 109.097 124.637C109.04 124.775 109.011 124.922 109.011 125.071" fill="url(#paint25_radial_63_663)" fill-opacity="0.2"/>
<path d="M108.861 125.071C108.861 125.24 108.894 125.408 108.958 125.564C109.023 125.72 109.117 125.862 109.237 125.981C109.356 126.101 109.498 126.196 109.654 126.26C109.81 126.325 109.977 126.358 110.146 126.358H110.635V126.359L110.641 126.358C110.973 126.344 111.286 126.202 111.515 125.963C111.745 125.723 111.873 125.404 111.873 125.072C111.873 124.741 111.745 124.422 111.515 124.182C111.286 123.943 110.973 123.801 110.641 123.787L110.641 123.787H110.635H110.146M108.861 125.071C108.861 124.903 108.894 124.736 108.958 124.58C109.023 124.423 109.118 124.282 109.237 124.162C109.356 124.043 109.498 123.948 109.654 123.884C109.81 123.819 109.977 123.786 110.146 123.787M108.861 125.071C108.861 125.071 108.861 125.071 108.861 125.071L109.011 125.071M108.861 125.071C108.861 125.072 108.861 125.072 108.861 125.072L109.011 125.071M110.146 123.787C110.146 123.787 110.146 123.787 110.146 123.787L110.146 123.937M110.146 123.787H110.146V123.937M110.146 123.937H110.635L109.011 125.071M110.146 123.937C109.997 123.936 109.849 123.965 109.712 124.022C109.574 124.079 109.448 124.163 109.343 124.268C109.238 124.374 109.154 124.499 109.097 124.637C109.04 124.775 109.011 124.922 109.011 125.071" stroke="url(#paint26_linear_63_663)" stroke-width="0.3"/>
<path d="M108.861 125.071C108.861 125.24 108.894 125.408 108.958 125.564C109.023 125.72 109.117 125.862 109.237 125.981C109.356 126.101 109.498 126.196 109.654 126.26C109.81 126.325 109.977 126.358 110.146 126.358H110.635V126.359L110.641 126.358C110.973 126.344 111.286 126.202 111.515 125.963C111.745 125.723 111.873 125.404 111.873 125.072C111.873 124.741 111.745 124.422 111.515 124.182C111.286 123.943 110.973 123.801 110.641 123.787L110.641 123.787H110.635H110.146M108.861 125.071C108.861 124.903 108.894 124.736 108.958 124.58C109.023 124.423 109.118 124.282 109.237 124.162C109.356 124.043 109.498 123.948 109.654 123.884C109.81 123.819 109.977 123.786 110.146 123.787M108.861 125.071C108.861 125.071 108.861 125.071 108.861 125.071L109.011 125.071M108.861 125.071C108.861 125.072 108.861 125.072 108.861 125.072L109.011 125.071M110.146 123.787C110.146 123.787 110.146 123.787 110.146 123.787L110.146 123.937M110.146 123.787H110.146V123.937M110.146 123.937H110.635L109.011 125.071M110.146 123.937C109.997 123.936 109.849 123.965 109.712 124.022C109.574 124.079 109.448 124.163 109.343 124.268C109.238 124.374 109.154 124.499 109.097 124.637C109.04 124.775 109.011 124.922 109.011 125.071" stroke="url(#paint27_radial_63_663)" stroke-opacity="0.2" stroke-width="0.3"/>
<defs>
<filter id="filter0_dd_63_663" x="0.592529" y="0.203613" width="175" height="170" filterUnits="userSpaceOnUse" color-interpolation-filters="sRGB">
<feFlood flood-opacity="0" result="BackgroundImageFix"/>
<feColorMatrix in="SourceAlpha" type="matrix" values="0 0 0 0 0 0 0 0 0 0 0 0 0 0 0 0 0 0 127 0" result="hardAlpha"/>
<feOffset dx="5" dy="10"/>
<feGaussianBlur stdDeviation="15"/>
<feComposite in2="hardAlpha" operator="out"/>
<feColorMatrix type="matrix" values="0 0 0 0 0 0 0 0 0 0 0 0 0 0 0 0 0 0 0.15 0"/>
<feBlend mode="normal" in2="BackgroundImageFix" result="effect1_dropShadow_63_663"/>
<feColorMatrix in="SourceAlpha" type="matrix" values="0 0 0 0 0 0 0 0 0 0 0 0 0 0 0 0 0 0 127 0" result="hardAlpha"/>
<feOffset dx="-10"/>
<feGaussianBlur stdDeviation="15"/>
<feComposite in2="hardAlpha" operator="out"/>
<feColorMatrix type="matrix" values="0 0 0 0 0 0 0 0 0 0 0 0 0 0 0 0 0 0 0.15 0"/>
<feBlend mode="normal" in2="effect1_dropShadow_63_663" result="effect2_dropShadow_63_663"/>
<feBlend mode="normal" in="SourceGraphic" in2="effect2_dropShadow_63_663" result="shape"/>
</filter>
<linearGradient id="paint0_linear_63_663" x1="81.7454" y1="57.4408" x2="78.2018" y2="57.3498" gradientUnits="userSpaceOnUse">
<stop stop-color="#021342"/>
<stop offset="0.466667" stop-color="#5B65B4"/>
<stop offset="1" stop-color="#1E8D9D"/>
</linearGradient>
<radialGradient id="paint1_radial_63_663" cx="0" cy="0" r="1" gradientUnits="userSpaceOnUse" gradientTransform="translate(80.2359 56.9639) rotate(54.5439) scale(2.92757 6.13307)">
<stop stop-color="#9091BF"/>
<stop offset="1" stop-color="#0085FF"/>
</radialGradient>
<linearGradient id="paint2_linear_63_663" x1="81.7454" y1="57.4408" x2="78.2018" y2="57.3498" gradientUnits="userSpaceOnUse">
<stop stop-color="#021342"/>
<stop offset="0.466667" stop-color="#5B65B4"/>
<stop offset="1" stop-color="#1E8D9D"/>
</linearGradient>
<radialGradient id="paint3_radial_63_663" cx="0" cy="0" r="1" gradientUnits="userSpaceOnUse" gradientTransform="translate(80.2359 56.9639) rotate(54.5439) scale(2.92757 6.13307)">
<stop stop-color="#9091BF"/>
<stop offset="1" stop-color="#0085FF"/>
</radialGradient>
<linearGradient id="paint4_linear_63_663" x1="79.9823" y1="45.8952" x2="72.5737" y2="43.1192" gradientUnits="userSpaceOnUse">
<stop stop-color="#021342"/>
<stop offset="0.466667" stop-color="#5B65B4"/>
<stop offset="1" stop-color="#1E8D9D"/>
</linearGradient>
<radialGradient id="paint5_radial_63_663" cx="0" cy="0" r="1" gradientUnits="userSpaceOnUse" gradientTransform="translate(76.3855 45.8173) rotate(5.4991) scale(4.06505 1.71919)">
<stop stop-color="#9091BF"/>
<stop offset="1" stop-color="#0085FF"/>
</radialGradient>
<linearGradient id="paint6_linear_63_663" x1="79.9823" y1="45.8952" x2="72.5737" y2="43.1192" gradientUnits="userSpaceOnUse">
<stop stop-color="#021342"/>
<stop offset="0.466667" stop-color="#5B65B4"/>
<stop offset="1" stop-color="#1E8D9D"/>
</linearGradient>
<radialGradient id="paint7_radial_63_663" cx="0" cy="0" r="1" gradientUnits="userSpaceOnUse" gradientTransform="translate(76.3855 45.8173) rotate(5.4991) scale(4.06505 1.71919)">
<stop stop-color="#9091BF"/>
<stop offset="1" stop-color="#0085FF"/>
</radialGradient>
<linearGradient id="paint8_linear_63_663" x1="76.8053" y1="50.578" x2="74.2084" y2="50.4232" gradientUnits="userSpaceOnUse">
<stop stop-color="#021342"/>
<stop offset="0.466667" stop-color="#5B65B4"/>
<stop offset="1" stop-color="#1E8D9D"/>
</linearGradient>
<radialGradient id="paint9_radial_63_663" cx="0" cy="0" r="1" gradientUnits="userSpaceOnUse" gradientTransform="translate(75.6958 50.4271) rotate(31.1669) scale(1.45864 2.86385)">
<stop stop-color="#9091BF"/>
<stop offset="1" stop-color="#0085FF"/>
</radialGradient>
<linearGradient id="paint10_linear_63_663" x1="76.8053" y1="50.578" x2="74.2084" y2="50.4232" gradientUnits="userSpaceOnUse">
<stop stop-color="#021342"/>
<stop offset="0.466667" stop-color="#5B65B4"/>
<stop offset="1" stop-color="#1E8D9D"/>
</linearGradient>
<radialGradient id="paint11_radial_63_663" cx="0" cy="0" r="1" gradientUnits="userSpaceOnUse" gradientTransform="translate(75.6958 50.4271) rotate(31.1669) scale(1.45864 2.86385)">
<stop stop-color="#9091BF"/>
<stop offset="1" stop-color="#0085FF"/>
</radialGradient>
<linearGradient id="paint12_linear_63_663" x1="80.1286" y1="39.3007" x2="71.4974" y2="38.4325" gradientUnits="userSpaceOnUse">
<stop stop-color="#021342"/>
<stop offset="0.466667" stop-color="#5B65B4"/>
<stop offset="1" stop-color="#1E8D9D"/>
</linearGradient>
<radialGradient id="paint13_radial_63_663" cx="0" cy="0" r="1" gradientUnits="userSpaceOnUse" gradientTransform="translate(76.4171 39.0011) rotate(19.7313) scale(4.43597 6.25007)">
<stop stop-color="#9091BF"/>
<stop offset="1" stop-color="#0085FF"/>
</radialGradient>
<linearGradient id="paint14_linear_63_663" x1="80.1286" y1="39.3007" x2="71.4974" y2="38.4325" gradientUnits="userSpaceOnUse">
<stop stop-color="#021342"/>
<stop offset="0.466667" stop-color="#5B65B4"/>
<stop offset="1" stop-color="#1E8D9D"/>
</linearGradient>
<radialGradient id="paint15_radial_63_663" cx="0" cy="0" r="1" gradientUnits="userSpaceOnUse" gradientTransform="translate(76.4171 39.0011) rotate(19.7313) scale(4.43597 6.25007)">
<stop stop-color="#9091BF"/>
<stop offset="1" stop-color="#0085FF"/>
</radialGradient>
<linearGradient id="paint16_linear_63_663" x1="87.0115" y1="79.5112" x2="84.1412" y2="79.1839" gradientUnits="userSpaceOnUse">
<stop stop-color="#021342"/>
<stop offset="0.466667" stop-color="#5B65B4"/>
<stop offset="1" stop-color="#1E8D9D"/>
</linearGradient>
<radialGradient id="paint17_radial_63_663" cx="0" cy="0" r="1" gradientUnits="userSpaceOnUse" gradientTransform="translate(85.7737 79.4231) rotate(17.5547) scale(1.46053 1.86214)">
<stop stop-color="#9091BF"/>
<stop offset="1" stop-color="#0085FF"/>
</radialGradient>
<linearGradient id="paint18_linear_63_663" x1="87.0115" y1="79.5112" x2="84.1412" y2="79.1839" gradientUnits="userSpaceOnUse">
<stop stop-color="#021342"/>
<stop offset="0.466667" stop-color="#5B65B4"/>
<stop offset="1" stop-color="#1E8D9D"/>
</linearGradient>
<radialGradient id="paint19_radial_63_663" cx="0" cy="0" r="1" gradientUnits="userSpaceOnUse" gradientTransform="translate(85.7737 79.4231) rotate(17.5547) scale(1.46053 1.86214)">
<stop stop-color="#9091BF"/>
<stop offset="1" stop-color="#0085FF"/>
</radialGradient>
<linearGradient id="paint20_linear_63_663" x1="115.803" y1="95.8316" x2="68.8794" y2="92.7758" gradientUnits="userSpaceOnUse">
<stop stop-color="#021342"/>
<stop offset="0.466667" stop-color="#5B65B4"/>
<stop offset="1" stop-color="#1E8D9D"/>
</linearGradient>
<radialGradient id="paint21_radial_63_663" cx="0" cy="0" r="1" gradientUnits="userSpaceOnUse" gradientTransform="translate(95.7422 93.3314) rotate(28.9831) scale(25.799 48.4834)">
<stop stop-color="#9091BF"/>
<stop offset="1" stop-color="#0085FF"/>
</radialGradient>
<linearGradient id="paint22_linear_63_663" x1="115.803" y1="95.8316" x2="68.8794" y2="92.7758" gradientUnits="userSpaceOnUse">
<stop stop-color="#021342"/>
<stop offset="0.466667" stop-color="#5B65B4"/>
<stop offset="1" stop-color="#1E8D9D"/>
</linearGradient>
<radialGradient id="paint23_radial_63_663" cx="0" cy="0" r="1" gradientUnits="userSpaceOnUse" gradientTransform="translate(95.7422 93.3314) rotate(28.9831) scale(25.799 48.4834)">
<stop stop-color="#9091BF"/>
<stop offset="1" stop-color="#0085FF"/>
</radialGradient>
<linearGradient id="paint24_linear_63_663" x1="112.015" y1="125.263" x2="109.016" y2="124.856" gradientUnits="userSpaceOnUse">
<stop stop-color="#021342"/>
<stop offset="0.466667" stop-color="#5B65B4"/>
<stop offset="1" stop-color="#1E8D9D"/>
</linearGradient>
<radialGradient id="paint25_radial_63_663" cx="0" cy="0" r="1" gradientUnits="userSpaceOnUse" gradientTransform="translate(110.715 125.185) rotate(14.9001) scale(1.51361 1.66755)">
<stop stop-color="#9091BF"/>
<stop offset="1" stop-color="#0085FF"/>
</radialGradient>
<linearGradient id="paint26_linear_63_663" x1="112.015" y1="125.263" x2="109.016" y2="124.856" gradientUnits="userSpaceOnUse">
<stop stop-color="#021342"/>
<stop offset="0.466667" stop-color="#5B65B4"/>
<stop offset="1" stop-color="#1E8D9D"/>
</linearGradient>
<radialGradient id="paint27_radial_63_663" cx="0" cy="0" r="1" gradientUnits="userSpaceOnUse" gradientTransform="translate(110.715 125.185) rotate(14.9001) scale(1.51361 1.66755)">
<stop stop-color="#9091BF"/>
<stop offset="1" stop-color="#0085FF"/>
</radialGradient>
</defs>
</svg>
