<svg width="176" height="171" viewBox="0 0 176 171" fill="none" xmlns="http://www.w3.org/2000/svg">
<g opacity="0.5" filter="url(#filter0_dd_63_656)">
<rect x="40.1907" y="30.2036" width="100" height="100" rx="20" fill="#33477C"/>
</g>
<mask id="path-2-outside-1_63_656" maskUnits="userSpaceOnUse" x="58.4214" y="48.4341" width="64" height="64" fill="black">
<rect fill="white" x="58.4214" y="48.4341" width="64" height="64"/>
<path d="M65.0494 97.908C70.6242 105.802 79.8121 110.973 90.1913 110.973C107.157 110.973 120.96 97.169 120.96 80.2019C120.96 63.2363 107.157 49.4341 90.1913 49.4341C73.2247 49.4341 59.4214 63.237 59.4214 80.2019C59.4214 86.6721 61.4336 92.6783 64.8577 97.6384C64.9123 97.7346 64.9764 97.824 65.0494 97.908ZM100.462 105.533C100.451 105.533 100.442 105.531 100.433 105.531C97.4304 105.531 96.6852 104.932 95.9613 104.35C95.3949 103.898 95.0537 103.251 95.1295 102.773C95.1936 102.372 95.5423 101.878 95.9114 101.355C96.0193 101.204 96.1257 101.054 96.2287 100.901C97.6576 98.7916 98.4757 96.2321 98.5344 93.693C98.5426 93.3552 98.4491 93.0229 98.269 92.7363C96.2233 89.508 92.3052 91.0011 89.1596 92.2013C87.6257 92.7854 85.9587 93.4214 84.684 93.5013C84.7946 93.3989 84.9092 93.2959 85.0239 93.1915C86.1648 92.1618 87.584 90.881 87.5097 88.8073C87.4326 86.7615 85.8106 84.4681 83.5165 84.3146C79.954 84.073 78.4126 83.0338 78.1751 82.217C78.1021 81.9645 78.1567 81.7557 78.2229 81.6281C80.2085 82.2436 83.8523 83.218 86.0017 80.6584C87.6332 78.728 87.4066 75.8655 85.3807 72.8024L85.2422 72.5936C84.2815 71.147 83.2886 69.6505 83.6373 68.4973C83.8454 67.8116 84.5837 67.1783 85.202 66.7054C86.7932 65.4908 88.555 64.5314 90.4383 63.8538L90.5837 63.8013C92.9692 62.9449 96.574 61.6505 96.8381 58.2243C96.9807 56.3519 95.9531 54.9019 95.1281 53.7364C95.0155 53.5747 94.905 53.4164 94.7972 53.2594C98.8565 53.9513 102.612 55.5399 105.855 57.8156L99.8998 66.1684C98.4048 68.2633 98.3167 70.2633 99.6651 71.5202C100.336 72.1459 101.151 72.3172 101.595 72.4114C102.73 72.6461 103.903 72.773 105.138 72.7887C105.201 72.7894 105.278 72.7908 105.35 72.7928C105.374 72.8883 105.401 73.0344 105.417 73.2507C105.521 74.6939 105.339 76.1801 104.888 77.5496C104.704 78.1112 104.822 78.7294 105.2 79.1839C106.175 80.3507 107.966 80.5227 109.55 79.6056C109.742 79.4957 109.932 79.3742 110.121 79.2521C110.36 79.0986 110.758 78.8413 110.887 78.8365C111.042 78.8577 111.583 79.2494 111.868 79.4745C112.602 80.0566 113.609 80.8522 114.976 80.8604C114.985 80.8611 114.991 80.8611 114.999 80.8611C115.913 80.8604 116.79 80.481 117.52 79.8219C117.523 79.9501 117.531 80.075 117.531 80.2033C117.53 91.6466 110.461 101.464 100.462 105.533ZM116.767 73.8027C116.434 74.4209 116.227 75.0508 116.046 75.6083C115.921 75.9924 115.804 76.3561 115.664 76.6598C115.415 77.1954 115.083 77.4315 114.997 77.4315C114.81 77.4302 114.319 77.0419 113.995 76.7853C113.233 76.1821 112.207 75.3565 110.755 75.4104C109.945 75.4411 109.276 75.7543 108.736 76.0736C108.877 75.0617 108.911 74.034 108.836 72.9989C108.716 71.4063 108.121 70.3138 107.071 69.7522C106.369 69.3755 105.653 69.3667 105.123 69.3598C104.165 69.3469 103.211 69.2445 102.295 69.0548C102.263 69.048 102.233 69.0419 102.208 69.0364C102.283 68.829 102.431 68.5239 102.691 68.1596L108.54 59.9548C112.542 63.5836 115.461 68.3827 116.767 73.8027ZM90.1913 52.863C90.3858 52.863 90.5789 52.8739 90.774 52.8773C91.1084 53.9841 91.7525 54.8985 92.3318 55.7173C92.9432 56.5798 93.47 57.3243 93.4222 57.9616C93.3287 59.1721 91.1657 59.9493 89.4277 60.573L89.2797 60.6269C87.0661 61.4232 84.9938 62.5512 83.1215 63.9808C82.0938 64.7675 80.8506 65.8798 80.3586 67.5031C79.5405 70.2032 81.1195 72.5799 82.3873 74.4905L82.523 74.6953C83.3398 75.9297 84.0556 77.6519 83.3814 78.4496C82.6752 79.2903 80.7387 78.8256 78.9421 78.2606C77.8517 77.9147 76.6446 78.2702 75.7903 79.1852C74.7231 80.3316 74.4188 82.0491 75.0172 83.5633C75.6859 85.2569 77.6654 87.3552 83.288 87.7359C83.5582 87.7537 84.0638 88.3658 84.0849 88.9335C84.1006 89.3743 83.5589 89.8977 82.7284 90.6469C81.8114 91.4746 80.7721 92.4129 80.3095 93.8172C80.0987 94.4572 80.2815 95.1621 80.779 95.6173C83.4353 98.0526 87.2865 96.5855 90.3824 95.405C92.5372 94.5835 94.2888 93.9755 95.0653 94.3139C94.9063 95.9687 94.3223 97.6016 93.3922 98.9779C93.3015 99.1103 93.208 99.2434 93.1138 99.3751C92.5877 100.119 91.9333 101.045 91.7436 102.235C91.4693 103.949 92.2663 105.785 93.8173 107.025C93.9149 107.104 94.0131 107.181 94.1148 107.258C92.8327 107.443 91.5226 107.544 90.1913 107.544C81.1126 107.544 73.0582 103.092 68.0831 96.2607C68.238 93.3457 69.613 91.345 70.7443 89.7291L70.9006 89.5067C71.2574 88.9915 71.731 88.1911 71.7132 87.1798C71.688 86.0246 71.0507 85.216 70.586 84.6257C70.498 84.5138 70.41 84.4026 70.3301 84.292C69.2104 82.7137 69.9794 80.2593 71.2711 78.7519L71.3912 78.612C71.9869 77.9256 72.8876 76.8884 72.7811 75.4499C72.6917 74.1173 71.7378 72.9511 70.3451 72.4762C69.3591 72.1439 68.369 72.2142 67.5359 72.3268C66.2538 72.496 64.9969 72.7887 63.7693 73.1811C66.8767 61.4976 77.5426 52.863 90.1913 52.863ZM63.029 77.1252C64.6134 76.4305 66.2729 75.9508 67.9869 75.7249C68.4346 75.6649 68.9334 75.6178 69.2425 75.7222C69.2622 75.729 69.2814 75.7365 69.297 75.7454C69.181 75.9276 68.9518 76.191 68.801 76.3636L68.6679 76.5192C66.4783 79.0747 65.3851 83.2467 67.5352 86.2777C67.6485 86.4354 67.7699 86.5916 67.8921 86.7472C68.0149 86.9014 68.1882 87.1218 68.2626 87.2542C68.2374 87.3095 68.1855 87.4029 68.0852 87.5476L67.9344 87.7626C67.1852 88.8318 66.2203 90.2122 65.5264 91.9905C63.8123 88.4197 62.8502 84.421 62.8502 80.2019C62.8502 79.1613 62.9143 78.1364 63.029 77.1252Z"/>
</mask>
<path d="M65.0494 97.908C70.6242 105.802 79.8121 110.973 90.1913 110.973C107.157 110.973 120.96 97.169 120.96 80.2019C120.96 63.2363 107.157 49.4341 90.1913 49.4341C73.2247 49.4341 59.4214 63.237 59.4214 80.2019C59.4214 86.6721 61.4336 92.6783 64.8577 97.6384C64.9123 97.7346 64.9764 97.824 65.0494 97.908ZM100.462 105.533C100.451 105.533 100.442 105.531 100.433 105.531C97.4304 105.531 96.6852 104.932 95.9613 104.35C95.3949 103.898 95.0537 103.251 95.1295 102.773C95.1936 102.372 95.5423 101.878 95.9114 101.355C96.0193 101.204 96.1257 101.054 96.2287 100.901C97.6576 98.7916 98.4757 96.2321 98.5344 93.693C98.5426 93.3552 98.4491 93.0229 98.269 92.7363C96.2233 89.508 92.3052 91.0011 89.1596 92.2013C87.6257 92.7854 85.9587 93.4214 84.684 93.5013C84.7946 93.3989 84.9092 93.2959 85.0239 93.1915C86.1648 92.1618 87.584 90.881 87.5097 88.8073C87.4326 86.7615 85.8106 84.4681 83.5165 84.3146C79.954 84.073 78.4126 83.0338 78.1751 82.217C78.1021 81.9645 78.1567 81.7557 78.2229 81.6281C80.2085 82.2436 83.8523 83.218 86.0017 80.6584C87.6332 78.728 87.4066 75.8655 85.3807 72.8024L85.2422 72.5936C84.2815 71.147 83.2886 69.6505 83.6373 68.4973C83.8454 67.8116 84.5837 67.1783 85.202 66.7054C86.7932 65.4908 88.555 64.5314 90.4383 63.8538L90.5837 63.8013C92.9692 62.9449 96.574 61.6505 96.8381 58.2243C96.9807 56.3519 95.9531 54.9019 95.1281 53.7364C95.0155 53.5747 94.905 53.4164 94.7972 53.2594C98.8565 53.9513 102.612 55.5399 105.855 57.8156L99.8998 66.1684C98.4048 68.2633 98.3167 70.2633 99.6651 71.5202C100.336 72.1459 101.151 72.3172 101.595 72.4114C102.73 72.6461 103.903 72.773 105.138 72.7887C105.201 72.7894 105.278 72.7908 105.35 72.7928C105.374 72.8883 105.401 73.0344 105.417 73.2507C105.521 74.6939 105.339 76.1801 104.888 77.5496C104.704 78.1112 104.822 78.7294 105.2 79.1839C106.175 80.3507 107.966 80.5227 109.55 79.6056C109.742 79.4957 109.932 79.3742 110.121 79.2521C110.36 79.0986 110.758 78.8413 110.887 78.8365C111.042 78.8577 111.583 79.2494 111.868 79.4745C112.602 80.0566 113.609 80.8522 114.976 80.8604C114.985 80.8611 114.991 80.8611 114.999 80.8611C115.913 80.8604 116.79 80.481 117.52 79.8219C117.523 79.9501 117.531 80.075 117.531 80.2033C117.53 91.6466 110.461 101.464 100.462 105.533ZM116.767 73.8027C116.434 74.4209 116.227 75.0508 116.046 75.6083C115.921 75.9924 115.804 76.3561 115.664 76.6598C115.415 77.1954 115.083 77.4315 114.997 77.4315C114.81 77.4302 114.319 77.0419 113.995 76.7853C113.233 76.1821 112.207 75.3565 110.755 75.4104C109.945 75.4411 109.276 75.7543 108.736 76.0736C108.877 75.0617 108.911 74.034 108.836 72.9989C108.716 71.4063 108.121 70.3138 107.071 69.7522C106.369 69.3755 105.653 69.3667 105.123 69.3598C104.165 69.3469 103.211 69.2445 102.295 69.0548C102.263 69.048 102.233 69.0419 102.208 69.0364C102.283 68.829 102.431 68.5239 102.691 68.1596L108.54 59.9548C112.542 63.5836 115.461 68.3827 116.767 73.8027ZM90.1913 52.863C90.3858 52.863 90.5789 52.8739 90.774 52.8773C91.1084 53.9841 91.7525 54.8985 92.3318 55.7173C92.9432 56.5798 93.47 57.3243 93.4222 57.9616C93.3287 59.1721 91.1657 59.9493 89.4277 60.573L89.2797 60.6269C87.0661 61.4232 84.9938 62.5512 83.1215 63.9808C82.0938 64.7675 80.8506 65.8798 80.3586 67.5031C79.5405 70.2032 81.1195 72.5799 82.3873 74.4905L82.523 74.6953C83.3398 75.9297 84.0556 77.6519 83.3814 78.4496C82.6752 79.2903 80.7387 78.8256 78.9421 78.2606C77.8517 77.9147 76.6446 78.2702 75.7903 79.1852C74.7231 80.3316 74.4188 82.0491 75.0172 83.5633C75.6859 85.2569 77.6654 87.3552 83.288 87.7359C83.5582 87.7537 84.0638 88.3658 84.0849 88.9335C84.1006 89.3743 83.5589 89.8977 82.7284 90.6469C81.8114 91.4746 80.7721 92.4129 80.3095 93.8172C80.0987 94.4572 80.2815 95.1621 80.779 95.6173C83.4353 98.0526 87.2865 96.5855 90.3824 95.405C92.5372 94.5835 94.2888 93.9755 95.0653 94.3139C94.9063 95.9687 94.3223 97.6016 93.3922 98.9779C93.3015 99.1103 93.208 99.2434 93.1138 99.3751C92.5877 100.119 91.9333 101.045 91.7436 102.235C91.4693 103.949 92.2663 105.785 93.8173 107.025C93.9149 107.104 94.0131 107.181 94.1148 107.258C92.8327 107.443 91.5226 107.544 90.1913 107.544C81.1126 107.544 73.0582 103.092 68.0831 96.2607C68.238 93.3457 69.613 91.345 70.7443 89.7291L70.9006 89.5067C71.2574 88.9915 71.731 88.1911 71.7132 87.1798C71.688 86.0246 71.0507 85.216 70.586 84.6257C70.498 84.5138 70.41 84.4026 70.3301 84.292C69.2104 82.7137 69.9794 80.2593 71.2711 78.7519L71.3912 78.612C71.9869 77.9256 72.8876 76.8884 72.7811 75.4499C72.6917 74.1173 71.7378 72.9511 70.3451 72.4762C69.3591 72.1439 68.369 72.2142 67.5359 72.3268C66.2538 72.496 64.9969 72.7887 63.7693 73.1811C66.8767 61.4976 77.5426 52.863 90.1913 52.863ZM63.029 77.1252C64.6134 76.4305 66.2729 75.9508 67.9869 75.7249C68.4346 75.6649 68.9334 75.6178 69.2425 75.7222C69.2622 75.729 69.2814 75.7365 69.297 75.7454C69.181 75.9276 68.9518 76.191 68.801 76.3636L68.6679 76.5192C66.4783 79.0747 65.3851 83.2467 67.5352 86.2777C67.6485 86.4354 67.7699 86.5916 67.8921 86.7472C68.0149 86.9014 68.1882 87.1218 68.2626 87.2542C68.2374 87.3095 68.1855 87.4029 68.0852 87.5476L67.9344 87.7626C67.1852 88.8318 66.2203 90.2122 65.5264 91.9905C63.8123 88.4197 62.8502 84.421 62.8502 80.2019C62.8502 79.1613 62.9143 78.1364 63.029 77.1252Z" fill="url(#paint0_linear_63_656)"/>
<path d="M65.0494 97.908C70.6242 105.802 79.8121 110.973 90.1913 110.973C107.157 110.973 120.96 97.169 120.96 80.2019C120.96 63.2363 107.157 49.4341 90.1913 49.4341C73.2247 49.4341 59.4214 63.237 59.4214 80.2019C59.4214 86.6721 61.4336 92.6783 64.8577 97.6384C64.9123 97.7346 64.9764 97.824 65.0494 97.908ZM100.462 105.533C100.451 105.533 100.442 105.531 100.433 105.531C97.4304 105.531 96.6852 104.932 95.9613 104.35C95.3949 103.898 95.0537 103.251 95.1295 102.773C95.1936 102.372 95.5423 101.878 95.9114 101.355C96.0193 101.204 96.1257 101.054 96.2287 100.901C97.6576 98.7916 98.4757 96.2321 98.5344 93.693C98.5426 93.3552 98.4491 93.0229 98.269 92.7363C96.2233 89.508 92.3052 91.0011 89.1596 92.2013C87.6257 92.7854 85.9587 93.4214 84.684 93.5013C84.7946 93.3989 84.9092 93.2959 85.0239 93.1915C86.1648 92.1618 87.584 90.881 87.5097 88.8073C87.4326 86.7615 85.8106 84.4681 83.5165 84.3146C79.954 84.073 78.4126 83.0338 78.1751 82.217C78.1021 81.9645 78.1567 81.7557 78.2229 81.6281C80.2085 82.2436 83.8523 83.218 86.0017 80.6584C87.6332 78.728 87.4066 75.8655 85.3807 72.8024L85.2422 72.5936C84.2815 71.147 83.2886 69.6505 83.6373 68.4973C83.8454 67.8116 84.5837 67.1783 85.202 66.7054C86.7932 65.4908 88.555 64.5314 90.4383 63.8538L90.5837 63.8013C92.9692 62.9449 96.574 61.6505 96.8381 58.2243C96.9807 56.3519 95.9531 54.9019 95.1281 53.7364C95.0155 53.5747 94.905 53.4164 94.7972 53.2594C98.8565 53.9513 102.612 55.5399 105.855 57.8156L99.8998 66.1684C98.4048 68.2633 98.3167 70.2633 99.6651 71.5202C100.336 72.1459 101.151 72.3172 101.595 72.4114C102.73 72.6461 103.903 72.773 105.138 72.7887C105.201 72.7894 105.278 72.7908 105.35 72.7928C105.374 72.8883 105.401 73.0344 105.417 73.2507C105.521 74.6939 105.339 76.1801 104.888 77.5496C104.704 78.1112 104.822 78.7294 105.2 79.1839C106.175 80.3507 107.966 80.5227 109.55 79.6056C109.742 79.4957 109.932 79.3742 110.121 79.2521C110.36 79.0986 110.758 78.8413 110.887 78.8365C111.042 78.8577 111.583 79.2494 111.868 79.4745C112.602 80.0566 113.609 80.8522 114.976 80.8604C114.985 80.8611 114.991 80.8611 114.999 80.8611C115.913 80.8604 116.79 80.481 117.52 79.8219C117.523 79.9501 117.531 80.075 117.531 80.2033C117.53 91.6466 110.461 101.464 100.462 105.533ZM116.767 73.8027C116.434 74.4209 116.227 75.0508 116.046 75.6083C115.921 75.9924 115.804 76.3561 115.664 76.6598C115.415 77.1954 115.083 77.4315 114.997 77.4315C114.81 77.4302 114.319 77.0419 113.995 76.7853C113.233 76.1821 112.207 75.3565 110.755 75.4104C109.945 75.4411 109.276 75.7543 108.736 76.0736C108.877 75.0617 108.911 74.034 108.836 72.9989C108.716 71.4063 108.121 70.3138 107.071 69.7522C106.369 69.3755 105.653 69.3667 105.123 69.3598C104.165 69.3469 103.211 69.2445 102.295 69.0548C102.263 69.048 102.233 69.0419 102.208 69.0364C102.283 68.829 102.431 68.5239 102.691 68.1596L108.54 59.9548C112.542 63.5836 115.461 68.3827 116.767 73.8027ZM90.1913 52.863C90.3858 52.863 90.5789 52.8739 90.774 52.8773C91.1084 53.9841 91.7525 54.8985 92.3318 55.7173C92.9432 56.5798 93.47 57.3243 93.4222 57.9616C93.3287 59.1721 91.1657 59.9493 89.4277 60.573L89.2797 60.6269C87.0661 61.4232 84.9938 62.5512 83.1215 63.9808C82.0938 64.7675 80.8506 65.8798 80.3586 67.5031C79.5405 70.2032 81.1195 72.5799 82.3873 74.4905L82.523 74.6953C83.3398 75.9297 84.0556 77.6519 83.3814 78.4496C82.6752 79.2903 80.7387 78.8256 78.9421 78.2606C77.8517 77.9147 76.6446 78.2702 75.7903 79.1852C74.7231 80.3316 74.4188 82.0491 75.0172 83.5633C75.6859 85.2569 77.6654 87.3552 83.288 87.7359C83.5582 87.7537 84.0638 88.3658 84.0849 88.9335C84.1006 89.3743 83.5589 89.8977 82.7284 90.6469C81.8114 91.4746 80.7721 92.4129 80.3095 93.8172C80.0987 94.4572 80.2815 95.1621 80.779 95.6173C83.4353 98.0526 87.2865 96.5855 90.3824 95.405C92.5372 94.5835 94.2888 93.9755 95.0653 94.3139C94.9063 95.9687 94.3223 97.6016 93.3922 98.9779C93.3015 99.1103 93.208 99.2434 93.1138 99.3751C92.5877 100.119 91.9333 101.045 91.7436 102.235C91.4693 103.949 92.2663 105.785 93.8173 107.025C93.9149 107.104 94.0131 107.181 94.1148 107.258C92.8327 107.443 91.5226 107.544 90.1913 107.544C81.1126 107.544 73.0582 103.092 68.0831 96.2607C68.238 93.3457 69.613 91.345 70.7443 89.7291L70.9006 89.5067C71.2574 88.9915 71.731 88.1911 71.7132 87.1798C71.688 86.0246 71.0507 85.216 70.586 84.6257C70.498 84.5138 70.41 84.4026 70.3301 84.292C69.2104 82.7137 69.9794 80.2593 71.2711 78.7519L71.3912 78.612C71.9869 77.9256 72.8876 76.8884 72.7811 75.4499C72.6917 74.1173 71.7378 72.9511 70.3451 72.4762C69.3591 72.1439 68.369 72.2142 67.5359 72.3268C66.2538 72.496 64.9969 72.7887 63.7693 73.1811C66.8767 61.4976 77.5426 52.863 90.1913 52.863ZM63.029 77.1252C64.6134 76.4305 66.2729 75.9508 67.9869 75.7249C68.4346 75.6649 68.9334 75.6178 69.2425 75.7222C69.2622 75.729 69.2814 75.7365 69.297 75.7454C69.181 75.9276 68.9518 76.191 68.801 76.3636L68.6679 76.5192C66.4783 79.0747 65.3851 83.2467 67.5352 86.2777C67.6485 86.4354 67.7699 86.5916 67.8921 86.7472C68.0149 86.9014 68.1882 87.1218 68.2626 87.2542C68.2374 87.3095 68.1855 87.4029 68.0852 87.5476L67.9344 87.7626C67.1852 88.8318 66.2203 90.2122 65.5264 91.9905C63.8123 88.4197 62.8502 84.421 62.8502 80.2019C62.8502 79.1613 62.9143 78.1364 63.029 77.1252Z" fill="url(#paint1_radial_63_656)" fill-opacity="0.2"/>
<path d="M65.0494 97.908C70.6242 105.802 79.8121 110.973 90.1913 110.973C107.157 110.973 120.96 97.169 120.96 80.2019C120.96 63.2363 107.157 49.4341 90.1913 49.4341C73.2247 49.4341 59.4214 63.237 59.4214 80.2019C59.4214 86.6721 61.4336 92.6783 64.8577 97.6384C64.9123 97.7346 64.9764 97.824 65.0494 97.908ZM100.462 105.533C100.451 105.533 100.442 105.531 100.433 105.531C97.4304 105.531 96.6852 104.932 95.9613 104.35C95.3949 103.898 95.0537 103.251 95.1295 102.773C95.1936 102.372 95.5423 101.878 95.9114 101.355C96.0193 101.204 96.1257 101.054 96.2287 100.901C97.6576 98.7916 98.4757 96.2321 98.5344 93.693C98.5426 93.3552 98.4491 93.0229 98.269 92.7363C96.2233 89.508 92.3052 91.0011 89.1596 92.2013C87.6257 92.7854 85.9587 93.4214 84.684 93.5013C84.7946 93.3989 84.9092 93.2959 85.0239 93.1915C86.1648 92.1618 87.584 90.881 87.5097 88.8073C87.4326 86.7615 85.8106 84.4681 83.5165 84.3146C79.954 84.073 78.4126 83.0338 78.1751 82.217C78.1021 81.9645 78.1567 81.7557 78.2229 81.6281C80.2085 82.2436 83.8523 83.218 86.0017 80.6584C87.6332 78.728 87.4066 75.8655 85.3807 72.8024L85.2422 72.5936C84.2815 71.147 83.2886 69.6505 83.6373 68.4973C83.8454 67.8116 84.5837 67.1783 85.202 66.7054C86.7932 65.4908 88.555 64.5314 90.4383 63.8538L90.5837 63.8013C92.9692 62.9449 96.574 61.6505 96.8381 58.2243C96.9807 56.3519 95.9531 54.9019 95.1281 53.7364C95.0155 53.5747 94.905 53.4164 94.7972 53.2594C98.8565 53.9513 102.612 55.5399 105.855 57.8156L99.8998 66.1684C98.4048 68.2633 98.3167 70.2633 99.6651 71.5202C100.336 72.1459 101.151 72.3172 101.595 72.4114C102.73 72.6461 103.903 72.773 105.138 72.7887C105.201 72.7894 105.278 72.7908 105.35 72.7928C105.374 72.8883 105.401 73.0344 105.417 73.2507C105.521 74.6939 105.339 76.1801 104.888 77.5496C104.704 78.1112 104.822 78.7294 105.2 79.1839C106.175 80.3507 107.966 80.5227 109.55 79.6056C109.742 79.4957 109.932 79.3742 110.121 79.2521C110.36 79.0986 110.758 78.8413 110.887 78.8365C111.042 78.8577 111.583 79.2494 111.868 79.4745C112.602 80.0566 113.609 80.8522 114.976 80.8604C114.985 80.8611 114.991 80.8611 114.999 80.8611C115.913 80.8604 116.79 80.481 117.52 79.8219C117.523 79.9501 117.531 80.075 117.531 80.2033C117.53 91.6466 110.461 101.464 100.462 105.533ZM116.767 73.8027C116.434 74.4209 116.227 75.0508 116.046 75.6083C115.921 75.9924 115.804 76.3561 115.664 76.6598C115.415 77.1954 115.083 77.4315 114.997 77.4315C114.81 77.4302 114.319 77.0419 113.995 76.7853C113.233 76.1821 112.207 75.3565 110.755 75.4104C109.945 75.4411 109.276 75.7543 108.736 76.0736C108.877 75.0617 108.911 74.034 108.836 72.9989C108.716 71.4063 108.121 70.3138 107.071 69.7522C106.369 69.3755 105.653 69.3667 105.123 69.3598C104.165 69.3469 103.211 69.2445 102.295 69.0548C102.263 69.048 102.233 69.0419 102.208 69.0364C102.283 68.829 102.431 68.5239 102.691 68.1596L108.54 59.9548C112.542 63.5836 115.461 68.3827 116.767 73.8027ZM90.1913 52.863C90.3858 52.863 90.5789 52.8739 90.774 52.8773C91.1084 53.9841 91.7525 54.8985 92.3318 55.7173C92.9432 56.5798 93.47 57.3243 93.4222 57.9616C93.3287 59.1721 91.1657 59.9493 89.4277 60.573L89.2797 60.6269C87.0661 61.4232 84.9938 62.5512 83.1215 63.9808C82.0938 64.7675 80.8506 65.8798 80.3586 67.5031C79.5405 70.2032 81.1195 72.5799 82.3873 74.4905L82.523 74.6953C83.3398 75.9297 84.0556 77.6519 83.3814 78.4496C82.6752 79.2903 80.7387 78.8256 78.9421 78.2606C77.8517 77.9147 76.6446 78.2702 75.7903 79.1852C74.7231 80.3316 74.4188 82.0491 75.0172 83.5633C75.6859 85.2569 77.6654 87.3552 83.288 87.7359C83.5582 87.7537 84.0638 88.3658 84.0849 88.9335C84.1006 89.3743 83.5589 89.8977 82.7284 90.6469C81.8114 91.4746 80.7721 92.4129 80.3095 93.8172C80.0987 94.4572 80.2815 95.1621 80.779 95.6173C83.4353 98.0526 87.2865 96.5855 90.3824 95.405C92.5372 94.5835 94.2888 93.9755 95.0653 94.3139C94.9063 95.9687 94.3223 97.6016 93.3922 98.9779C93.3015 99.1103 93.208 99.2434 93.1138 99.3751C92.5877 100.119 91.9333 101.045 91.7436 102.235C91.4693 103.949 92.2663 105.785 93.8173 107.025C93.9149 107.104 94.0131 107.181 94.1148 107.258C92.8327 107.443 91.5226 107.544 90.1913 107.544C81.1126 107.544 73.0582 103.092 68.0831 96.2607C68.238 93.3457 69.613 91.345 70.7443 89.7291L70.9006 89.5067C71.2574 88.9915 71.731 88.1911 71.7132 87.1798C71.688 86.0246 71.0507 85.216 70.586 84.6257C70.498 84.5138 70.41 84.4026 70.3301 84.292C69.2104 82.7137 69.9794 80.2593 71.2711 78.7519L71.3912 78.612C71.9869 77.9256 72.8876 76.8884 72.7811 75.4499C72.6917 74.1173 71.7378 72.9511 70.3451 72.4762C69.3591 72.1439 68.369 72.2142 67.5359 72.3268C66.2538 72.496 64.9969 72.7887 63.7693 73.1811C66.8767 61.4976 77.5426 52.863 90.1913 52.863ZM63.029 77.1252C64.6134 76.4305 66.2729 75.9508 67.9869 75.7249C68.4346 75.6649 68.9334 75.6178 69.2425 75.7222C69.2622 75.729 69.2814 75.7365 69.297 75.7454C69.181 75.9276 68.9518 76.191 68.801 76.3636L68.6679 76.5192C66.4783 79.0747 65.3851 83.2467 67.5352 86.2777C67.6485 86.4354 67.7699 86.5916 67.8921 86.7472C68.0149 86.9014 68.1882 87.1218 68.2626 87.2542C68.2374 87.3095 68.1855 87.4029 68.0852 87.5476L67.9344 87.7626C67.1852 88.8318 66.2203 90.2122 65.5264 91.9905C63.8123 88.4197 62.8502 84.421 62.8502 80.2019C62.8502 79.1613 62.9143 78.1364 63.029 77.1252Z" stroke="url(#paint2_linear_63_656)" stroke-width="2" mask="url(#path-2-outside-1_63_656)"/>
<path d="M65.0494 97.908C70.6242 105.802 79.8121 110.973 90.1913 110.973C107.157 110.973 120.96 97.169 120.96 80.2019C120.96 63.2363 107.157 49.4341 90.1913 49.4341C73.2247 49.4341 59.4214 63.237 59.4214 80.2019C59.4214 86.6721 61.4336 92.6783 64.8577 97.6384C64.9123 97.7346 64.9764 97.824 65.0494 97.908ZM100.462 105.533C100.451 105.533 100.442 105.531 100.433 105.531C97.4304 105.531 96.6852 104.932 95.9613 104.35C95.3949 103.898 95.0537 103.251 95.1295 102.773C95.1936 102.372 95.5423 101.878 95.9114 101.355C96.0193 101.204 96.1257 101.054 96.2287 100.901C97.6576 98.7916 98.4757 96.2321 98.5344 93.693C98.5426 93.3552 98.4491 93.0229 98.269 92.7363C96.2233 89.508 92.3052 91.0011 89.1596 92.2013C87.6257 92.7854 85.9587 93.4214 84.684 93.5013C84.7946 93.3989 84.9092 93.2959 85.0239 93.1915C86.1648 92.1618 87.584 90.881 87.5097 88.8073C87.4326 86.7615 85.8106 84.4681 83.5165 84.3146C79.954 84.073 78.4126 83.0338 78.1751 82.217C78.1021 81.9645 78.1567 81.7557 78.2229 81.6281C80.2085 82.2436 83.8523 83.218 86.0017 80.6584C87.6332 78.728 87.4066 75.8655 85.3807 72.8024L85.2422 72.5936C84.2815 71.147 83.2886 69.6505 83.6373 68.4973C83.8454 67.8116 84.5837 67.1783 85.202 66.7054C86.7932 65.4908 88.555 64.5314 90.4383 63.8538L90.5837 63.8013C92.9692 62.9449 96.574 61.6505 96.8381 58.2243C96.9807 56.3519 95.9531 54.9019 95.1281 53.7364C95.0155 53.5747 94.905 53.4164 94.7972 53.2594C98.8565 53.9513 102.612 55.5399 105.855 57.8156L99.8998 66.1684C98.4048 68.2633 98.3167 70.2633 99.6651 71.5202C100.336 72.1459 101.151 72.3172 101.595 72.4114C102.73 72.6461 103.903 72.773 105.138 72.7887C105.201 72.7894 105.278 72.7908 105.35 72.7928C105.374 72.8883 105.401 73.0344 105.417 73.2507C105.521 74.6939 105.339 76.1801 104.888 77.5496C104.704 78.1112 104.822 78.7294 105.2 79.1839C106.175 80.3507 107.966 80.5227 109.55 79.6056C109.742 79.4957 109.932 79.3742 110.121 79.2521C110.36 79.0986 110.758 78.8413 110.887 78.8365C111.042 78.8577 111.583 79.2494 111.868 79.4745C112.602 80.0566 113.609 80.8522 114.976 80.8604C114.985 80.8611 114.991 80.8611 114.999 80.8611C115.913 80.8604 116.79 80.481 117.52 79.8219C117.523 79.9501 117.531 80.075 117.531 80.2033C117.53 91.6466 110.461 101.464 100.462 105.533ZM116.767 73.8027C116.434 74.4209 116.227 75.0508 116.046 75.6083C115.921 75.9924 115.804 76.3561 115.664 76.6598C115.415 77.1954 115.083 77.4315 114.997 77.4315C114.81 77.4302 114.319 77.0419 113.995 76.7853C113.233 76.1821 112.207 75.3565 110.755 75.4104C109.945 75.4411 109.276 75.7543 108.736 76.0736C108.877 75.0617 108.911 74.034 108.836 72.9989C108.716 71.4063 108.121 70.3138 107.071 69.7522C106.369 69.3755 105.653 69.3667 105.123 69.3598C104.165 69.3469 103.211 69.2445 102.295 69.0548C102.263 69.048 102.233 69.0419 102.208 69.0364C102.283 68.829 102.431 68.5239 102.691 68.1596L108.54 59.9548C112.542 63.5836 115.461 68.3827 116.767 73.8027ZM90.1913 52.863C90.3858 52.863 90.5789 52.8739 90.774 52.8773C91.1084 53.9841 91.7525 54.8985 92.3318 55.7173C92.9432 56.5798 93.47 57.3243 93.4222 57.9616C93.3287 59.1721 91.1657 59.9493 89.4277 60.573L89.2797 60.6269C87.0661 61.4232 84.9938 62.5512 83.1215 63.9808C82.0938 64.7675 80.8506 65.8798 80.3586 67.5031C79.5405 70.2032 81.1195 72.5799 82.3873 74.4905L82.523 74.6953C83.3398 75.9297 84.0556 77.6519 83.3814 78.4496C82.6752 79.2903 80.7387 78.8256 78.9421 78.2606C77.8517 77.9147 76.6446 78.2702 75.7903 79.1852C74.7231 80.3316 74.4188 82.0491 75.0172 83.5633C75.6859 85.2569 77.6654 87.3552 83.288 87.7359C83.5582 87.7537 84.0638 88.3658 84.0849 88.9335C84.1006 89.3743 83.5589 89.8977 82.7284 90.6469C81.8114 91.4746 80.7721 92.4129 80.3095 93.8172C80.0987 94.4572 80.2815 95.1621 80.779 95.6173C83.4353 98.0526 87.2865 96.5855 90.3824 95.405C92.5372 94.5835 94.2888 93.9755 95.0653 94.3139C94.9063 95.9687 94.3223 97.6016 93.3922 98.9779C93.3015 99.1103 93.208 99.2434 93.1138 99.3751C92.5877 100.119 91.9333 101.045 91.7436 102.235C91.4693 103.949 92.2663 105.785 93.8173 107.025C93.9149 107.104 94.0131 107.181 94.1148 107.258C92.8327 107.443 91.5226 107.544 90.1913 107.544C81.1126 107.544 73.0582 103.092 68.0831 96.2607C68.238 93.3457 69.613 91.345 70.7443 89.7291L70.9006 89.5067C71.2574 88.9915 71.731 88.1911 71.7132 87.1798C71.688 86.0246 71.0507 85.216 70.586 84.6257C70.498 84.5138 70.41 84.4026 70.3301 84.292C69.2104 82.7137 69.9794 80.2593 71.2711 78.7519L71.3912 78.612C71.9869 77.9256 72.8876 76.8884 72.7811 75.4499C72.6917 74.1173 71.7378 72.9511 70.3451 72.4762C69.3591 72.1439 68.369 72.2142 67.5359 72.3268C66.2538 72.496 64.9969 72.7887 63.7693 73.1811C66.8767 61.4976 77.5426 52.863 90.1913 52.863ZM63.029 77.1252C64.6134 76.4305 66.2729 75.9508 67.9869 75.7249C68.4346 75.6649 68.9334 75.6178 69.2425 75.7222C69.2622 75.729 69.2814 75.7365 69.297 75.7454C69.181 75.9276 68.9518 76.191 68.801 76.3636L68.6679 76.5192C66.4783 79.0747 65.3851 83.2467 67.5352 86.2777C67.6485 86.4354 67.7699 86.5916 67.8921 86.7472C68.0149 86.9014 68.1882 87.1218 68.2626 87.2542C68.2374 87.3095 68.1855 87.4029 68.0852 87.5476L67.9344 87.7626C67.1852 88.8318 66.2203 90.2122 65.5264 91.9905C63.8123 88.4197 62.8502 84.421 62.8502 80.2019C62.8502 79.1613 62.9143 78.1364 63.029 77.1252Z" stroke="url(#paint3_radial_63_656)" stroke-opacity="0.2" stroke-width="2" mask="url(#path-2-outside-1_63_656)"/>
<defs>
<filter id="filter0_dd_63_656" x="0.190674" y="0.203613" width="175" height="170" filterUnits="userSpaceOnUse" color-interpolation-filters="sRGB">
<feFlood flood-opacity="0" result="BackgroundImageFix"/>
<feColorMatrix in="SourceAlpha" type="matrix" values="0 0 0 0 0 0 0 0 0 0 0 0 0 0 0 0 0 0 127 0" result="hardAlpha"/>
<feOffset dx="5" dy="10"/>
<feGaussianBlur stdDeviation="15"/>
<feComposite in2="hardAlpha" operator="out"/>
<feColorMatrix type="matrix" values="0 0 0 0 0 0 0 0 0 0 0 0 0 0 0 0 0 0 0.15 0"/>
<feBlend mode="normal" in2="BackgroundImageFix" result="effect1_dropShadow_63_656"/>
<feColorMatrix in="SourceAlpha" type="matrix" values="0 0 0 0 0 0 0 0 0 0 0 0 0 0 0 0 0 0 127 0" result="hardAlpha"/>
<feOffset dx="-10"/>
<feGaussianBlur stdDeviation="15"/>
<feComposite in2="hardAlpha" operator="out"/>
<feColorMatrix type="matrix" values="0 0 0 0 0 0 0 0 0 0 0 0 0 0 0 0 0 0 0.15 0"/>
<feBlend mode="normal" in2="effect1_dropShadow_63_656" result="effect2_dropShadow_63_656"/>
<feBlend mode="normal" in="SourceGraphic" in2="effect2_dropShadow_63_656" result="shape"/>
</filter>
<linearGradient id="paint0_linear_63_656" x1="127.58" y1="85.3545" x2="59.1547" y2="77.5824" gradientUnits="userSpaceOnUse">
<stop stop-color="#021342"/>
<stop offset="0.466667" stop-color="#5B65B4"/>
<stop offset="1" stop-color="#1E8D9D"/>
</linearGradient>
<radialGradient id="paint1_radial_63_656" cx="0" cy="0" r="1" gradientUnits="userSpaceOnUse" gradientTransform="translate(98.075 83.2461) rotate(17.6196) scale(34.8274 44.5472)">
<stop stop-color="#9091BF"/>
<stop offset="1" stop-color="#0085FF"/>
</radialGradient>
<linearGradient id="paint2_linear_63_656" x1="127.58" y1="85.3545" x2="59.1547" y2="77.5824" gradientUnits="userSpaceOnUse">
<stop stop-color="#021342"/>
<stop offset="0.466667" stop-color="#5B65B4"/>
<stop offset="1" stop-color="#1E8D9D"/>
</linearGradient>
<radialGradient id="paint3_radial_63_656" cx="0" cy="0" r="1" gradientUnits="userSpaceOnUse" gradientTransform="translate(98.075 83.2461) rotate(17.6196) scale(34.8274 44.5472)">
<stop stop-color="#9091BF"/>
<stop offset="1" stop-color="#0085FF"/>
</radialGradient>
</defs>
</svg>
