<svg width="176" height="171" viewBox="0 0 176 171" fill="none" xmlns="http://www.w3.org/2000/svg">
<g opacity="0.5" filter="url(#filter0_dd_63_650)">
<rect x="40.1294" y="30.2036" width="100.061" height="100" rx="20" fill="#33477C"/>
</g>
<path d="M95.2093 51.3574C94.6373 51.3568 94.0709 51.4688 93.5423 51.687C93.0137 51.9052 92.5333 52.2254 92.1285 52.6292C91.7238 53.0331 91.4026 53.5126 91.1834 54.0406C90.9641 54.5685 90.8511 55.1344 90.8508 55.706V61.8863C81.1815 63.6747 73.5446 71.2901 71.7526 80.9247H65.7008C65.1213 80.9111 64.5449 81.0134 64.0055 81.2257C63.4661 81.4379 62.9746 81.7558 62.5599 82.1606C62.1452 82.5654 61.8156 83.049 61.5906 83.5829C61.3657 84.1168 61.2498 84.6903 61.2498 85.2697C61.2498 85.849 61.3657 86.4225 61.5906 86.9565C61.8156 87.4904 62.1452 87.974 62.5599 88.3788C62.9746 88.7836 63.4661 89.1015 64.0055 89.3137C64.5449 89.526 65.1213 89.6283 65.7008 89.6146H71.7526C72.7844 95.0779 75.6928 100.009 79.9754 103.558C84.2581 107.106 89.6462 109.049 95.2093 109.05C108.366 109.05 119.07 98.3791 119.07 85.2685C119.07 73.6435 110.651 63.9343 99.5701 61.8887V55.706C99.5701 53.3021 97.617 51.3574 95.2093 51.3574ZM72.6306 58.992C72.0497 58.9784 71.4721 59.081 70.9315 59.2937C70.3909 59.5064 69.8983 59.8249 69.4827 60.2306C69.0671 60.6364 68.7368 61.121 68.5114 61.6561C68.2859 62.1912 68.1697 62.766 68.1697 63.3466C68.1697 63.9272 68.2859 64.502 68.5114 65.0371C68.7368 65.5722 69.0671 66.0569 69.4827 66.4626C69.8983 66.8683 70.3909 67.1868 70.9315 67.3996C71.4721 67.6123 72.0497 67.7148 72.6306 67.7012C73.788 67.7012 74.8982 67.2423 75.7175 66.4253C76.5369 65.6082 76.9985 64.4997 77.001 63.343C77.001 60.9392 75.0383 58.992 72.6306 58.992ZM95.2093 70.1843C103.551 70.1843 110.346 76.9488 110.346 85.2685C110.346 93.5858 103.551 100.36 95.2093 100.36C86.8628 100.36 80.0726 93.5858 80.0726 85.2685C80.0726 76.9488 86.8652 70.1843 95.2093 70.1843ZM95.1684 75.9632C90.0042 75.9632 85.8045 80.1459 85.8045 85.2925C85.8045 90.4392 90.0042 94.6267 95.1684 94.6267C97.6474 94.6267 100.025 93.6439 101.78 91.8941C103.535 90.1442 104.524 87.7701 104.53 85.2925C104.523 82.8158 103.534 80.4428 101.779 78.6942C100.024 76.9456 97.6466 75.9643 95.1684 75.9656V75.9632ZM95.1684 82.4944C95.9122 82.4944 96.6256 82.7897 97.1515 83.3154C97.6775 83.841 97.973 84.554 97.973 85.2973C97.973 86.0407 97.6775 86.7536 97.1515 87.2793C96.6256 87.8049 95.9122 88.1002 95.1684 88.1002C93.6169 88.1002 92.3541 86.8382 92.3541 85.2925C92.3541 83.7444 93.6169 82.4944 95.1684 82.4944Z" fill="url(#paint0_linear_63_650)"/>
<path d="M95.2093 51.3574C94.6373 51.3568 94.0709 51.4688 93.5423 51.687C93.0137 51.9052 92.5333 52.2254 92.1285 52.6292C91.7238 53.0331 91.4026 53.5126 91.1834 54.0406C90.9641 54.5685 90.8511 55.1344 90.8508 55.706V61.8863C81.1815 63.6747 73.5446 71.2901 71.7526 80.9247H65.7008C65.1213 80.9111 64.5449 81.0134 64.0055 81.2257C63.4661 81.4379 62.9746 81.7558 62.5599 82.1606C62.1452 82.5654 61.8156 83.049 61.5906 83.5829C61.3657 84.1168 61.2498 84.6903 61.2498 85.2697C61.2498 85.849 61.3657 86.4225 61.5906 86.9565C61.8156 87.4904 62.1452 87.974 62.5599 88.3788C62.9746 88.7836 63.4661 89.1015 64.0055 89.3137C64.5449 89.526 65.1213 89.6283 65.7008 89.6146H71.7526C72.7844 95.0779 75.6928 100.009 79.9754 103.558C84.2581 107.106 89.6462 109.049 95.2093 109.05C108.366 109.05 119.07 98.3791 119.07 85.2685C119.07 73.6435 110.651 63.9343 99.5701 61.8887V55.706C99.5701 53.3021 97.617 51.3574 95.2093 51.3574ZM72.6306 58.992C72.0497 58.9784 71.4721 59.081 70.9315 59.2937C70.3909 59.5064 69.8983 59.8249 69.4827 60.2306C69.0671 60.6364 68.7368 61.121 68.5114 61.6561C68.2859 62.1912 68.1697 62.766 68.1697 63.3466C68.1697 63.9272 68.2859 64.502 68.5114 65.0371C68.7368 65.5722 69.0671 66.0569 69.4827 66.4626C69.8983 66.8683 70.3909 67.1868 70.9315 67.3996C71.4721 67.6123 72.0497 67.7148 72.6306 67.7012C73.788 67.7012 74.8982 67.2423 75.7175 66.4253C76.5369 65.6082 76.9985 64.4997 77.001 63.343C77.001 60.9392 75.0383 58.992 72.6306 58.992ZM95.2093 70.1843C103.551 70.1843 110.346 76.9488 110.346 85.2685C110.346 93.5858 103.551 100.36 95.2093 100.36C86.8628 100.36 80.0726 93.5858 80.0726 85.2685C80.0726 76.9488 86.8652 70.1843 95.2093 70.1843ZM95.1684 75.9632C90.0042 75.9632 85.8045 80.1459 85.8045 85.2925C85.8045 90.4392 90.0042 94.6267 95.1684 94.6267C97.6474 94.6267 100.025 93.6439 101.78 91.8941C103.535 90.1442 104.524 87.7701 104.53 85.2925C104.523 82.8158 103.534 80.4428 101.779 78.6942C100.024 76.9456 97.6466 75.9643 95.1684 75.9656V75.9632ZM95.1684 82.4944C95.9122 82.4944 96.6256 82.7897 97.1515 83.3154C97.6775 83.841 97.973 84.554 97.973 85.2973C97.973 86.0407 97.6775 86.7536 97.1515 87.2793C96.6256 87.8049 95.9122 88.1002 95.1684 88.1002C93.6169 88.1002 92.3541 86.8382 92.3541 85.2925C92.3541 83.7444 93.6169 82.4944 95.1684 82.4944Z" fill="url(#paint1_radial_63_650)" fill-opacity="0.2"/>
<defs>
<filter id="filter0_dd_63_650" x="0.129395" y="0.203613" width="175.061" height="170" filterUnits="userSpaceOnUse" color-interpolation-filters="sRGB">
<feFlood flood-opacity="0" result="BackgroundImageFix"/>
<feColorMatrix in="SourceAlpha" type="matrix" values="0 0 0 0 0 0 0 0 0 0 0 0 0 0 0 0 0 0 127 0" result="hardAlpha"/>
<feOffset dx="5" dy="10"/>
<feGaussianBlur stdDeviation="15"/>
<feComposite in2="hardAlpha" operator="out"/>
<feColorMatrix type="matrix" values="0 0 0 0 0 0 0 0 0 0 0 0 0 0 0 0 0 0 0.15 0"/>
<feBlend mode="normal" in2="BackgroundImageFix" result="effect1_dropShadow_63_650"/>
<feColorMatrix in="SourceAlpha" type="matrix" values="0 0 0 0 0 0 0 0 0 0 0 0 0 0 0 0 0 0 127 0" result="hardAlpha"/>
<feOffset dx="-10"/>
<feGaussianBlur stdDeviation="15"/>
<feComposite in2="hardAlpha" operator="out"/>
<feColorMatrix type="matrix" values="0 0 0 0 0 0 0 0 0 0 0 0 0 0 0 0 0 0 0.15 0"/>
<feBlend mode="normal" in2="effect1_dropShadow_63_650" result="effect2_dropShadow_63_650"/>
<feBlend mode="normal" in="SourceGraphic" in2="effect2_dropShadow_63_650" result="shape"/>
</filter>
<linearGradient id="paint0_linear_63_650" x1="125.291" y1="85.0328" x2="61.0028" y2="77.7145" gradientUnits="userSpaceOnUse">
<stop stop-color="#021342"/>
<stop offset="0.466667" stop-color="#5B65B4"/>
<stop offset="1" stop-color="#1E8D9D"/>
</linearGradient>
<radialGradient id="paint1_radial_63_650" cx="0" cy="0" r="1" gradientUnits="userSpaceOnUse" gradientTransform="translate(97.5679 83.0562) rotate(17.5831) scale(32.7164 41.7715)">
<stop stop-color="#9091BF"/>
<stop offset="1" stop-color="#0085FF"/>
</radialGradient>
</defs>
</svg>
