<svg width="120" height="26" viewBox="0 0 120 26" fill="none" xmlns="http://www.w3.org/2000/svg">
<path d="M12.722 0C15.8924 0 18.7966 1.04715 21.4348 3.14145C22.0133 3.62742 22.5745 4.17703 23.1183 4.79028C23.0952 4.83656 22.0364 5.849 19.9421 7.8276H19.9248C17.7611 5.54816 15.3312 4.40845 12.6352 4.40845C9.80041 4.40845 7.53254 5.60602 5.83165 8.00116C4.97541 9.34336 4.5473 10.7781 4.5473 12.3055V12.6699C4.5473 14.9378 5.32253 16.8585 6.87301 18.4322C8.49291 19.9364 10.4426 20.6885 12.722 20.6885C14.851 20.6885 16.7197 20.0231 18.328 18.6925C18.733 18.3917 19.2653 17.9231 19.9248 17.2867H19.9421C19.9653 17.2867 20.9893 18.3454 23.0142 20.4628V20.4802C22.1232 21.3364 21.3885 21.9844 20.81 22.4241C19.352 23.4654 18.1255 24.1192 17.1305 24.3853C15.7883 24.8366 14.2956 25.0622 12.6526 25.0622C8.16315 25.0622 4.67457 23.3439 2.18687 19.9074C0.728956 17.8131 0 15.3486 0 12.5137C0 8.76482 1.31906 5.6928 3.95719 3.29766C6.54903 1.09922 9.47064 0 12.722 0Z" fill="#021342"/>
<path d="M26.7978 0.104137H32.1435C35.1056 0.104137 37.1652 0.451258 38.3222 1.1455C39.6066 1.85132 40.567 3.02574 41.2034 4.66879C41.4695 5.52502 41.6025 6.3639 41.6025 7.18542V7.49783C41.6025 10.1591 40.4628 12.1203 38.1834 13.3815C37.7668 13.6014 37.3329 13.7981 36.8817 13.9717V13.989L42.7654 25.0448L42.7307 25.0622H37.5933C37.547 25.0159 37.0842 24.1539 36.2048 22.4761C36.1354 22.372 34.7238 19.7165 31.9699 14.5097H31.5187V25.0275C31.5187 25.0506 31.5071 25.0622 31.4839 25.0622H26.7978C26.7747 25.0622 26.7631 25.0506 26.7631 25.0275V9.89297C26.7631 9.86983 26.7747 9.85826 26.7978 9.85826H31.9699C33.8444 9.85826 35.0072 9.76569 35.4585 9.58056C36.0139 9.407 36.4131 9.12352 36.6561 8.73011C36.8759 8.32514 36.9858 7.88545 36.9858 7.41105V7.20278C36.9858 6.30026 36.5519 5.60602 35.6841 5.12005C35.1403 4.87706 34.3998 4.75557 33.4625 4.75557C31.5418 4.744 29.9508 4.73821 28.6896 4.73821H26.7978C26.7747 4.73821 26.7631 4.72664 26.7631 4.7035V0.138849C26.7631 0.115707 26.7747 0.104137 26.7978 0.104137Z" fill="#021342"/>
<path d="M46.2366 0.138849H59.7744C59.7975 0.138849 59.8091 0.150419 59.8091 0.173561V4.73821C59.8091 4.76135 59.7975 4.77292 59.7744 4.77292H46.2366C46.2135 4.77292 46.2019 4.76135 46.2019 4.73821V0.173561C46.2019 0.150419 46.2135 0.138849 46.2366 0.138849ZM46.2366 9.28551H59.7744C59.7975 9.28551 59.8091 9.29708 59.8091 9.32022V13.8154C59.8091 13.8386 59.7975 13.8502 59.7744 13.8502H50.9228V20.3934H59.7744C59.7975 20.405 59.8091 20.4165 59.8091 20.4281V25.0275C59.8091 25.0506 59.7975 25.0622 59.7744 25.0622H46.2366C46.2135 25.0622 46.2019 25.0506 46.2019 25.0275V9.32022C46.2019 9.29708 46.2135 9.28551 46.2366 9.28551Z" fill="#021342"/>
<path d="M76.7313 0.138849C76.766 0.138849 77.0379 0.879375 77.547 2.36043C80.729 11.3277 82.3489 15.9155 82.4067 16.1238H77.547C77.5123 16.066 77.2057 15.1981 76.6271 13.5204L74.4403 7.39369H74.4229C74.1684 8.13422 72.0625 14.0006 68.1053 24.9928C68.1053 25.0391 68.0879 25.0622 68.0532 25.0622H63.2456C63.2224 25.0622 63.2109 25.0506 63.2109 25.0275C63.9977 22.8406 66.3176 16.4015 70.1707 5.71015C71.455 2.14637 72.1261 0.289268 72.184 0.138849H76.7313ZM79.1091 20.4281H83.9167C83.9514 20.4281 84.0498 20.6885 84.2117 21.2091L85.5829 25.0448L85.5482 25.0622H80.7232C80.7 25.0506 80.5091 24.5357 80.1504 23.5175L79.0743 20.4455L79.1091 20.4281Z" fill="#021342"/>
<path d="M89.2103 0.0694244H102.956C102.979 0.0694244 102.991 0.0809951 102.991 0.104137V4.7035C102.991 4.72664 102.979 4.73821 102.956 4.73821H89.2103C89.1872 4.73821 89.1756 4.72664 89.1756 4.7035V0.104137C89.1756 0.0809951 89.1872 0.0694244 89.2103 0.0694244ZM93.6535 10.0318H98.409C98.4322 10.0318 98.4437 10.0376 98.4437 10.0492V25.0275C98.4437 25.0506 98.4322 25.0622 98.409 25.0622H93.6535C93.6303 25.0622 93.6187 25.0506 93.6187 25.0275V10.0492C93.6187 10.0376 93.6303 10.0318 93.6535 10.0318Z" fill="#021342"/>
<path d="M106.219 0.0694244H119.965C119.988 0.0694244 120 0.0809951 120 0.104137V4.7035C120 4.72664 119.988 4.73821 119.965 4.73821H106.219C106.196 4.73821 106.185 4.72664 106.185 4.7035V0.104137C106.185 0.0809951 106.196 0.0694244 106.219 0.0694244ZM110.662 10.0318H115.418C115.441 10.0318 115.453 10.0376 115.453 10.0492V25.0275C115.453 25.0506 115.441 25.0622 115.418 25.0622H110.662C110.639 25.0622 110.628 25.0506 110.628 25.0275V10.0492C110.628 10.0376 110.639 10.0318 110.662 10.0318Z" fill="#021342"/>
</svg>
