<svg width="120" height="26" viewBox="0 0 120 26" fill="none" xmlns="http://www.w3.org/2000/svg">
<path d="M12.722 0.709961C15.8924 0.709961 18.7966 1.75711 21.4348 3.85141C22.0133 4.33738 22.5745 4.88699 23.1183 5.50024C23.0952 5.54652 22.0364 6.55896 19.9421 8.53756H19.9248C17.7611 6.25812 15.3312 5.11841 12.6352 5.11841C9.80041 5.11841 7.53254 6.31598 5.83165 8.71112C4.97541 10.0533 4.5473 11.4881 4.5473 13.0154V13.3799C4.5473 15.6478 5.32253 17.5685 6.87301 19.1421C8.49291 20.6463 10.4426 21.3984 12.722 21.3984C14.851 21.3984 16.7197 20.7331 18.328 19.4025C18.733 19.1016 19.2653 18.633 19.9248 17.9966H19.9421C19.9653 17.9966 20.9893 19.0553 23.0142 21.1728V21.1901C22.1232 22.0464 21.3885 22.6943 20.81 23.134C19.352 24.1754 18.1255 24.8291 17.1305 25.0953C15.7883 25.5465 14.2956 25.7722 12.6526 25.7722C8.16315 25.7722 4.67457 24.0539 2.18687 20.6174C0.728956 18.5231 0 16.0585 0 13.2237C0 9.47479 1.31906 6.40276 3.95719 4.00762C6.54903 1.80918 9.47064 0.709961 12.722 0.709961Z" fill="white"/>
<path d="M26.7978 0.814097H32.1435C35.1056 0.814097 37.1652 1.16122 38.3222 1.85546C39.6066 2.56128 40.567 3.73571 41.2034 5.37875C41.4695 6.23498 41.6025 7.07386 41.6025 7.89538V8.20779C41.6025 10.8691 40.4628 12.8303 38.1834 14.0915C37.7668 14.3113 37.3329 14.5081 36.8817 14.6816V14.699L42.7654 25.7548L42.7307 25.7722H37.5933C37.547 25.7259 37.0842 24.8639 36.2048 23.1861C36.1354 23.082 34.7238 20.4265 31.9699 15.2197H31.5187V25.7374C31.5187 25.7606 31.5071 25.7722 31.4839 25.7722H26.7978C26.7747 25.7722 26.7631 25.7606 26.7631 25.7374V10.6029C26.7631 10.5798 26.7747 10.5682 26.7978 10.5682H31.9699C33.8444 10.5682 35.0072 10.4757 35.4585 10.2905C36.0139 10.117 36.4131 9.83348 36.6561 9.44007C36.8759 9.0351 36.9858 8.59541 36.9858 8.12101V7.91274C36.9858 7.01022 36.5519 6.31598 35.6841 5.83001C35.1403 5.58702 34.3998 5.46553 33.4625 5.46553C31.5418 5.45396 29.9508 5.44817 28.6896 5.44817H26.7978C26.7747 5.44817 26.7631 5.4366 26.7631 5.41346V0.84881C26.7631 0.825668 26.7747 0.814097 26.7978 0.814097Z" fill="white"/>
<path d="M46.2366 0.84881H59.7744C59.7975 0.84881 59.8091 0.86038 59.8091 0.883522V5.44817C59.8091 5.47131 59.7975 5.48289 59.7744 5.48289H46.2366C46.2135 5.48289 46.2019 5.47131 46.2019 5.44817V0.883522C46.2019 0.86038 46.2135 0.84881 46.2366 0.84881ZM46.2366 9.99547H59.7744C59.7975 9.99547 59.8091 10.007 59.8091 10.0302V14.5254C59.8091 14.5485 59.7975 14.5601 59.7744 14.5601H50.9228V21.1034H59.7744C59.7975 21.1149 59.8091 21.1265 59.8091 21.1381V25.7374C59.8091 25.7606 59.7975 25.7722 59.7744 25.7722H46.2366C46.2135 25.7722 46.2019 25.7606 46.2019 25.7374V10.0302C46.2019 10.007 46.2135 9.99547 46.2366 9.99547Z" fill="white"/>
<path d="M76.7313 0.84881C76.766 0.84881 77.0379 1.58934 77.547 3.07039C80.729 12.0377 82.3489 16.6255 82.4067 16.8338H77.547C77.5123 16.7759 77.2057 15.9081 76.6271 14.2304L74.4403 8.10365H74.4229C74.1684 8.84418 72.0625 14.7105 68.1053 25.7027C68.1053 25.749 68.0879 25.7722 68.0532 25.7722H63.2456C63.2224 25.7722 63.2109 25.7606 63.2109 25.7374C63.9977 23.5506 66.3176 17.1115 70.1707 6.42011C71.455 2.85633 72.1261 0.999229 72.184 0.84881H76.7313ZM79.1091 21.1381H83.9167C83.9514 21.1381 84.0498 21.3984 84.2117 21.9191L85.5829 25.7548L85.5482 25.7722H80.7232C80.7 25.7606 80.5091 25.2457 80.1504 24.2275L79.0743 21.1554L79.1091 21.1381Z" fill="white"/>
<path d="M89.2103 0.779385H102.956C102.979 0.779385 102.991 0.790956 102.991 0.814097V5.41346C102.991 5.4366 102.979 5.44817 102.956 5.44817H89.2103C89.1872 5.44817 89.1756 5.4366 89.1756 5.41346V0.814097C89.1756 0.790956 89.1872 0.779385 89.2103 0.779385ZM93.6535 10.7418H98.409C98.4322 10.7418 98.4437 10.7476 98.4437 10.7591V25.7374C98.4437 25.7606 98.4322 25.7722 98.409 25.7722H93.6535C93.6303 25.7722 93.6187 25.7606 93.6187 25.7374V10.7591C93.6187 10.7476 93.6303 10.7418 93.6535 10.7418Z" fill="white"/>
<path d="M106.219 0.779385H119.965C119.988 0.779385 120 0.790956 120 0.814097V5.41346C120 5.4366 119.988 5.44817 119.965 5.44817H106.219C106.196 5.44817 106.185 5.4366 106.185 5.41346V0.814097C106.185 0.790956 106.196 0.779385 106.219 0.779385ZM110.662 10.7418H115.418C115.441 10.7418 115.453 10.7476 115.453 10.7591V25.7374C115.453 25.7606 115.441 25.7722 115.418 25.7722H110.662C110.639 25.7722 110.628 25.7606 110.628 25.7374V10.7591C110.628 10.7476 110.639 10.7418 110.662 10.7418Z" fill="white"/>
</svg>
