<svg width="71" height="68" viewBox="0 0 71 68" fill="none" xmlns="http://www.w3.org/2000/svg">
<path fill-rule="evenodd" clip-rule="evenodd" d="M34.9239 59.3195C46.4908 54.9389 46.7313 54.8176 57.1046 48.0934C64.2923 43.5685 66.983 34.2293 63.0706 26.4999C61.3767 23.1535 58.7069 20.6259 55.5824 19.0879C46.8039 14.6552 46.687 14.6118 37.2168 11.6411C33.2158 10.3807 28.738 10.6224 24.6997 12.6665C20.4139 14.8358 17.4711 18.606 16.2303 22.8818L16.2302 22.8818C13.5683 32.0622 13.5366 32.1881 12.3614 41.5322C11.9077 44.7788 12.4062 48.192 13.9988 51.3385C17.9098 59.065 27.0238 62.4266 34.9239 59.3195Z" fill="#33477C"/>
<path d="M21.1746 43.6402L24.0996 38.9152C25.7871 36.3277 28.5996 34.6402 31.7496 34.6402H39.1746C39.1746 37.1152 37.1496 39.1402 34.6746 39.1402H32.4246" stroke="white" stroke-width="2" stroke-miterlimit="10" stroke-linecap="round" stroke-linejoin="round"/>
<path d="M35.7996 39.1402H43.6746L45.0246 37.3402C46.2621 35.6527 48.2871 34.6402 50.4246 34.6402L47.3871 40.0402C45.8121 42.9652 42.6621 44.7652 39.3996 44.7652C34.1121 44.7652 28.9371 46.3402 24.5496 49.2652" stroke="white" stroke-width="2" stroke-miterlimit="10" stroke-linecap="round" stroke-linejoin="round"/>
<path d="M38.0496 26.7652C38.0496 22.3777 41.5371 18.8902 45.9246 18.8902C45.9246 23.2777 42.4371 26.7652 38.0496 26.7652Z" stroke="white" stroke-width="2" stroke-miterlimit="10" stroke-linecap="round" stroke-linejoin="round"/>
<path d="M38.0496 30.1402C33.6621 30.1402 30.1746 26.6527 30.1746 22.2652C34.5621 22.2652 38.0496 25.7527 38.0496 30.1402Z" stroke="white" stroke-width="2" stroke-miterlimit="10" stroke-linecap="round" stroke-linejoin="round"/>
<path d="M38.0496 17.7652V34.6402" stroke="white" stroke-width="2" stroke-miterlimit="10" stroke-linecap="round" stroke-linejoin="round"/>
</svg>
