<svg width="71" height="68" viewBox="0 0 71 68" fill="none" xmlns="http://www.w3.org/2000/svg">
<path fill-rule="evenodd" clip-rule="evenodd" d="M34.7569 60.0692C46.3238 55.6886 46.5643 55.5672 56.9376 48.8431C64.1253 44.3182 66.816 34.979 62.9036 27.2496C61.2097 23.9032 58.5399 21.3756 55.4154 19.8376C46.6369 15.4048 46.52 15.3614 37.0498 12.3908C33.0488 11.1304 28.571 11.3721 24.5327 13.4162C20.2469 15.5855 17.3041 19.3556 16.0633 23.6315L16.0632 23.6315C13.4013 32.8119 13.3696 32.9378 12.1944 42.2819C11.7408 45.5285 12.2392 48.9417 13.8318 52.0882C17.7428 59.8147 26.8568 63.1763 34.7569 60.0692Z" fill="#33477C"/>
<path d="M23.2576 42.7023H19.8826V50.5773H23.2576V42.7023Z" fill="#CFCFD9"/>
<path d="M28.8826 39.3273H25.5076V50.5773H28.8826V39.3273Z" fill="#CFCFD9"/>
<path d="M34.5076 35.9523H31.1326V50.5773H34.5076V35.9523Z" fill="#CFCFD9"/>
<path d="M40.1326 33.7023H36.7576V50.5773H40.1326V33.7023Z" fill="#CFCFD9"/>
<path d="M45.7576 30.8898H42.3826V50.5773H45.7576V30.8898Z" fill="#CFCFD9"/>
<path d="M51.3826 26.9523H48.0076V50.5773H51.3826V26.9523Z" fill="#CFCFD9"/>
<path d="M50.2576 26.9523H48.0076V49.4523H50.2576V26.9523Z" fill="#D9DAE2"/>
<path d="M44.6326 30.8898H42.3826V49.4523H44.6326V30.8898Z" fill="#D9DAE2"/>
<path d="M39.0076 33.7023H36.7576V49.4523H39.0076V33.7023Z" fill="#D9DAE2"/>
<path d="M33.3826 35.9523H31.1326V49.4523H33.3826V35.9523Z" fill="#D9DAE2"/>
<path d="M27.7576 39.3273H25.5076V49.4523H27.7576V39.3273Z" fill="#D9DAE2"/>
<path d="M22.1326 42.7023H19.8826V49.4523H22.1326V42.7023Z" fill="#D9DAE2"/>
<path d="M47.445 17.9523L48.1842 19.4502L49.8374 19.6904L48.6415 20.8565L48.9239 22.5029L47.445 21.7255L45.9662 22.5029L46.2486 20.8565L45.0527 19.6904L46.7059 19.4502L47.445 17.9523Z" fill="#94C7F2"/>
<path d="M39.0076 22.4523L40.6951 24.1398L36.7576 28.0773H29.4451L21.0076 36.5148L22.6951 38.2023L30.5701 30.3273H37.8826L42.3826 25.8273L44.0701 27.5148V22.4523H39.0076Z" fill="white"/>
<path d="M40.6951 24.1398L36.7576 28.0773H29.4451L21.0076 36.5148L22.6951 38.2023L30.5701 30.3273H37.8826L40.6951 27.5148C40.9167 27.2932 41.0925 27.0301 41.2125 26.7406C41.3325 26.451 41.3942 26.1407 41.3942 25.8273C41.3942 25.5139 41.3325 25.2035 41.2125 24.914C41.0925 24.6244 40.9167 24.3614 40.6951 24.1398Z" fill="white"/>
<path d="M20.4451 45.5148V43.2648H22.6951L20.4451 45.5148Z" fill="white"/>
<path d="M26.0701 42.1398V39.8898H28.3201L26.0701 42.1398Z" fill="white"/>
<path d="M31.6951 38.7648V36.5148H33.9451L31.6951 38.7648Z" fill="white"/>
<path d="M37.3201 36.5148V34.2648H39.5701L37.3201 36.5148Z" fill="white"/>
<path d="M42.9451 33.7023V31.4523H45.1951L42.9451 33.7023Z" fill="white"/>
<path d="M48.5701 29.7648V27.5148H50.8201L48.5701 29.7648Z" fill="white"/>
<path d="M23.2576 51.1398H19.8826C19.7334 51.1398 19.5903 51.0805 19.4848 50.975C19.3793 50.8695 19.3201 50.7265 19.3201 50.5773V42.7023C19.3201 42.5531 19.3793 42.41 19.4848 42.3045C19.5903 42.199 19.7334 42.1398 19.8826 42.1398H23.2576C23.4068 42.1398 23.5498 42.199 23.6553 42.3045C23.7608 42.41 23.8201 42.5531 23.8201 42.7023V50.5773C23.8201 50.7265 23.7608 50.8695 23.6553 50.975C23.5498 51.0805 23.4068 51.1398 23.2576 51.1398ZM20.4451 50.0148H22.6951V43.2648H20.4451V50.0148Z" fill="white"/>
<path d="M28.8826 51.1398H25.5076C25.3584 51.1398 25.2153 51.0805 25.1098 50.975C25.0043 50.8695 24.9451 50.7265 24.9451 50.5773V39.3273C24.9451 39.1781 25.0043 39.035 25.1098 38.9295C25.2153 38.824 25.3584 38.7648 25.5076 38.7648H28.8826C29.0318 38.7648 29.1748 38.824 29.2803 38.9295C29.3858 39.035 29.4451 39.1781 29.4451 39.3273V50.5773C29.4451 50.7265 29.3858 50.8695 29.2803 50.975C29.1748 51.0805 29.0318 51.1398 28.8826 51.1398ZM26.0701 50.0148H28.3201V39.8898H26.0701V50.0148Z" fill="white"/>
<path d="M34.5076 51.1398H31.1326C30.9834 51.1398 30.8403 51.0805 30.7348 50.975C30.6293 50.8695 30.5701 50.7265 30.5701 50.5773V35.9523C30.5701 35.8031 30.6293 35.66 30.7348 35.5545C30.8403 35.449 30.9834 35.3898 31.1326 35.3898H34.5076C34.6568 35.3898 34.7998 35.449 34.9053 35.5545C35.0108 35.66 35.0701 35.8031 35.0701 35.9523V50.5773C35.0701 50.7265 35.0108 50.8695 34.9053 50.975C34.7998 51.0805 34.6568 51.1398 34.5076 51.1398ZM31.6951 50.0148H33.9451V36.5148H31.6951V50.0148Z" fill="white"/>
<path d="M40.1326 51.1398H36.7576C36.6084 51.1398 36.4653 51.0805 36.3598 50.975C36.2543 50.8695 36.1951 50.7265 36.1951 50.5773V33.7023C36.1951 33.5531 36.2543 33.41 36.3598 33.3045C36.4653 33.199 36.6084 33.1398 36.7576 33.1398H40.1326C40.2818 33.1398 40.4248 33.199 40.5303 33.3045C40.6358 33.41 40.6951 33.5531 40.6951 33.7023V50.5773C40.6951 50.7265 40.6358 50.8695 40.5303 50.975C40.4248 51.0805 40.2818 51.1398 40.1326 51.1398ZM37.3201 50.0148H39.5701V34.2648H37.3201V50.0148Z" fill="white"/>
<path d="M45.7576 51.1398H42.3826C42.2334 51.1398 42.0903 51.0805 41.9848 50.975C41.8793 50.8695 41.8201 50.7265 41.8201 50.5773V30.8898C41.8201 30.7406 41.8793 30.5975 41.9848 30.492C42.0903 30.3865 42.2334 30.3273 42.3826 30.3273H45.7576C45.9068 30.3273 46.0498 30.3865 46.1553 30.492C46.2608 30.5975 46.3201 30.7406 46.3201 30.8898V50.5773C46.3201 50.7265 46.2608 50.8695 46.1553 50.975C46.0498 51.0805 45.9068 51.1398 45.7576 51.1398ZM42.9451 50.0148H45.1951V31.4523H42.9451V50.0148Z" fill="white"/>
<path d="M51.3826 51.1398H48.0076C47.8584 51.1398 47.7153 51.0805 47.6098 50.975C47.5043 50.8695 47.4451 50.7265 47.4451 50.5773V26.9523C47.4451 26.8031 47.5043 26.66 47.6098 26.5545C47.7153 26.449 47.8584 26.3898 48.0076 26.3898H51.3826C51.5318 26.3898 51.6748 26.449 51.7803 26.5545C51.8858 26.66 51.9451 26.8031 51.9451 26.9523V50.5773C51.9451 50.7265 51.8858 50.8695 51.7803 50.975C51.6748 51.0805 51.5318 51.1398 51.3826 51.1398ZM48.5701 50.0148H50.8201V27.5148H48.5701V50.0148Z" fill="white"/>
<path d="M48.924 23.0654C48.8328 23.0653 48.7429 23.0433 48.6619 23.0013L47.4452 22.3611L46.2285 23.0013C46.1356 23.0502 46.0308 23.0721 45.926 23.0645C45.8213 23.0569 45.7208 23.0202 45.6358 22.9584C45.5509 22.8966 45.4849 22.8123 45.4454 22.715C45.4059 22.6177 45.3945 22.5113 45.4123 22.4078L45.6452 21.0528L44.6608 20.0931C44.5856 20.02 44.5324 19.9274 44.5071 19.8256C44.4818 19.7239 44.4854 19.6171 44.5176 19.5173C44.5498 19.4175 44.6092 19.3287 44.6892 19.2609C44.7691 19.1931 44.8665 19.149 44.9702 19.1335L46.3297 18.9355L46.9389 17.7036C46.9906 17.6159 47.0643 17.5432 47.1527 17.4927C47.2411 17.4422 47.3411 17.4156 47.4429 17.4156C47.5447 17.4156 47.6448 17.4422 47.7332 17.4927C47.8216 17.5432 47.8953 17.6159 47.9469 17.7036L48.5561 18.9361L49.9202 19.1335C50.024 19.1486 50.1216 19.1924 50.2018 19.26C50.282 19.3276 50.3417 19.4163 50.3742 19.5161C50.4067 19.6158 50.4106 19.7227 50.3856 19.8246C50.3605 19.9264 50.3074 20.0193 50.2324 20.0926L49.2452 21.0528L49.4775 22.4078C49.4913 22.4885 49.4874 22.5713 49.4659 22.6503C49.4445 22.7293 49.406 22.8027 49.3533 22.8654C49.3005 22.928 49.2347 22.9783 49.1604 23.0129C49.0862 23.0474 49.0053 23.0653 48.9234 23.0654H48.924ZM47.4452 21.163C47.5365 21.163 47.6265 21.1852 47.7073 21.2277L48.177 21.4746L48.0876 20.9515C48.0721 20.8617 48.0787 20.7694 48.1069 20.6827C48.135 20.596 48.1838 20.5174 48.249 20.4537L48.6287 20.0836L48.1039 20.0071C48.0136 19.9939 47.9278 19.959 47.854 19.9053C47.7802 19.8516 47.7206 19.7807 47.6803 19.6988L47.4452 19.223L47.2101 19.6988C47.1698 19.7807 47.1101 19.8516 47.0364 19.9053C46.9626 19.959 46.8768 19.9939 46.7865 20.0071L46.2617 20.0836L46.6414 20.4537C46.7066 20.5174 46.7554 20.596 46.7835 20.6827C46.8116 20.7694 46.8183 20.8617 46.8028 20.9515L46.7134 21.4746L47.1831 21.2277C47.2639 21.1852 47.3539 21.163 47.4452 21.163Z" fill="white"/>
</svg>
