<svg width="72" height="68" viewBox="0 0 72 68" fill="none" xmlns="http://www.w3.org/2000/svg">
<path fill-rule="evenodd" clip-rule="evenodd" d="M35.0755 60.069C46.6424 55.6885 46.8829 55.5671 57.2562 48.843C64.4439 44.3181 67.1346 34.9789 63.2222 27.2495C61.5283 23.9031 58.8585 21.3754 55.734 19.8375C46.9555 15.4047 46.8386 15.3613 37.3684 12.3907C33.3674 11.1303 28.8896 11.3719 24.8513 13.416C20.5655 15.5854 17.6227 19.3555 16.3819 23.6314L16.3818 23.6314C13.7199 32.8118 13.6882 32.9377 12.513 42.2818C12.0594 45.5284 12.5578 48.9416 14.1504 52.0881C18.0614 59.8146 27.1754 63.1762 35.0755 60.069Z" fill="#33477C"/>
<g clip-path="url(#clip0_246_9)">
<path d="M50.5456 31.825C53.4215 31.825 55.5027 27.8734 55.5027 25.2156C55.5027 22.4804 53.2808 20.2585 50.5456 20.2585C47.8175 20.2585 45.5886 22.4804 45.5886 25.2156C45.5886 27.8734 47.6699 31.825 50.5456 31.825Z" fill="white"/>
<path d="M54.3425 32.0007H52.5003L50.5456 35.7273L48.598 32.0007H46.7488C44.0065 32.0007 41.7636 34.1804 41.6722 36.8945C41.3698 36.8312 41.0534 36.8031 40.737 36.8031H38.8878L36.9402 40.5296L34.9925 36.8031H33.1433C32.8339 36.8031 32.5245 36.8312 32.2292 36.8875C32.1308 34.1734 29.8878 32.0007 27.1527 32.0007H25.3034L23.3558 35.7273L21.4081 32.0007H19.5589C16.7534 32.0007 14.4683 34.2859 14.4683 37.0913V43.4687H28.0526V48.2711H45.8277V43.4687H59.4331V37.0913C59.4331 34.2859 57.148 32.0007 54.3425 32.0007ZM44.4214 46.8648H29.4589V41.8937C29.4589 39.8617 31.1113 38.2093 33.1433 38.2093H34.1347L36.9402 43.5601L39.7456 38.2093H40.737C42.769 38.2093 44.4214 39.8617 44.4214 41.8937V46.8648Z" fill="white"/>
<path d="M23.3909 31.825C26.2667 31.825 28.3479 27.8734 28.3479 25.2156C28.3479 22.4804 26.126 20.2585 23.3909 20.2585C20.6557 20.2585 18.4338 22.4804 18.4338 25.2156C18.4338 27.8734 20.5151 31.825 23.3909 31.825Z" fill="white"/>
<path d="M36.9402 36.6253C39.8155 36.6253 41.8967 32.6758 41.8967 30.013C41.8967 27.2798 39.6734 25.0564 36.9402 25.0564C34.207 25.0564 31.9836 27.2798 31.9836 30.013C31.9836 32.6758 34.0649 36.6253 36.9402 36.6253ZM36.9402 26.4627C38.8978 26.4627 40.4905 28.0553 40.4905 30.013C40.4905 32.19 38.7014 35.2191 36.9402 35.2191C35.1789 35.2191 33.3899 32.19 33.3899 30.013C33.3899 28.0553 34.9826 26.4627 36.9402 26.4627Z" fill="white"/>
</g>
<defs>
<clipPath id="clip0_246_9">
<rect width="45" height="45" fill="white" transform="translate(14.4507 11.7648)"/>
</clipPath>
</defs>
</svg>
