<svg width="367" height="349" viewBox="0 0 367 349" fill="none" xmlns="http://www.w3.org/2000/svg">
<rect x="0.195801" y="0.169189" width="366" height="348.213" fill="url(#paint0_linear_69_961)"/>
<g clip-path="url(#clip0_69_961)">
<path d="M131.211 132.351L95.7917 111.902L75.3425 147.321L110.762 167.77L131.211 132.351Z" fill="url(#paint1_linear_69_961)"/>
<path d="M131.211 132.351L95.7917 111.902L75.3425 147.321L110.762 167.77L131.211 132.351Z" fill="url(#paint2_radial_69_961)"/>
<path d="M131.211 132.351L95.7917 111.902L75.3425 147.321L110.762 167.77L131.211 132.351Z" fill="url(#paint3_diamond_69_961)" fill-opacity="0.35"/>
<path d="M313.024 114.344C329.619 114.344 343.072 100.891 343.072 84.2959C343.072 67.7009 329.619 54.248 313.024 54.248C296.429 54.248 282.976 67.7009 282.976 84.2959C282.976 100.891 296.429 114.344 313.024 114.344Z" fill="#6C63FF"/>
<path d="M294.651 42.6294C298.397 51.8126 307.928 56.6081 307.928 56.6081C307.928 56.6081 311.387 46.5147 307.642 37.3314C303.896 28.1482 294.365 23.3528 294.365 23.3528C294.365 23.3528 290.906 33.4462 294.651 42.6294Z" fill="#3F3D56"/>
<path d="M298.176 40.1205C306.077 46.1138 308.244 56.5611 308.244 56.5611C308.244 56.5611 297.6 57.2915 289.698 51.2982C281.796 45.3049 279.629 34.8575 279.629 34.8575C279.629 34.8575 290.274 34.1272 298.176 40.1205Z" fill="#6C63FF"/>
<path d="M309.431 37.3803C305.761 46.5939 309.303 56.6586 309.303 56.6586C309.303 56.6586 318.795 51.7852 322.464 42.5716C326.134 33.3579 322.593 23.2932 322.593 23.2932C322.593 23.2932 313.101 28.1667 309.431 37.3803Z" fill="#3F3D56"/>
<path d="M313.71 38.0166C315.247 47.8143 309.563 56.8441 309.563 56.8441C309.563 56.8441 301.387 49.9885 299.85 40.1908C298.313 30.393 303.997 21.3633 303.997 21.3633C303.997 21.3633 312.173 28.2188 313.71 38.0166Z" fill="#6C63FF"/>
<path d="M311.371 96.5775C319.899 96.5775 326.813 89.6642 326.813 81.1362C326.813 72.6082 319.899 65.6949 311.371 65.6949C302.843 65.6949 295.93 72.6082 295.93 81.1362C295.93 89.6642 302.843 96.5775 311.371 96.5775Z" fill="#F2F2F2"/>
<path d="M304.885 81.838C307.651 81.838 309.893 79.5958 309.893 76.83C309.893 74.0642 307.651 71.822 304.885 71.822C302.119 71.822 299.877 74.0642 299.877 76.83C299.877 79.5958 302.119 81.838 304.885 81.838Z" fill="#3F3D56"/>
<path d="M357.015 269.626C355.199 269.626 353.424 269.088 351.914 268.079C350.404 267.07 349.227 265.636 348.532 263.959C347.837 262.281 347.655 260.435 348.01 258.654C348.364 256.873 349.238 255.237 350.522 253.953C351.806 252.669 353.442 251.794 355.223 251.44C357.004 251.086 358.85 251.268 360.528 251.963C362.206 252.657 363.64 253.834 364.649 255.344C365.657 256.854 366.196 258.629 366.196 260.445C366.193 262.879 365.225 265.213 363.504 266.934C361.782 268.655 359.449 269.624 357.015 269.626ZM357.015 252.098C355.364 252.098 353.75 252.588 352.377 253.505C351.005 254.422 349.935 255.726 349.303 257.251C348.672 258.776 348.506 260.454 348.828 262.073C349.15 263.692 349.945 265.18 351.113 266.347C352.28 267.514 353.767 268.309 355.386 268.631C357.005 268.953 358.684 268.788 360.209 268.156C361.734 267.525 363.037 266.455 363.955 265.082C364.872 263.71 365.361 262.096 365.361 260.445C365.359 258.232 364.479 256.11 362.914 254.546C361.349 252.981 359.227 252.101 357.015 252.098Z" fill="#3F3D56"/>
<path d="M111.623 174.892C109.808 174.892 108.032 174.353 106.523 173.345C105.013 172.336 103.836 170.902 103.141 169.224C102.446 167.546 102.264 165.7 102.619 163.919C102.973 162.138 103.847 160.502 105.131 159.218C106.415 157.934 108.051 157.06 109.832 156.706C111.613 156.351 113.459 156.533 115.137 157.228C116.815 157.923 118.249 159.1 119.257 160.61C120.266 162.12 120.805 163.895 120.805 165.711C120.802 168.145 119.834 170.478 118.113 172.2C116.391 173.921 114.058 174.889 111.623 174.892ZM111.623 157.364C109.973 157.364 108.359 157.853 106.986 158.771C105.614 159.688 104.544 160.991 103.912 162.516C103.28 164.042 103.115 165.72 103.437 167.339C103.759 168.958 104.554 170.445 105.721 171.613C106.889 172.78 108.376 173.575 109.995 173.897C111.614 174.219 113.292 174.054 114.818 173.422C116.343 172.79 117.646 171.72 118.563 170.348C119.481 168.975 119.97 167.361 119.97 165.711C119.968 163.498 119.087 161.376 117.523 159.811C115.958 158.247 113.836 157.366 111.623 157.364Z" fill="#3F3D56"/>
<path d="M332.199 88.77L283.381 143.257C286.006 145.293 288.183 147.848 289.777 150.763C291.372 153.677 292.349 156.889 292.648 160.198C292.947 163.506 292.562 166.841 291.516 169.994C290.471 173.147 288.787 176.052 286.57 178.526C284.353 181 281.651 182.992 278.631 184.376C275.611 185.76 272.338 186.508 269.017 186.573C265.696 186.637 262.396 186.017 259.325 184.751C256.253 183.485 253.475 181.601 251.164 179.214L183.163 255.112C202.769 270.349 226.901 278.604 251.732 278.567C313.566 278.567 363.692 228.44 363.692 166.607C363.729 137.55 352.431 109.626 332.199 88.77Z" fill="url(#paint4_linear_69_961)"/>
<path d="M332.199 88.77L283.381 143.257C286.006 145.293 288.183 147.848 289.777 150.763C291.372 153.677 292.349 156.889 292.648 160.198C292.947 163.506 292.562 166.841 291.516 169.994C290.471 173.147 288.787 176.052 286.57 178.526C284.353 181 281.651 182.992 278.631 184.376C275.611 185.76 272.338 186.508 269.017 186.573C265.696 186.637 262.396 186.017 259.325 184.751C256.253 183.485 253.475 181.601 251.164 179.214L183.163 255.112C202.769 270.349 226.901 278.604 251.732 278.567C313.566 278.567 363.692 228.44 363.692 166.607C363.729 137.55 352.431 109.626 332.199 88.77Z" fill="url(#paint5_radial_69_961)"/>
<path d="M332.199 88.77L283.381 143.257C286.006 145.293 288.183 147.848 289.777 150.763C291.372 153.677 292.349 156.889 292.648 160.198C292.947 163.506 292.562 166.841 291.516 169.994C290.471 173.147 288.787 176.052 286.57 178.526C284.353 181 281.651 182.992 278.631 184.376C275.611 185.76 272.338 186.508 269.017 186.573C265.696 186.637 262.396 186.017 259.325 184.751C256.253 183.485 253.475 181.601 251.164 179.214L183.163 255.112C202.769 270.349 226.901 278.604 251.732 278.567C313.566 278.567 363.692 228.44 363.692 166.607C363.729 137.55 352.431 109.626 332.199 88.77Z" fill="url(#paint6_diamond_69_961)" fill-opacity="0.35"/>
<path d="M269.375 178.231C277.442 178.231 283.982 171.691 283.982 163.624C283.982 155.557 277.442 149.017 269.375 149.017C261.308 149.017 254.768 155.557 254.768 163.624C254.768 171.691 261.308 178.231 269.375 178.231Z" fill="url(#paint7_linear_69_961)"/>
<path d="M269.375 178.231C277.442 178.231 283.982 171.691 283.982 163.624C283.982 155.557 277.442 149.017 269.375 149.017C261.308 149.017 254.768 155.557 254.768 163.624C254.768 171.691 261.308 178.231 269.375 178.231Z" fill="url(#paint8_radial_69_961)" fill-opacity="0.2"/>
<path d="M192.989 65.4963C200.775 65.4963 207.087 59.1845 207.087 51.3985C207.087 43.6126 200.775 37.3008 192.989 37.3008C185.203 37.3008 178.891 43.6126 178.891 51.3985C178.891 59.1845 185.203 65.4963 192.989 65.4963Z" fill="#2F2E41"/>
<path d="M166.478 151.041L169.749 214.816C169.749 214.816 169.204 260.603 172.474 261.148C175.745 261.693 181.741 265.508 183.376 262.783C185.011 260.057 193.187 176.115 193.187 176.115C193.187 176.115 195.368 263.328 201.909 263.873C208.45 264.418 216.081 261.148 217.171 261.693C218.261 262.238 217.716 152.676 217.716 152.676L166.478 151.041Z" fill="#2F2E41"/>
<path d="M176.29 260.603C176.29 260.603 172.474 260.603 171.384 262.238C170.294 263.873 166.478 272.049 166.478 272.049C166.478 272.049 159.392 278.556 167.023 279.101C174.654 279.646 178.47 278.045 178.47 276.955C178.47 275.865 178.47 273.139 180.105 272.594C181.741 272.049 183.376 269.324 183.376 268.234C183.376 267.144 181.741 260.058 176.29 260.603Z" fill="#2F2E41"/>
<path d="M205.724 261.148C205.724 261.148 202.999 272.049 205.724 272.594C208.45 273.139 210.085 274.23 210.63 275.865C211.175 277.5 216.626 279.391 220.987 278.846C225.347 278.301 227.527 275.32 225.892 273.685C224.257 272.049 216.081 262.783 215.536 261.148C214.991 259.512 205.724 261.148 205.724 261.148Z" fill="#2F2E41"/>
<path d="M186.646 61.648C186.646 61.648 185.556 69.8242 183.376 70.9144C181.195 72.0046 184.466 78.0005 184.466 78.0005L194.277 79.6357L202.999 72.5496C202.999 72.5496 201.363 62.1931 201.363 61.648C201.363 61.1029 186.646 61.648 186.646 61.648Z" fill="#9F616A"/>
<path opacity="0.1" d="M186.646 61.648C186.646 61.648 185.556 69.8242 183.376 70.9144C181.195 72.0046 184.466 78.0005 184.466 78.0005L194.277 79.6357L202.999 72.5496C202.999 72.5496 201.363 62.1931 201.363 61.648C201.363 61.1029 186.646 61.648 186.646 61.648Z" fill="black"/>
<path d="M192.642 68.7341C199.867 68.7341 205.724 62.8771 205.724 55.6521C205.724 48.4272 199.867 42.5702 192.642 42.5702C185.417 42.5702 179.56 48.4272 179.56 55.6521C179.56 62.8771 185.417 68.7341 192.642 68.7341Z" fill="#9F616A"/>
<g filter="url(#filter0_d_69_961)">
<path d="M200.21 71.2584C196.423 75.3851 190.581 73.104 186.115 69.7233C185.408 69.188 184.745 68.8964 184.194 69.0067C181.468 69.5518 173.019 70.9145 171.929 70.3694C170.938 69.874 164.995 90.54 163.92 94.3115C163.807 94.7052 163.723 95.0924 163.662 95.4973C162.817 101.142 156.44 144.889 161.028 150.496C165.933 156.492 182.831 153.222 185.011 159.218C187.191 165.214 221.532 155.947 221.532 152.677C221.532 149.406 222.077 99.2587 222.622 95.4431C222.982 92.9196 220.72 83.2434 219.147 76.9794C218.285 73.5498 215.63 70.8606 212.182 70.0775C208.429 69.2252 203.937 68.4011 202.726 69.0067C201.863 69.4382 201.171 70.2113 200.21 71.2584Z" fill="url(#paint9_linear_69_961)"/>
<path d="M200.21 71.2584C196.423 75.3851 190.581 73.104 186.115 69.7233C185.408 69.188 184.745 68.8964 184.194 69.0067C181.468 69.5518 173.019 70.9145 171.929 70.3694C170.938 69.874 164.995 90.54 163.92 94.3115C163.807 94.7052 163.723 95.0924 163.662 95.4973C162.817 101.142 156.44 144.889 161.028 150.496C165.933 156.492 182.831 153.222 185.011 159.218C187.191 165.214 221.532 155.947 221.532 152.677C221.532 149.406 222.077 99.2587 222.622 95.4431C222.982 92.9196 220.72 83.2434 219.147 76.9794C218.285 73.5498 215.63 70.8606 212.182 70.0775C208.429 69.2252 203.937 68.4011 202.726 69.0067C201.863 69.4382 201.171 70.2113 200.21 71.2584Z" fill="url(#paint10_radial_69_961)" fill-opacity="0.2"/>
</g>
<g filter="url(#filter1_d_69_961)">
<path d="M172.726 72.8254C172.91 72.3089 172.84 71.7356 172.536 71.2792C172.165 70.7232 171.508 70.4292 170.846 70.5173C167.914 70.907 159.867 71.902 157.212 71.4594C156.082 71.2711 154.172 71.278 152.155 71.3676C148.451 71.5322 144.894 66.3628 148.49 65.4635C150.11 65.0587 152.03 64.0527 152.91 63.5617C153.177 63.413 153.53 63.4905 153.364 63.2339C152.994 62.6613 143.306 57.0183 142.703 57.3359C135.666 61.0423 127.592 66.3342 126.687 71.4594C125.567 77.8068 143.884 86.4559 155.536 91.2752C160.636 93.3849 166.347 90.6866 168.203 85.4887L172.726 72.8254Z" fill="url(#paint11_linear_69_961)"/>
<path d="M172.726 72.8254C172.91 72.3089 172.84 71.7356 172.536 71.2792C172.165 70.7232 171.508 70.4292 170.846 70.5173C167.914 70.907 159.867 71.902 157.212 71.4594C156.082 71.2711 154.172 71.278 152.155 71.3676C148.451 71.5322 144.894 66.3628 148.49 65.4635C150.11 65.0587 152.03 64.0527 152.91 63.5617C153.177 63.413 153.53 63.4905 153.364 63.2339C152.994 62.6613 143.306 57.0183 142.703 57.3359C135.666 61.0423 127.592 66.3342 126.687 71.4594C125.567 77.8068 143.884 86.4559 155.536 91.2752C160.636 93.3849 166.347 90.6866 168.203 85.4887L172.726 72.8254Z" fill="url(#paint12_radial_69_961)" fill-opacity="0.2"/>
</g>
<g filter="url(#filter2_d_69_961)">
<path d="M214.227 76.264C213.733 74.2015 215 72.1385 217.058 71.6241C217.493 71.5152 217.944 71.4824 218.391 71.5271L231.704 72.8584C234.426 73.1305 236.036 69.8889 234.175 67.8845L233.396 67.0461C232.843 66.45 232.235 66.2987 232.71 65.6386C233.743 64.2042 239.477 60.0422 241.09 60.7652C249.413 64.4963 261.898 71.03 259.687 75.8202C256.417 82.9062 222.077 95.4431 220.441 95.9882C219.213 96.3975 215.834 82.9757 214.227 76.264Z" fill="url(#paint13_linear_69_961)"/>
<path d="M214.227 76.264C213.733 74.2015 215 72.1385 217.058 71.6241C217.493 71.5152 217.944 71.4824 218.391 71.5271L231.704 72.8584C234.426 73.1305 236.036 69.8889 234.175 67.8845L233.396 67.0461C232.843 66.45 232.235 66.2987 232.71 65.6386C233.743 64.2042 239.477 60.0422 241.09 60.7652C249.413 64.4963 261.898 71.03 259.687 75.8202C256.417 82.9062 222.077 95.4431 220.441 95.9882C219.213 96.3975 215.834 82.9757 214.227 76.264Z" fill="url(#paint14_radial_69_961)" fill-opacity="0.2"/>
</g>
<path d="M156.366 53.8496C157.715 54.1176 158.868 54.9605 159.973 55.7811C161.043 56.5459 162.07 57.3704 163.047 58.2507C168.005 62.8852 169.827 69.8776 171.404 76.4782C170.281 77.4241 168.448 76.6375 167.695 75.3777C166.942 74.1179 166.89 72.5794 166.594 71.1417C166.298 69.7039 165.574 68.1588 164.175 67.7147C164.469 68.6272 163.759 69.6183 162.871 69.9806C161.984 70.3429 160.984 70.2429 160.031 70.1368C159.588 70.1125 159.152 70.0133 158.742 69.8433C158.002 69.4856 157.57 68.7162 157.168 68C156.119 66.1333 154.964 64.3276 153.711 62.5915C153.427 62.1429 153.056 61.7551 152.621 61.4505C150.875 60.3846 149 58.9907 149.87 56.4604C150.587 54.3718 154.461 53.4713 156.366 53.8496Z" fill="#9F616A"/>
<path d="M228.838 57.0938C226.876 57.1915 225.185 58.4682 223.748 59.8078C217.736 65.4527 213.865 73.0059 212.794 81.1828C212.724 81.731 212.702 82.3765 213.122 82.7359C213.594 83.1401 214.372 82.9008 214.76 82.4151C215.1 81.8924 215.312 81.2972 215.381 80.6773C215.762 78.8237 216.412 77.0358 217.31 75.3702C217.771 74.5162 218.412 73.6168 219.37 73.4656C220.798 73.2404 221.866 74.7525 223.229 75.2312C224.839 75.7963 226.642 74.7843 227.62 73.387C228.599 71.9897 228.981 70.2768 229.52 68.6584C230.059 67.0402 230.859 65.3806 232.33 64.5174C233.896 63.5983 237.502 62.9598 235.973 60.3803C234.862 58.5058 230.891 56.9915 228.838 57.0938Z" fill="#9F616A"/>
<path d="M178.473 48.4135C178.473 48.4135 174.997 39.375 180.038 36.4202L181.428 40.418C181.428 40.418 194.117 32.7701 197.419 34.5082L194.291 38.6798C194.291 38.6798 209.065 38.6798 210.108 44.4157L204.893 44.5895C204.893 44.5895 210.456 48.2397 210.629 54.1494L199.505 54.8447L204.893 57.9734C204.893 57.9734 184.731 60.7544 179.864 52.7589L178.473 48.4135Z" fill="#2F2E41"/>
<path d="M144.948 58.6501L153.124 52.1091C153.124 52.1091 150.398 60.2853 153.124 63.0107L142.767 65.1911L144.948 58.6501Z" fill="#575A88"/>
<path d="M240.337 62.4657L233.251 57.0149C233.251 57.0149 234.341 64.1009 232.161 65.7362C229.98 67.3714 238.157 67.9165 238.157 67.9165L240.337 62.4657Z" fill="#575A88"/>
<path d="M75.1629 293.641C91.7579 293.641 105.211 280.188 105.211 263.593C105.211 246.998 91.7579 233.545 75.1629 233.545C58.5679 233.545 45.115 246.998 45.115 263.593C45.115 280.188 58.5679 293.641 75.1629 293.641Z" fill="#6C63FF"/>
<path d="M46.6478 228.089C52.6388 235.992 63.0856 238.162 63.0856 238.162C63.0856 238.162 63.819 227.518 57.828 219.614C51.837 211.711 41.3902 209.541 41.3902 209.541C41.3902 209.541 40.6568 220.185 46.6478 228.089Z" fill="#3F3D56"/>
<path d="M49.404 224.754C58.5861 228.502 63.3788 238.035 63.3788 238.035C63.3788 238.035 53.2844 241.491 44.1023 237.743C34.9202 233.995 30.1274 224.463 30.1274 224.463C30.1274 224.463 40.2219 221.007 49.404 224.754Z" fill="#6C63FF"/>
<path d="M59.5691 219.199C58.4047 229.048 64.4269 237.856 64.4269 237.856C64.4269 237.856 72.3369 230.695 73.5013 220.846C74.6657 210.997 68.6435 202.189 68.6435 202.189C68.6435 202.189 60.7335 209.35 59.5691 219.199Z" fill="#3F3D56"/>
<path d="M63.8673 218.708C67.8839 227.776 64.7263 237.968 64.7263 237.968C64.7263 237.968 55.0567 233.458 51.0402 224.39C47.0236 215.322 50.1811 205.13 50.1811 205.13C50.1811 205.13 59.8508 209.64 63.8673 218.708Z" fill="#6C63FF"/>
<path d="M63.569 280.582C72.0969 280.582 79.0102 273.669 79.0102 265.141C79.0102 256.613 72.0969 249.699 63.569 249.699C55.041 249.699 48.1277 256.613 48.1277 265.141C48.1277 273.669 55.041 280.582 63.569 280.582Z" fill="#F2F2F2"/>
<path d="M57.7111 275.049C60.4769 275.049 62.7191 272.807 62.7191 270.041C62.7191 267.275 60.4769 265.033 57.7111 265.033C54.9453 265.033 52.7031 267.275 52.7031 270.041C52.7031 272.807 54.9453 275.049 57.7111 275.049Z" fill="#3F3D56"/>
<path d="M193.42 279.642C210.015 279.642 223.468 266.189 223.468 249.594C223.468 232.999 210.015 219.546 193.42 219.546C176.825 219.546 163.373 232.999 163.373 249.594C163.373 266.189 176.825 279.642 193.42 279.642Z" fill="#6C63FF"/>
<path d="M180.301 205.988C182.891 215.561 191.762 221.49 191.762 221.49C191.762 221.49 196.433 211.898 193.844 202.324C191.254 192.751 182.383 186.822 182.383 186.822C182.383 186.822 177.711 196.414 180.301 205.988Z" fill="#3F3D56"/>
<path d="M184.106 203.93C191.213 210.848 192.081 221.483 192.081 221.483C192.081 221.483 181.427 220.901 174.321 213.983C167.214 207.065 166.346 196.431 166.346 196.431C166.346 196.431 177 197.012 184.106 203.93Z" fill="#6C63FF"/>
<path d="M195.613 202.593C190.84 211.286 193.12 221.709 193.12 221.709C193.12 221.709 203.138 218.038 207.911 209.344C212.684 200.651 210.404 190.227 210.404 190.227C210.404 190.227 200.386 193.899 195.613 202.593Z" fill="#3F3D56"/>
<path d="M199.782 203.749C200.105 213.661 193.356 221.925 193.356 221.925C193.356 221.925 186.083 214.118 185.76 204.206C185.437 194.293 192.187 186.03 192.187 186.03C192.187 186.03 199.459 193.837 199.782 203.749Z" fill="#6C63FF"/>
<path d="M192.168 261.697C200.696 261.697 207.61 254.784 207.61 246.256C207.61 237.728 200.696 230.814 192.168 230.814C183.64 230.814 176.727 237.728 176.727 246.256C176.727 254.784 183.64 261.697 192.168 261.697Z" fill="#F2F2F2"/>
<path d="M192.168 242.5C194.934 242.5 197.176 240.258 197.176 237.492C197.176 234.726 194.934 232.484 192.168 232.484C189.403 232.484 187.16 234.726 187.16 237.492C187.16 240.258 189.403 242.5 192.168 242.5Z" fill="#3F3D56"/>
<path d="M276.469 278.808H119.97V279.642H276.469V278.808Z" fill="#2F2E41"/>
<path d="M339.695 105.198C344.42 105.198 348.251 102.208 348.251 98.5203C348.251 94.8326 344.42 91.843 339.695 91.843C334.97 91.843 331.14 94.8326 331.14 98.5203C331.14 102.208 334.97 105.198 339.695 105.198Z" fill="#6C63FF"/>
<path d="M103.335 239.592L117.018 228.634L103.335 239.592Z" fill="#3F3D56"/>
<path d="M104.21 248.037C108.346 244.695 112.627 241.545 117.053 238.586L104.21 248.037Z" fill="#3F3D56"/>
<path d="M113.337 247.147C118.171 244.849 122.58 241.75 126.379 237.98L113.337 247.147Z" fill="#3F3D56"/>
<path d="M79.0715 292.162C83.2203 292.162 86.5835 288.799 86.5835 284.65C86.5835 280.501 83.2203 277.138 79.0715 277.138C74.9228 277.138 71.5596 280.501 71.5596 284.65C71.5596 288.799 74.9228 292.162 79.0715 292.162Z" fill="#3F3D56"/>
<path d="M41.5117 327.188C64.3298 327.188 82.8275 324.959 82.8275 322.21C82.8275 319.461 64.3298 317.232 41.5117 317.232C18.6935 317.232 0.195801 319.461 0.195801 322.21C0.195801 324.959 18.6935 327.188 41.5117 327.188Z" fill="url(#paint15_linear_69_961)"/>
<path d="M41.5117 327.188C64.3298 327.188 82.8275 324.959 82.8275 322.21C82.8275 319.461 64.3298 317.232 41.5117 317.232C18.6935 317.232 0.195801 319.461 0.195801 322.21C0.195801 324.959 18.6935 327.188 41.5117 327.188Z" fill="url(#paint16_radial_69_961)"/>
<path d="M41.5117 327.188C64.3298 327.188 82.8275 324.959 82.8275 322.21C82.8275 319.461 64.3298 317.232 41.5117 317.232C18.6935 317.232 0.195801 319.461 0.195801 322.21C0.195801 324.959 18.6935 327.188 41.5117 327.188Z" fill="url(#paint17_diamond_69_961)" fill-opacity="0.35"/>
<path d="M263.95 279.225C262.134 279.225 260.359 278.686 258.849 277.678C257.339 276.669 256.162 275.235 255.467 273.557C254.772 271.879 254.59 270.033 254.945 268.252C255.299 266.471 256.173 264.835 257.457 263.551C258.741 262.267 260.377 261.393 262.158 261.039C263.939 260.684 265.785 260.866 267.463 261.561C269.141 262.256 270.575 263.433 271.584 264.943C272.592 266.453 273.131 268.228 273.131 270.044C273.128 272.478 272.16 274.811 270.439 276.533C268.718 278.254 266.384 279.222 263.95 279.225ZM263.95 261.697C262.299 261.697 260.685 262.186 259.312 263.104C257.94 264.021 256.87 265.324 256.238 266.849C255.607 268.375 255.441 270.053 255.763 271.672C256.085 273.291 256.88 274.778 258.048 275.946C259.215 277.113 260.702 277.908 262.321 278.23C263.94 278.552 265.619 278.387 267.144 277.755C268.669 277.123 269.972 276.053 270.89 274.681C271.807 273.308 272.296 271.694 272.296 270.044C272.294 267.831 271.414 265.709 269.849 264.144C268.284 262.58 266.163 261.699 263.95 261.697Z" fill="#3F3D56"/>
</g>
<defs>
<filter id="filter0_d_69_961" x="148.383" y="63.7983" width="93.2771" height="122.394" filterUnits="userSpaceOnUse" color-interpolation-filters="sRGB">
<feFlood flood-opacity="0" result="BackgroundImageFix"/>
<feColorMatrix in="SourceAlpha" type="matrix" values="0 0 0 0 0 0 0 0 0 0 0 0 0 0 0 0 0 0 127 0" result="hardAlpha"/>
<feOffset dx="4" dy="10"/>
<feGaussianBlur stdDeviation="7.5"/>
<feComposite in2="hardAlpha" operator="out"/>
<feColorMatrix type="matrix" values="0 0 0 0 0 0 0 0 0 0 0 0 0 0 0 0 0 0 0.1 0"/>
<feBlend mode="normal" in2="BackgroundImageFix" result="effect1_dropShadow_69_961"/>
<feBlend mode="normal" in="SourceGraphic" in2="effect1_dropShadow_69_961" result="shape"/>
</filter>
<filter id="filter1_d_69_961" x="115.638" y="52.323" width="76.189" height="64.673" filterUnits="userSpaceOnUse" color-interpolation-filters="sRGB">
<feFlood flood-opacity="0" result="BackgroundImageFix"/>
<feColorMatrix in="SourceAlpha" type="matrix" values="0 0 0 0 0 0 0 0 0 0 0 0 0 0 0 0 0 0 127 0" result="hardAlpha"/>
<feOffset dx="4" dy="10"/>
<feGaussianBlur stdDeviation="7.5"/>
<feComposite in2="hardAlpha" operator="out"/>
<feColorMatrix type="matrix" values="0 0 0 0 0 0 0 0 0 0 0 0 0 0 0 0 0 0 0.1 0"/>
<feBlend mode="normal" in2="BackgroundImageFix" result="effect1_dropShadow_69_961"/>
<feBlend mode="normal" in="SourceGraphic" in2="effect1_dropShadow_69_961" result="shape"/>
</filter>
<filter id="filter2_d_69_961" x="203.12" y="55.6815" width="75.8254" height="65.3158" filterUnits="userSpaceOnUse" color-interpolation-filters="sRGB">
<feFlood flood-opacity="0" result="BackgroundImageFix"/>
<feColorMatrix in="SourceAlpha" type="matrix" values="0 0 0 0 0 0 0 0 0 0 0 0 0 0 0 0 0 0 127 0" result="hardAlpha"/>
<feOffset dx="4" dy="10"/>
<feGaussianBlur stdDeviation="7.5"/>
<feComposite in2="hardAlpha" operator="out"/>
<feColorMatrix type="matrix" values="0 0 0 0 0 0 0 0 0 0 0 0 0 0 0 0 0 0 0.1 0"/>
<feBlend mode="normal" in2="BackgroundImageFix" result="effect1_dropShadow_69_961"/>
<feBlend mode="normal" in="SourceGraphic" in2="effect1_dropShadow_69_961" result="shape"/>
</filter>
<linearGradient id="paint0_linear_69_961" x1="183.196" y1="0.169189" x2="183.196" y2="348.382" gradientUnits="userSpaceOnUse">
<stop stop-color="#003932"/>
<stop offset="0.4875" stop-color="#1F2C9D" stop-opacity="0.64"/>
<stop offset="1" stop-color="#EEF3F2"/>
</linearGradient>
<linearGradient id="paint1_linear_69_961" x1="123.085" y1="155.226" x2="86.2845" y2="128.014" gradientUnits="userSpaceOnUse">
<stop stop-color="#021342"/>
<stop offset="0.466667" stop-color="#5B65B4"/>
<stop offset="1" stop-color="#1E8D9D"/>
</linearGradient>
<radialGradient id="paint2_radial_69_961" cx="0" cy="0" r="1" gradientUnits="userSpaceOnUse" gradientTransform="translate(106.804 144.207) rotate(47.6196) scale(23.1463 29.6061)">
<stop stop-color="#9091BF"/>
<stop offset="1" stop-color="#0085FF"/>
</radialGradient>
<radialGradient id="paint3_diamond_69_961" cx="0" cy="0" r="1" gradientUnits="userSpaceOnUse" gradientTransform="translate(103.277 139.836) rotate(120) scale(20.4493 20.4493)">
<stop stop-color="#FF1515"/>
<stop offset="1" stop-color="#15F754"/>
</radialGradient>
<linearGradient id="paint4_linear_69_961" x1="383.114" y1="199.556" x2="182.136" y2="177.842" gradientUnits="userSpaceOnUse">
<stop stop-color="#021342"/>
<stop offset="0.466667" stop-color="#5B65B4"/>
<stop offset="1" stop-color="#1E8D9D"/>
</linearGradient>
<radialGradient id="paint5_radial_69_961" cx="0" cy="0" r="1" gradientUnits="userSpaceOnUse" gradientTransform="translate(296.557 193.053) rotate(18.4642) scale(102.661 136.734)">
<stop stop-color="#9091BF"/>
<stop offset="1" stop-color="#0085FF"/>
</radialGradient>
<radialGradient id="paint6_diamond_69_961" cx="0" cy="0" r="1" gradientUnits="userSpaceOnUse" gradientTransform="translate(273.427 183.668) rotate(90) scale(94.8984 90.2646)">
<stop stop-color="#FF1515"/>
<stop offset="1" stop-color="#15F754"/>
</radialGradient>
<linearGradient id="paint7_linear_69_961" x1="287.124" y1="166.069" x2="254.642" y2="162.38" gradientUnits="userSpaceOnUse">
<stop stop-color="#021342"/>
<stop offset="0.466667" stop-color="#5B65B4"/>
<stop offset="1" stop-color="#1E8D9D"/>
</linearGradient>
<radialGradient id="paint8_radial_69_961" cx="0" cy="0" r="1" gradientUnits="userSpaceOnUse" gradientTransform="translate(273.118 165.068) rotate(17.6196) scale(16.5331 21.1472)">
<stop stop-color="#9091BF"/>
<stop offset="1" stop-color="#0085FF"/>
</radialGradient>
<linearGradient id="paint9_linear_69_961" x1="229.468" y1="122.729" x2="158.629" y2="117.219" gradientUnits="userSpaceOnUse">
<stop stop-color="#021342"/>
<stop offset="0.466667" stop-color="#5B65B4"/>
<stop offset="1" stop-color="#1E8D9D"/>
</linearGradient>
<radialGradient id="paint10_radial_69_961" cx="0" cy="0" r="1" gradientUnits="userSpaceOnUse" gradientTransform="translate(199.129 119.564) rotate(24.8788) scale(37.6228 63.6629)">
<stop stop-color="#9091BF"/>
<stop offset="1" stop-color="#0085FF"/>
</radialGradient>
<linearGradient id="paint11_linear_69_961" x1="178.009" y1="77.1987" x2="126.562" y2="70.8239" gradientUnits="userSpaceOnUse">
<stop stop-color="#021342"/>
<stop offset="0.466667" stop-color="#5B65B4"/>
<stop offset="1" stop-color="#1E8D9D"/>
</linearGradient>
<radialGradient id="paint12_radial_69_961" cx="0" cy="0" r="1" gradientUnits="userSpaceOnUse" gradientTransform="translate(155.771 75.742) rotate(16.232) scale(26.0563 31.0049)">
<stop stop-color="#9091BF"/>
<stop offset="1" stop-color="#0085FF"/>
</radialGradient>
<linearGradient id="paint13_linear_69_961" x1="264.958" y1="80.1096" x2="213.475" y2="72.971" gradientUnits="userSpaceOnUse">
<stop stop-color="#021342"/>
<stop offset="0.466667" stop-color="#5B65B4"/>
<stop offset="1" stop-color="#1E8D9D"/>
</linearGradient>
<radialGradient id="paint14_radial_69_961" cx="0" cy="0" r="1" gradientUnits="userSpaceOnUse" gradientTransform="translate(242.619 78.802) rotate(14.5829) scale(25.967 28.0532)">
<stop stop-color="#9091BF"/>
<stop offset="1" stop-color="#0085FF"/>
</radialGradient>
<linearGradient id="paint15_linear_69_961" x1="91.7173" y1="323.044" x2="42.445" y2="276.592" gradientUnits="userSpaceOnUse">
<stop stop-color="#021342"/>
<stop offset="0.466667" stop-color="#5B65B4"/>
<stop offset="1" stop-color="#1E8D9D"/>
</linearGradient>
<radialGradient id="paint16_radial_69_961" cx="0" cy="0" r="1" gradientUnits="userSpaceOnUse" gradientTransform="translate(52.0986 322.702) rotate(2.19133) scale(44.6037 7.556)">
<stop stop-color="#9091BF"/>
<stop offset="1" stop-color="#0085FF"/>
</radialGradient>
<radialGradient id="paint17_diamond_69_961" cx="0" cy="0" r="1" gradientUnits="userSpaceOnUse" gradientTransform="translate(41.5117 322.21) rotate(90) scale(4.97781 41.3158)">
<stop stop-color="#FF1515"/>
<stop offset="1" stop-color="#15F754"/>
</radialGradient>
<clipPath id="clip0_69_961">
<rect width="366" height="305.825" fill="white" transform="translate(0.195801 21.3633)"/>
</clipPath>
</defs>
</svg>
