<svg width="367" height="349" viewBox="0 0 367 349" fill="none" xmlns="http://www.w3.org/2000/svg">
<rect x="0.45874" y="0.169189" width="366" height="348.213" fill="url(#paint0_linear_69_1079)"/>
<g clip-path="url(#clip0_69_1079)">
<g filter="url(#filter0_f_69_1079)">
<path d="M251.581 113.75C251.568 120.914 249.432 127.913 245.441 133.862C241.45 139.812 235.785 144.444 229.162 147.174C222.539 149.904 215.254 150.608 208.231 149.198C201.207 147.788 194.759 144.327 189.703 139.252C184.646 134.178 181.208 127.718 179.823 120.689C178.438 113.66 179.168 106.379 181.921 99.7651C184.674 93.1514 189.327 87.5027 195.29 83.5333C201.254 79.5639 208.261 77.452 215.424 77.4647C220.184 77.4607 224.898 78.3976 229.295 80.2212C233.692 82.0449 237.685 84.7196 241.045 88.0914C244.405 91.4633 247.066 95.4659 248.874 99.8692C250.682 104.273 251.602 108.99 251.581 113.75Z" fill="url(#paint1_linear_69_1079)"/>
<path d="M251.581 113.75C251.568 120.914 249.432 127.913 245.441 133.862C241.45 139.812 235.785 144.444 229.162 147.174C222.539 149.904 215.254 150.608 208.231 149.198C201.207 147.788 194.759 144.327 189.703 139.252C184.646 134.178 181.208 127.718 179.823 120.689C178.438 113.66 179.168 106.379 181.921 99.7651C184.674 93.1514 189.327 87.5027 195.29 83.5333C201.254 79.5639 208.261 77.452 215.424 77.4647C220.184 77.4607 224.898 78.3976 229.295 80.2212C233.692 82.0449 237.685 84.7196 241.045 88.0914C244.405 91.4633 247.066 95.4659 248.874 99.8692C250.682 104.273 251.602 108.99 251.581 113.75Z" fill="url(#paint2_radial_69_1079)"/>
<path d="M251.581 113.75C251.568 120.914 249.432 127.913 245.441 133.862C241.45 139.812 235.785 144.444 229.162 147.174C222.539 149.904 215.254 150.608 208.231 149.198C201.207 147.788 194.759 144.327 189.703 139.252C184.646 134.178 181.208 127.718 179.823 120.689C178.438 113.66 179.168 106.379 181.921 99.7651C184.674 93.1514 189.327 87.5027 195.29 83.5333C201.254 79.5639 208.261 77.452 215.424 77.4647C220.184 77.4607 224.898 78.3976 229.295 80.2212C233.692 82.0449 237.685 84.7196 241.045 88.0914C244.405 91.4633 247.066 95.4659 248.874 99.8692C250.682 104.273 251.602 108.99 251.581 113.75Z" fill="url(#paint3_diamond_69_1079)" fill-opacity="0.35"/>
</g>
<path d="M311.864 134.864L316.957 125.139C312.39 119.624 297.406 112.936 297.406 112.936L277.126 94.477C276.91 93.6534 276.481 92.9013 275.882 92.2963C275.283 91.6913 274.535 91.2548 273.714 91.0307C272.892 90.8067 272.027 90.8029 271.203 91.0198C270.38 91.2368 269.628 91.6668 269.024 92.2666C268.42 92.8663 267.984 93.6147 267.761 94.4363C267.538 95.258 267.535 96.1239 267.753 96.9469C267.971 97.7699 268.402 98.521 269.003 99.1246C269.603 99.7281 270.352 100.163 271.174 100.385L293.083 126.662L311.864 134.864Z" fill="#9E616A"/>
<g filter="url(#filter1_d_69_1079)">
<path d="M311.084 126.837C310.131 130.994 312.524 135.188 316.588 136.482C321.818 138.147 327.453 138.022 332.603 136.126L-nan -nanL332.603 136.126C334.161 135.546 335.525 134.542 336.542 133.227C337.56 131.912 338.189 130.339 338.359 128.685L-nan -nanL338.359 128.685C338.574 126.442 337.929 124.201 336.556 122.415C335.182 120.628 333.181 119.431 330.957 119.063C324.213 117.955 315.524 117.409 312.424 121.098C312.403 121.122 312.389 121.151 312.382 121.183L311.084 126.837Z" fill="url(#paint4_linear_69_1079)"/>
<path d="M311.084 126.837C310.131 130.994 312.524 135.188 316.588 136.482C321.818 138.147 327.453 138.022 332.603 136.126L-nan -nanL332.603 136.126C334.161 135.546 335.525 134.542 336.542 133.227C337.56 131.912 338.189 130.339 338.359 128.685L-nan -nanL338.359 128.685C338.574 126.442 337.929 124.201 336.556 122.415C335.182 120.628 333.181 119.431 330.957 119.063C324.213 117.955 315.524 117.409 312.424 121.098C312.403 121.122 312.389 121.151 312.382 121.183L311.084 126.837Z" fill="url(#paint5_radial_69_1079)" fill-opacity="0.2"/>
</g>
<path d="M257.672 163.963C277.676 163.963 293.893 147.747 293.893 127.742C293.893 107.738 277.676 91.5214 257.672 91.5214C237.668 91.5214 221.451 107.738 221.451 127.742C221.451 147.747 237.668 163.963 257.672 163.963Z" fill="white"/>
<path d="M242.89 113.575C242.392 116.246 241.577 118.847 240.461 121.324C234.072 134.841 252.268 130.435 258.77 130.435C265.88 130.435 272.682 134.174 271.644 117.562C271.2 110.466 265.88 104.689 258.77 104.689C252.698 104.689 244.159 107.388 242.89 113.575Z" fill="#2F2E41"/>
<path d="M257.705 130.432C263.483 130.432 268.166 125.749 268.166 119.971C268.166 114.194 263.483 109.51 257.705 109.51C251.928 109.51 247.244 114.194 247.244 119.971C247.244 125.749 251.928 130.432 257.705 130.432Z" fill="#FFB6B6"/>
<path d="M250.601 109.308C252.434 108.19 254.534 107.586 256.68 107.557C258.827 107.529 260.942 108.078 262.804 109.147C264.666 110.216 266.206 111.765 267.264 113.633C268.323 115.501 268.859 117.619 268.819 119.765C263.489 121.104 257.889 122.128 252.204 120.085L250.862 116.8L250.07 120.088C248.339 120.796 246.604 121.394 244.868 120.081C244.797 117.941 245.289 115.819 246.295 113.929C247.302 112.038 248.786 110.445 250.601 109.308Z" fill="#2F2E41"/>
<g filter="url(#filter2_d_69_1079)">
<path d="M284.012 146.744C285.137 149.88 284.529 153.455 281.982 155.603C276.17 160.505 268.922 163.484 261.248 164.038C254.083 164.556 246.981 162.929 240.816 159.443C237.195 157.396 236.088 152.899 237.491 148.984L238.267 146.82C238.969 145.281 240.077 143.961 241.472 143.003C242.867 142.045 244.496 141.485 246.185 141.383C247.467 141.304 248.688 140.807 249.661 139.968L252.373 137.629C252.698 137.349 253.101 137.189 253.53 137.173C254.558 137.135 256.656 137.055 258.806 136.96C259.997 136.908 270.021 139.315 271.043 139.93L273.059 141.142C273.065 141.146 273.074 141.14 273.072 141.133C273.071 141.127 273.076 141.121 273.082 141.122L276.094 141.306C277.783 141.408 279.413 141.968 280.808 142.926C282.203 143.884 283.311 145.204 284.012 146.744Z" fill="url(#paint6_linear_69_1079)"/>
<path d="M284.012 146.744C285.137 149.88 284.529 153.455 281.982 155.603C276.17 160.505 268.922 163.484 261.248 164.038C254.083 164.556 246.981 162.929 240.816 159.443C237.195 157.396 236.088 152.899 237.491 148.984L238.267 146.82C238.969 145.281 240.077 143.961 241.472 143.003C242.867 142.045 244.496 141.485 246.185 141.383C247.467 141.304 248.688 140.807 249.661 139.968L252.373 137.629C252.698 137.349 253.101 137.189 253.53 137.173C254.558 137.135 256.656 137.055 258.806 136.96C259.997 136.908 270.021 139.315 271.043 139.93L273.059 141.142C273.065 141.146 273.074 141.14 273.072 141.133C273.071 141.127 273.076 141.121 273.082 141.122L276.094 141.306C277.783 141.408 279.413 141.968 280.808 142.926C282.203 143.884 283.311 145.204 284.012 146.744Z" fill="url(#paint7_radial_69_1079)" fill-opacity="0.2"/>
</g>
<path d="M254.494 301.078L253.594 288.56C247.698 285.613 241.172 284.15 234.583 284.297C243.853 291.463 243.111 305.785 249.531 315.587C251.557 318.628 254.242 321.175 257.386 323.038C260.529 324.902 264.052 326.033 267.693 326.35L275.409 330.789C276.291 324.955 275.899 319 274.258 313.333C272.618 307.666 269.768 302.422 265.906 297.963C263.714 295.482 261.219 293.288 258.479 291.431C256.792 296.273 254.494 301.078 254.494 301.078Z" fill="url(#paint8_linear_69_1079)"/>
<path d="M254.494 301.078L253.594 288.56C247.698 285.613 241.172 284.15 234.583 284.297C243.853 291.463 243.111 305.785 249.531 315.587C251.557 318.628 254.242 321.175 257.386 323.038C260.529 324.902 264.052 326.033 267.693 326.35L275.409 330.789C276.291 324.955 275.899 319 274.258 313.333C272.618 307.666 269.768 302.422 265.906 297.963C263.714 295.482 261.219 293.288 258.479 291.431C256.792 296.273 254.494 301.078 254.494 301.078Z" fill="url(#paint9_radial_69_1079)"/>
<path d="M254.494 301.078L253.594 288.56C247.698 285.613 241.172 284.15 234.583 284.297C243.853 291.463 243.111 305.785 249.531 315.587C251.557 318.628 254.242 321.175 257.386 323.038C260.529 324.902 264.052 326.033 267.693 326.35L275.409 330.789C276.291 324.955 275.899 319 274.258 313.333C272.618 307.666 269.768 302.422 265.906 297.963C263.714 295.482 261.219 293.288 258.479 291.431C256.792 296.273 254.494 301.078 254.494 301.078Z" fill="url(#paint10_diamond_69_1079)" fill-opacity="0.35"/>
<path d="M19.9111 79.2002L19.0111 66.6822C13.1155 63.7351 6.58957 62.2716 0 62.4189C9.27063 69.5848 8.52807 83.9069 14.9485 93.7086C16.9744 96.7503 19.6588 99.2971 22.8027 101.16C25.9467 103.024 29.4697 104.155 33.1106 104.472L40.826 108.911C41.7085 103.077 41.316 97.1221 39.6754 91.4551C38.0348 85.7881 35.1851 80.5442 31.3228 76.0846C29.1312 73.6042 26.636 71.4097 23.896 69.5528C22.2096 74.3947 19.9111 79.2002 19.9111 79.2002Z" fill="url(#paint11_linear_69_1079)"/>
<path d="M19.9111 79.2002L19.0111 66.6822C13.1155 63.7351 6.58957 62.2716 0 62.4189C9.27063 69.5848 8.52807 83.9069 14.9485 93.7086C16.9744 96.7503 19.6588 99.2971 22.8027 101.16C25.9467 103.024 29.4697 104.155 33.1106 104.472L40.826 108.911C41.7085 103.077 41.316 97.1221 39.6754 91.4551C38.0348 85.7881 35.1851 80.5442 31.3228 76.0846C29.1312 73.6042 26.636 71.4097 23.896 69.5528C22.2096 74.3947 19.9111 79.2002 19.9111 79.2002Z" fill="url(#paint12_radial_69_1079)"/>
<path d="M19.9111 79.2002L19.0111 66.6822C13.1155 63.7351 6.58957 62.2716 0 62.4189C9.27063 69.5848 8.52807 83.9069 14.9485 93.7086C16.9744 96.7503 19.6588 99.2971 22.8027 101.16C25.9467 103.024 29.4697 104.155 33.1106 104.472L40.826 108.911C41.7085 103.077 41.316 97.1221 39.6754 91.4551C38.0348 85.7881 35.1851 80.5442 31.3228 76.0846C29.1312 73.6042 26.636 71.4097 23.896 69.5528C22.2096 74.3947 19.9111 79.2002 19.9111 79.2002Z" fill="url(#paint13_diamond_69_1079)" fill-opacity="0.35"/>
<path d="M288.246 326.557L282.227 326.556L279.364 303.343H288.247L288.246 326.557Z" fill="#9E616A"/>
<path d="M289.78 332.39L270.375 332.39V332.144C270.375 330.141 271.171 328.22 272.587 326.804C274.004 325.387 275.925 324.591 277.928 324.591H277.929L281.473 321.902L288.087 324.592L289.781 324.592L289.78 332.39Z" fill="#2F2E41"/>
<path d="M341.286 326.557L335.268 326.556L332.405 303.343H341.288L341.286 326.557Z" fill="#9E616A"/>
<path d="M342.821 332.39L323.416 332.39V332.144C323.416 330.141 324.212 328.22 325.628 326.804C327.045 325.387 328.966 324.591 330.969 324.591H330.97L334.514 321.902L341.128 324.592L342.822 324.592L342.821 332.39Z" fill="#2F2E41"/>
<path d="M332.133 202.318L337.195 250.405C337.195 250.405 343.934 298.555 342.668 305.198C341.403 311.842 342.984 312.791 342.984 312.791L331.438 311.969C331.438 311.969 331.754 307.856 329.856 305.958C327.958 304.06 328.907 298.365 328.907 298.365L306.508 220.034L292.904 261.162C292.904 261.162 290.689 306.402 290.373 307.035C290.057 307.668 289.107 316.209 289.107 316.209H277.402C277.402 316.209 278.984 311.148 276.769 309.566C274.555 307.984 272.656 309.249 274.555 306.402C276.453 303.555 277.086 300.075 276.453 298.493C275.82 296.911 275.82 290.584 275.82 290.584C275.82 290.584 276.769 205.165 282.147 202.318C287.526 199.471 332.133 202.318 332.133 202.318Z" fill="#2F2E41"/>
<path d="M308.161 104.953C315.037 104.953 320.611 99.3789 320.611 92.503C320.611 85.627 315.037 80.053 308.161 80.053C301.285 80.053 295.711 85.627 295.711 92.503C295.711 99.3789 301.285 104.953 308.161 104.953Z" fill="#9E616A"/>
<g filter="url(#filter3_d_69_1079)">
<path d="M336.684 199.818C336.65 204.377 333.318 208.256 328.78 208.691C314.637 210.046 299.325 207.883 289.791 206.059C284.501 205.047 281.332 199.818 282.543 194.569L288.551 168.527C288.78 167.535 288.856 166.513 288.776 165.498L285.866 128.364C285.496 123.635 288.189 119.203 292.379 117.632L295.315 116.532C297.171 115.837 298.772 114.595 299.906 112.971C301.802 110.257 304.942 108.685 308.252 108.793L311.849 108.911C314.858 109.01 317.663 110.459 319.484 112.856L320.734 114.502C321.611 115.657 322.729 116.607 324.01 117.286L326.375 118.541L335.716 123.495L335.739 123.507C335.75 123.512 335.757 123.524 335.757 123.536L332.826 151.973L331.252 167.235C331.124 168.48 331.23 169.736 331.554 170.945C332.858 175.815 336.219 188.886 335.326 190.96C334.224 193.514 335.182 192.28 335.449 193.645C335.716 195.01 336.535 195.097 336.658 197.786C336.683 198.319 336.69 199.027 336.684 199.818Z" fill="url(#paint14_linear_69_1079)"/>
<path d="M336.684 199.818C336.65 204.377 333.318 208.256 328.78 208.691C314.637 210.046 299.325 207.883 289.791 206.059C284.501 205.047 281.332 199.818 282.543 194.569L288.551 168.527C288.78 167.535 288.856 166.513 288.776 165.498L285.866 128.364C285.496 123.635 288.189 119.203 292.379 117.632L295.315 116.532C297.171 115.837 298.772 114.595 299.906 112.971C301.802 110.257 304.942 108.685 308.252 108.793L311.849 108.911C314.858 109.01 317.663 110.459 319.484 112.856L320.734 114.502C321.611 115.657 322.729 116.607 324.01 117.286L326.375 118.541L335.716 123.495L335.739 123.507C335.75 123.512 335.757 123.524 335.757 123.536L332.826 151.973L331.252 167.235C331.124 168.48 331.23 169.736 331.554 170.945C332.858 175.815 336.219 188.886 335.326 190.96C334.224 193.514 335.182 192.28 335.449 193.645C335.716 195.01 336.535 195.097 336.658 197.786C336.683 198.319 336.69 199.027 336.684 199.818Z" fill="url(#paint15_radial_69_1079)" fill-opacity="0.2"/>
</g>
<path d="M365.583 332.804H179.336C179.226 332.804 179.12 332.76 179.042 332.681C178.964 332.603 178.92 332.497 178.92 332.387C178.92 332.276 178.964 332.171 179.042 332.092C179.12 332.014 179.226 331.97 179.336 331.97H365.583C365.693 331.97 365.8 332.014 365.878 332.092C365.956 332.17 366 332.276 366 332.387C366 332.497 365.956 332.604 365.878 332.682C365.8 332.76 365.693 332.804 365.583 332.804Z" fill="#CCCCCC"/>
<path d="M307.556 104.355C309.739 104.332 311.917 104.124 314.065 103.731C316.192 103.241 320.884 99.6127 322.162 97.4694C323.112 95.8769 323.683 93.4137 323.994 91.6279C324.414 89.2645 324.333 86.8392 323.756 84.509C323.179 82.1789 322.12 79.9959 320.646 78.1013C320.077 77.3076 319.305 76.6823 318.411 76.2914C318.331 76.2628 318.25 76.2378 318.168 76.2166C316.872 75.9111 315.696 75.2249 314.792 74.2463C314.617 74.0482 314.427 73.863 314.225 73.6921C313.211 72.8803 312.02 72.32 310.748 72.057C308.693 71.5635 305.754 72.1819 302.012 73.8965C300.132 74.7579 298.045 74.5176 296.437 74.212C296.347 74.197 296.254 74.2058 296.169 74.2377C296.083 74.2695 296.007 74.3233 295.949 74.3935C295.285 75.0499 294.397 75.4306 293.464 75.4592C292.893 75.499 292.314 76.306 291.615 77.3569C291.457 77.5954 291.272 77.8738 291.138 78.0437L291.111 77.7247L290.797 78.0895C290.303 78.6628 289.962 79.3518 289.807 80.0923C289.651 80.8328 289.685 81.6007 289.906 82.3244C290.126 83.0482 290.527 83.7043 291.07 84.2317C291.612 84.759 292.28 85.1405 293.009 85.3405C293.588 85.4786 294.18 85.5573 294.775 85.5753C295.135 85.5984 295.509 85.6223 295.867 85.6749C297.018 85.8798 298.096 86.3796 298.996 87.1256C299.896 87.8716 300.587 88.8382 301.002 89.9311C301.1 90.1836 301.255 90.4103 301.455 90.5936C301.654 90.7768 301.893 90.9118 302.153 90.9881C302.413 91.0644 302.687 91.0799 302.954 91.0334C303.221 90.987 303.473 90.8799 303.692 90.7203C304.056 90.4213 304.487 90.2149 304.949 90.1185C305.41 90.0222 305.887 90.0388 306.341 90.167C306.735 90.3731 307.046 90.7085 307.223 91.1169C307.436 91.5714 307.78 91.9522 308.21 92.2105C309.678 92.92 309.863 96.2263 309.414 98.9981C308.982 101.67 308.04 103.619 307.124 103.738C306.42 103.829 306.34 103.881 306.292 104.008L306.249 104.121L306.331 104.223C306.725 104.355 307.143 104.399 307.556 104.355Z" fill="#2F2E41"/>
<path d="M257.672 164.417C250.418 164.417 243.328 162.266 237.297 158.236C231.266 154.206 226.565 148.478 223.789 141.777C221.013 135.076 220.287 127.702 221.702 120.587C223.117 113.473 226.61 106.938 231.739 101.809C236.868 96.6804 243.403 93.1874 250.517 91.7723C257.631 90.3572 265.005 91.0835 271.707 93.8593C278.408 96.6351 284.136 101.336 288.166 107.367C292.196 113.398 294.347 120.489 294.347 127.742C294.336 137.466 290.468 146.788 283.593 153.663C276.717 160.538 267.395 164.406 257.672 164.417ZM257.672 91.9751C250.598 91.9751 243.683 94.0728 237.801 98.003C231.919 101.933 227.335 107.519 224.627 114.055C221.92 120.59 221.212 127.782 222.592 134.72C223.972 141.658 227.379 148.031 232.381 153.033C237.383 158.036 243.756 161.442 250.694 162.822C257.632 164.202 264.824 163.494 271.359 160.787C277.895 158.08 283.481 153.495 287.411 147.613C291.341 141.732 293.439 134.816 293.439 127.742C293.428 118.26 289.657 109.168 282.951 102.463C276.246 95.7576 267.155 91.9859 257.672 91.9751Z" fill="#3F3D56"/>
<path d="M131.079 88.6426C151.083 88.6426 167.3 72.4259 167.3 52.4216C167.3 32.4173 151.083 16.2007 131.079 16.2007C111.075 16.2007 94.8579 32.4173 94.8579 52.4216C94.8579 72.4259 111.075 88.6426 131.079 88.6426Z" fill="white"/>
<path d="M132.755 56.1164C139.278 56.1164 144.566 50.8284 144.566 44.3054C144.566 37.7824 139.278 32.4944 132.755 32.4944C126.232 32.4944 120.944 37.7824 120.944 44.3054C120.944 50.8284 126.232 56.1164 132.755 56.1164Z" fill="#FFB8B8"/>
<path d="M143.154 36.5028C143.154 36.5028 146.23 30.624 139.464 30.0895C139.464 30.0895 133.697 24.8576 127.818 29.1331C127.818 29.1331 124.611 29.1331 122.858 32.7617C122.858 32.7617 120.336 31.8053 119.781 34.365C119.781 34.365 117.936 39.7094 119.781 44.5194C121.627 49.3293 122.24 49.8637 122.24 49.8637C122.24 49.8637 120.945 43.8949 128.326 43.3604C135.707 42.826 142.479 38.202 143.094 44.0808C143.709 49.9596 144.385 47.3039 144.385 47.3039C144.385 47.3039 150.228 38.9078 143.154 36.5028Z" fill="#2F2E41"/>
<g filter="url(#filter4_d_69_1079)">
<path d="M156.495 71.4231C157.62 74.5596 157.012 78.1341 154.465 80.2824C148.653 85.184 141.405 88.1631 133.731 88.7177C126.566 89.2355 119.464 87.6083 113.299 84.1221C109.678 82.0751 108.571 77.5781 109.975 73.663L110.75 71.4997C111.452 69.96 112.56 68.6404 113.955 67.6825C115.35 66.7245 116.979 66.1644 118.668 66.0621C119.951 65.9834 121.172 65.4864 122.144 64.6475L124.856 62.3086C125.181 62.0287 125.585 61.868 126.013 61.8521C127.041 61.814 129.14 61.734 131.289 61.6397C132.481 61.5874 142.504 63.9945 143.526 64.6092L145.542 65.8215C145.549 65.8256 145.557 65.8197 145.555 65.8119C145.554 65.806 145.559 65.8006 145.565 65.801L148.577 65.9854C150.266 66.0873 151.896 66.6473 153.291 67.6053C154.686 68.5633 155.794 69.8831 156.495 71.4231Z" fill="url(#paint16_linear_69_1079)"/>
<path d="M156.495 71.4231C157.62 74.5596 157.012 78.1341 154.465 80.2824C148.653 85.184 141.405 88.1631 133.731 88.7177C126.566 89.2355 119.464 87.6083 113.299 84.1221C109.678 82.0751 108.571 77.5781 109.975 73.663L110.75 71.4997C111.452 69.96 112.56 68.6404 113.955 67.6825C115.35 66.7245 116.979 66.1644 118.668 66.0621C119.951 65.9834 121.172 65.4864 122.144 64.6475L124.856 62.3086C125.181 62.0287 125.585 61.868 126.013 61.8521C127.041 61.814 129.14 61.734 131.289 61.6397C132.481 61.5874 142.504 63.9945 143.526 64.6092L145.542 65.8215C145.549 65.8256 145.557 65.8197 145.555 65.8119C145.554 65.806 145.559 65.8006 145.565 65.801L148.577 65.9854C150.266 66.0873 151.896 66.6473 153.291 67.6053C154.686 68.5633 155.794 69.8831 156.495 71.4231Z" fill="url(#paint17_radial_69_1079)" fill-opacity="0.2"/>
</g>
<path d="M131.079 89.0963C123.825 89.0963 116.735 86.9454 110.704 82.9155C104.673 78.8857 99.9718 73.1579 97.196 66.4565C94.4202 59.7551 93.6939 52.381 95.109 45.2668C96.5241 38.1527 100.017 31.6179 105.146 26.4888C110.275 21.3598 116.81 17.8669 123.924 16.4518C131.038 15.0367 138.412 15.763 145.114 18.5388C151.815 21.3146 157.543 26.0153 161.573 32.0464C165.603 38.0775 167.754 45.1682 167.754 52.4217C167.743 62.145 163.875 71.467 157 78.3424C150.124 85.2178 140.802 89.0853 131.079 89.0963ZM131.079 16.6546C124.005 16.6546 117.09 18.7523 111.208 22.6824C105.326 26.6126 100.742 32.1986 98.0344 38.7342C95.3273 45.2698 94.619 52.4614 95.999 59.3995C97.3791 66.3377 100.786 72.7108 105.788 77.7129C110.79 82.715 117.163 86.1215 124.101 87.5016C131.039 88.8817 138.231 88.1734 144.766 85.4662C151.302 82.7591 156.888 78.1747 160.818 72.2929C164.748 66.411 166.846 59.4958 166.846 52.4217C166.835 42.939 163.064 33.8477 156.358 27.1424C149.653 20.4371 140.562 16.6653 131.079 16.6546Z" fill="#3F3D56"/>
<path d="M46.5366 145.814C66.5409 145.814 82.7576 129.597 82.7576 109.593C82.7576 89.5885 66.5409 73.3718 46.5366 73.3718C26.5323 73.3718 10.3157 89.5885 10.3157 109.593C10.3157 129.597 26.5323 145.814 46.5366 145.814Z" fill="white"/>
<path d="M29.7485 97.8101C31.2463 93.0369 34.6521 88.6591 39.3624 87.0455C44.0729 85.4319 50.9703 87.8899 54.5115 91.4192C60.9891 97.8749 62.5699 120.053 58.1195 127.061C57.2343 127.014 54.1798 126.98 53.2839 126.946L52.0165 122.722V126.904C50.5892 126.86 49.1507 126.83 47.701 126.813C42.8405 126.753 38.1927 124.81 34.7347 121.394C31.2767 117.978 29.2778 113.355 29.1582 108.495C29.0422 103.846 29.1583 99.6911 29.7485 97.8101Z" fill="#2F2E41"/>
<path d="M45.9995 113.63C51.7006 113.63 56.3222 109.008 56.3222 103.307C56.3222 97.6058 51.7006 92.9841 45.9995 92.9841C40.2984 92.9841 35.6768 97.6058 35.6768 103.307C35.6768 109.008 40.2984 113.63 45.9995 113.63Z" fill="#9E616A"/>
<path d="M37.0906 94.241L48.9762 88.2896C51.4061 89.3845 53.4989 91.1097 55.0374 93.286C56.576 95.4624 57.5042 98.0107 57.7259 100.667L58.0222 104.215L53.0451 102.948L52.4998 98.4108L51.6546 102.594L49.3577 102.01L49.3796 94.9655L47.0812 102.005L38.8777 100.12L37.0906 94.241Z" fill="#2F2E41"/>
<g filter="url(#filter5_d_69_1079)">
<path d="M71.5918 128.479C72.7168 131.616 72.1085 135.19 69.5612 137.338C63.7495 142.24 56.5013 145.219 48.8274 145.774C41.6623 146.291 34.5606 144.664 28.3951 141.178C24.7749 139.131 23.6679 134.634 25.071 130.719L25.8463 128.556C26.5483 127.016 27.6563 125.696 29.0512 124.738C30.4462 123.78 32.0757 123.22 33.7648 123.118C35.047 123.039 36.268 122.542 37.2407 121.703L39.9526 119.365C40.2771 119.085 40.681 118.924 41.1094 118.908C42.1376 118.87 44.2354 118.79 46.3846 118.696C47.5762 118.643 57.6015 121.051 58.6235 121.666L60.6382 122.877C60.645 122.881 60.6534 122.876 60.6519 122.868C60.6507 122.862 60.6554 122.857 60.6614 122.857L63.6732 123.041C65.3625 123.143 66.9921 123.703 68.3872 124.661C69.7822 125.619 70.8901 126.939 71.5918 128.479Z" fill="url(#paint18_linear_69_1079)"/>
<path d="M71.5918 128.479C72.7168 131.616 72.1085 135.19 69.5612 137.338C63.7495 142.24 56.5013 145.219 48.8274 145.774C41.6623 146.291 34.5606 144.664 28.3951 141.178C24.7749 139.131 23.6679 134.634 25.071 130.719L25.8463 128.556C26.5483 127.016 27.6563 125.696 29.0512 124.738C30.4462 123.78 32.0757 123.22 33.7648 123.118C35.047 123.039 36.268 122.542 37.2407 121.703L39.9526 119.365C40.2771 119.085 40.681 118.924 41.1094 118.908C42.1376 118.87 44.2354 118.79 46.3846 118.696C47.5762 118.643 57.6015 121.051 58.6235 121.666L60.6382 122.877C60.645 122.881 60.6534 122.876 60.6519 122.868C60.6507 122.862 60.6554 122.857 60.6614 122.857L63.6732 123.041C65.3625 123.143 66.9921 123.703 68.3872 124.661C69.7822 125.619 70.8901 126.939 71.5918 128.479Z" fill="url(#paint19_radial_69_1079)" fill-opacity="0.2"/>
</g>
<path d="M46.5369 146.267C39.2834 146.267 32.1927 144.116 26.1616 140.086C20.1305 136.057 15.4298 130.329 12.654 123.627C9.87819 116.926 9.15192 109.552 10.567 102.438C11.9821 95.3236 15.475 88.7888 20.6041 83.6597C25.7331 78.5307 32.2679 75.0378 39.3821 73.6227C46.4963 72.2076 53.8703 72.9339 60.5717 75.7097C67.2731 78.4855 73.0009 83.1862 77.0308 89.2173C81.0606 95.2484 83.2116 102.339 83.2116 109.593C83.2005 119.316 79.3331 128.638 72.4576 135.513C65.5822 142.389 56.2603 146.256 46.5369 146.267ZM46.5369 73.8255C39.4629 73.8255 32.5477 75.9232 26.6658 79.8533C20.7839 83.7835 16.1995 89.3695 13.4924 95.9051C10.7853 102.441 10.077 109.632 11.4571 116.57C12.8371 123.509 16.2436 129.882 21.2457 134.884C26.2479 139.886 32.621 143.292 39.5591 144.672C46.4973 146.053 53.6888 145.344 60.2244 142.637C66.76 139.93 72.3461 135.346 76.2762 129.464C80.2064 123.582 82.3041 116.667 82.3041 109.593C82.2933 100.11 78.5216 91.0186 71.8163 84.3133C65.1109 77.608 56.0197 73.8362 46.5369 73.8255V73.8255Z" fill="#3F3D56"/>
<path d="M291.125 146.533L285.641 137.024C278.538 137.926 264.863 146.996 264.863 146.996L238.413 154.233C237.602 153.974 236.737 153.934 235.905 154.115C235.073 154.297 234.304 154.695 233.675 155.268C233.046 155.842 232.579 156.571 232.321 157.383C232.063 158.194 232.023 159.059 232.206 159.891C232.389 160.722 232.788 161.491 233.362 162.119C233.936 162.748 234.666 163.214 235.478 163.471C236.289 163.728 237.154 163.766 237.986 163.582C238.817 163.399 239.585 162.999 240.213 162.424L274.138 157.999L291.125 146.533Z" fill="#9E616A"/>
<g filter="url(#filter6_d_69_1079)">
<path d="M282.763 141.713C286.422 145.411 292.305 145.687 296.293 142.346L298.883 140.177C300.588 138.749 301.768 136.794 302.237 134.62L303.3 129.697C303.644 128.071 303.527 126.38 302.962 124.817C302.396 123.254 301.405 121.88 300.1 120.851L-nan -nanL300.1 120.851C298.321 119.467 296.083 118.811 293.839 119.014C291.594 119.218 289.511 120.266 288.01 121.947C283.462 127.048 278.345 134.092 279.8 138.686C279.81 138.717 279.827 138.745 279.849 138.768L282.763 141.713Z" fill="url(#paint20_linear_69_1079)"/>
<path d="M282.763 141.713C286.422 145.411 292.305 145.687 296.293 142.346L298.883 140.177C300.588 138.749 301.768 136.794 302.237 134.62L303.3 129.697C303.644 128.071 303.527 126.38 302.962 124.817C302.396 123.254 301.405 121.88 300.1 120.851L-nan -nanL300.1 120.851C298.321 119.467 296.083 118.811 293.839 119.014C291.594 119.218 289.511 120.266 288.01 121.947C283.462 127.048 278.345 134.092 279.8 138.686C279.81 138.717 279.827 138.745 279.849 138.768L282.763 141.713Z" fill="url(#paint21_radial_69_1079)" fill-opacity="0.2"/>
</g>
<path d="M101.069 183.98H54.9393C53.703 183.978 52.5178 183.487 51.6436 182.612C50.7695 181.738 50.2778 180.553 50.2764 179.317V150.905C50.2778 149.669 50.7695 148.484 51.6436 147.61C52.5178 146.736 53.703 146.244 54.9393 146.242H101.069C102.305 146.244 103.49 146.736 104.364 147.61C105.239 148.484 105.73 149.669 105.732 150.905V179.317C105.73 180.553 105.239 181.738 104.364 182.612C103.49 183.487 102.305 183.978 101.069 183.98Z" fill="#E6E6E6"/>
<path d="M82.7408 180.32H58.1819C57.0241 180.319 55.914 179.858 55.0953 179.04C54.2766 178.221 53.816 177.111 53.8147 175.953V154.269C53.816 153.111 54.2766 152.001 55.0953 151.182C55.914 150.364 57.0241 149.903 58.1819 149.902H97.8262C98.984 149.903 100.094 150.364 100.913 151.182C101.731 152.001 102.192 153.111 102.193 154.269V160.868C102.187 166.025 100.136 170.969 96.4893 174.616C92.8425 178.263 87.8981 180.314 82.7408 180.32Z" fill="white"/>
<path d="M93.8713 161.776H62.1365C61.862 161.776 61.5988 161.666 61.4047 161.472C61.2106 161.278 61.1016 161.015 61.1016 160.741C61.1016 160.466 61.2106 160.203 61.4047 160.009C61.5988 159.815 61.862 159.706 62.1365 159.706H93.8713C94.1457 159.706 94.409 159.815 94.6031 160.009C94.7972 160.203 94.9062 160.466 94.9062 160.741C94.9062 161.015 94.7972 161.278 94.6031 161.472C94.409 161.666 94.1457 161.776 93.8713 161.776Z" fill="#6C63FF"/>
<path d="M67.1007 165.865H62.1366C61.8621 165.865 61.5988 165.756 61.4047 165.562C61.2106 165.368 61.1016 165.105 61.1016 164.83C61.1016 164.556 61.2106 164.293 61.4047 164.099C61.5988 163.904 61.8621 163.795 62.1366 163.795H67.1007C67.3752 163.795 67.6385 163.904 67.8326 164.099C68.0267 164.293 68.1357 164.556 68.1357 164.83C68.1357 165.105 68.0267 165.368 67.8326 165.562C67.6385 165.756 67.3752 165.865 67.1007 165.865Z" fill="#6C63FF"/>
<path d="M75.8929 169.955H62.1366C61.8625 169.955 61.5998 169.845 61.4062 169.651C61.2125 169.457 61.1038 169.194 61.1038 168.92C61.1038 168.646 61.2125 168.383 61.4062 168.189C61.5998 167.995 61.8625 167.886 62.1366 167.885H75.8929C76.167 167.886 76.4297 167.995 76.6233 168.189C76.817 168.383 76.9257 168.646 76.9257 168.92C76.9257 169.194 76.817 169.457 76.6233 169.651C76.4297 169.845 76.167 169.955 75.8929 169.955Z" fill="#6C63FF"/>
<path d="M48.6664 155.435C54.0557 155.435 58.4246 151.066 58.4246 145.676C58.4246 140.287 54.0557 135.918 48.6664 135.918C43.2771 135.918 38.9082 140.287 38.9082 145.676C38.9082 151.066 43.2771 155.435 48.6664 155.435Z" fill="#3F3D56"/>
<path d="M220.856 55.1179H174.726C173.49 55.1165 172.305 54.6248 171.431 53.7506C170.556 52.8765 170.065 51.6912 170.063 50.455V22.0436C170.065 20.8073 170.556 19.6221 171.431 18.7479C172.305 17.8737 173.49 17.382 174.726 17.3806H220.856C222.092 17.382 223.277 17.8737 224.151 18.7479C225.025 19.6221 225.517 20.8073 225.519 22.0436V50.4549C225.517 51.6912 225.025 52.8764 224.151 53.7506C223.277 54.6248 222.092 55.1165 220.856 55.1179Z" fill="#E6E6E6"/>
<path d="M202.528 51.4584H177.969C176.811 51.4571 175.701 50.9966 174.882 50.1779C174.063 49.3592 173.603 48.2492 173.602 47.0913V25.4072C173.603 24.2493 174.063 23.1393 174.882 22.3206C175.701 21.5019 176.811 21.0414 177.969 21.0402H217.613C218.771 21.0414 219.881 21.502 220.7 22.3206C221.518 23.1393 221.979 24.2494 221.98 25.4072V32.0061C221.974 37.1634 219.923 42.1078 216.276 45.7545C212.629 49.4013 207.685 51.4526 202.528 51.4584Z" fill="white"/>
<path d="M213.658 32.9138H181.924C181.649 32.9138 181.386 32.8048 181.192 32.6107C180.998 32.4166 180.889 32.1533 180.889 31.8788C180.889 31.6044 180.998 31.3411 181.192 31.147C181.386 30.9529 181.649 30.8439 181.924 30.8439H213.658C213.933 30.8439 214.196 30.9529 214.39 31.147C214.584 31.3411 214.693 31.6044 214.693 31.8788C214.693 32.1533 214.584 32.4166 214.39 32.6107C214.196 32.8048 213.933 32.9138 213.658 32.9138Z" fill="#6C63FF"/>
<path d="M186.888 37.0036H181.924C181.649 37.0036 181.386 36.8946 181.192 36.7005C180.998 36.5064 180.889 36.2431 180.889 35.9686C180.889 35.6941 180.998 35.4309 181.192 35.2367C181.386 35.0426 181.649 34.9336 181.924 34.9336H186.888C187.162 34.9336 187.426 35.0426 187.62 35.2367C187.814 35.4309 187.923 35.6941 187.923 35.9686C187.923 36.2431 187.814 36.5064 187.62 36.7005C187.426 36.8946 187.162 37.0036 186.888 37.0036Z" fill="#6C63FF"/>
<path d="M195.68 41.0932H181.923C181.649 41.0927 181.387 40.9834 181.193 40.7893C180.999 40.5953 180.891 40.3323 180.891 40.0582C180.891 39.7841 180.999 39.5212 181.193 39.3271C181.387 39.1331 181.649 39.0238 181.923 39.0232H195.68C195.954 39.0232 196.217 39.1322 196.412 39.3263C196.606 39.5205 196.715 39.7837 196.715 40.0582C196.715 40.3327 196.606 40.596 196.412 40.7901C196.217 40.9842 195.954 41.0932 195.68 41.0932Z" fill="#6C63FF"/>
<path d="M168.454 60.6033C173.843 60.6033 178.212 56.2344 178.212 50.8451C178.212 45.4558 173.843 41.0869 168.454 41.0869C163.064 41.0869 158.695 45.4558 158.695 50.8451C158.695 56.2344 163.064 60.6033 168.454 60.6033Z" fill="#3F3D56"/>
</g>
<defs>
<filter id="filter0_f_69_1079" x="169.139" y="67.4646" width="92.4421" height="92.4419" filterUnits="userSpaceOnUse" color-interpolation-filters="sRGB">
<feFlood flood-opacity="0" result="BackgroundImageFix"/>
<feBlend mode="normal" in="SourceGraphic" in2="BackgroundImageFix" result="shape"/>
<feGaussianBlur stdDeviation="5" result="effect1_foregroundBlur_69_1079"/>
</filter>
<filter id="filter1_d_69_1079" x="299.875" y="113.236" width="57.5239" height="49.4093" filterUnits="userSpaceOnUse" color-interpolation-filters="sRGB">
<feFlood flood-opacity="0" result="BackgroundImageFix"/>
<feColorMatrix in="SourceAlpha" type="matrix" values="0 0 0 0 0 0 0 0 0 0 0 0 0 0 0 0 0 0 127 0" result="hardAlpha"/>
<feOffset dx="4" dy="10"/>
<feGaussianBlur stdDeviation="7.5"/>
<feComposite in2="hardAlpha" operator="out"/>
<feColorMatrix type="matrix" values="0 0 0 0 0 0 0 0 0 0 0 0 0 0 0 0 0 0 0.1 0"/>
<feBlend mode="normal" in2="BackgroundImageFix" result="effect1_dropShadow_69_1079"/>
<feBlend mode="normal" in="SourceGraphic" in2="effect1_dropShadow_69_1079" result="shape"/>
</filter>
<filter id="filter2_d_69_1079" x="225.903" y="131.959" width="77.6497" height="57.1732" filterUnits="userSpaceOnUse" color-interpolation-filters="sRGB">
<feFlood flood-opacity="0" result="BackgroundImageFix"/>
<feColorMatrix in="SourceAlpha" type="matrix" values="0 0 0 0 0 0 0 0 0 0 0 0 0 0 0 0 0 0 127 0" result="hardAlpha"/>
<feOffset dx="4" dy="10"/>
<feGaussianBlur stdDeviation="7.5"/>
<feComposite in2="hardAlpha" operator="out"/>
<feColorMatrix type="matrix" values="0 0 0 0 0 0 0 0 0 0 0 0 0 0 0 0 0 0 0.1 0"/>
<feBlend mode="normal" in2="BackgroundImageFix" result="effect1_dropShadow_69_1079"/>
<feBlend mode="normal" in="SourceGraphic" in2="effect1_dropShadow_69_1079" result="shape"/>
</filter>
<filter id="filter3_d_69_1079" x="271.286" y="103.788" width="84.3999" height="130.328" filterUnits="userSpaceOnUse" color-interpolation-filters="sRGB">
<feFlood flood-opacity="0" result="BackgroundImageFix"/>
<feColorMatrix in="SourceAlpha" type="matrix" values="0 0 0 0 0 0 0 0 0 0 0 0 0 0 0 0 0 0 127 0" result="hardAlpha"/>
<feOffset dx="4" dy="10"/>
<feGaussianBlur stdDeviation="7.5"/>
<feComposite in2="hardAlpha" operator="out"/>
<feColorMatrix type="matrix" values="0 0 0 0 0 0 0 0 0 0 0 0 0 0 0 0 0 0 0.1 0"/>
<feBlend mode="normal" in2="BackgroundImageFix" result="effect1_dropShadow_69_1079"/>
<feBlend mode="normal" in="SourceGraphic" in2="effect1_dropShadow_69_1079" result="shape"/>
</filter>
<filter id="filter4_d_69_1079" x="98.3865" y="56.6388" width="77.6497" height="57.1732" filterUnits="userSpaceOnUse" color-interpolation-filters="sRGB">
<feFlood flood-opacity="0" result="BackgroundImageFix"/>
<feColorMatrix in="SourceAlpha" type="matrix" values="0 0 0 0 0 0 0 0 0 0 0 0 0 0 0 0 0 0 127 0" result="hardAlpha"/>
<feOffset dx="4" dy="10"/>
<feGaussianBlur stdDeviation="7.5"/>
<feComposite in2="hardAlpha" operator="out"/>
<feColorMatrix type="matrix" values="0 0 0 0 0 0 0 0 0 0 0 0 0 0 0 0 0 0 0.1 0"/>
<feBlend mode="normal" in2="BackgroundImageFix" result="effect1_dropShadow_69_1079"/>
<feBlend mode="normal" in="SourceGraphic" in2="effect1_dropShadow_69_1079" result="shape"/>
</filter>
<filter id="filter5_d_69_1079" x="13.4829" y="113.695" width="77.6497" height="57.1731" filterUnits="userSpaceOnUse" color-interpolation-filters="sRGB">
<feFlood flood-opacity="0" result="BackgroundImageFix"/>
<feColorMatrix in="SourceAlpha" type="matrix" values="0 0 0 0 0 0 0 0 0 0 0 0 0 0 0 0 0 0 127 0" result="hardAlpha"/>
<feOffset dx="4" dy="10"/>
<feGaussianBlur stdDeviation="7.5"/>
<feComposite in2="hardAlpha" operator="out"/>
<feColorMatrix type="matrix" values="0 0 0 0 0 0 0 0 0 0 0 0 0 0 0 0 0 0 0.1 0"/>
<feBlend mode="normal" in2="BackgroundImageFix" result="effect1_dropShadow_69_1079"/>
<feBlend mode="normal" in="SourceGraphic" in2="effect1_dropShadow_69_1079" result="shape"/>
</filter>
<filter id="filter6_d_69_1079" x="268.548" y="113.978" width="53.9453" height="55.7023" filterUnits="userSpaceOnUse" color-interpolation-filters="sRGB">
<feFlood flood-opacity="0" result="BackgroundImageFix"/>
<feColorMatrix in="SourceAlpha" type="matrix" values="0 0 0 0 0 0 0 0 0 0 0 0 0 0 0 0 0 0 127 0" result="hardAlpha"/>
<feOffset dx="4" dy="10"/>
<feGaussianBlur stdDeviation="7.5"/>
<feComposite in2="hardAlpha" operator="out"/>
<feColorMatrix type="matrix" values="0 0 0 0 0 0 0 0 0 0 0 0 0 0 0 0 0 0 0.1 0"/>
<feBlend mode="normal" in2="BackgroundImageFix" result="effect1_dropShadow_69_1079"/>
<feBlend mode="normal" in="SourceGraphic" in2="effect1_dropShadow_69_1079" result="shape"/>
</filter>
<linearGradient id="paint0_linear_69_1079" x1="183.459" y1="0.169189" x2="183.459" y2="348.382" gradientUnits="userSpaceOnUse">
<stop stop-color="#003932"/>
<stop offset="0.4875" stop-color="#1F2C9D" stop-opacity="0.64"/>
<stop offset="1" stop-color="#EEF3F2"/>
</linearGradient>
<linearGradient id="paint1_linear_69_1079" x1="259.375" y1="119.749" x2="178.825" y2="110.6" gradientUnits="userSpaceOnUse">
<stop stop-color="#021342"/>
<stop offset="0.466667" stop-color="#5B65B4"/>
<stop offset="1" stop-color="#1E8D9D"/>
</linearGradient>
<radialGradient id="paint2_radial_69_1079" cx="0" cy="0" r="1" gradientUnits="userSpaceOnUse" gradientTransform="translate(224.642 117.267) rotate(17.6196) scale(40.9982 52.4401)">
<stop stop-color="#9091BF"/>
<stop offset="1" stop-color="#0085FF"/>
</radialGradient>
<radialGradient id="paint3_diamond_69_1079" cx="0" cy="0" r="1" gradientUnits="userSpaceOnUse" gradientTransform="translate(215.36 113.686) rotate(90) scale(36.221 36.2211)">
<stop stop-color="#FF1515"/>
<stop offset="1" stop-color="#15F754"/>
</radialGradient>
<linearGradient id="paint4_linear_69_1079" x1="341.52" y1="129.566" x2="309.77" y2="124.177" gradientUnits="userSpaceOnUse">
<stop stop-color="#021342"/>
<stop offset="0.466667" stop-color="#5B65B4"/>
<stop offset="1" stop-color="#1E8D9D"/>
</linearGradient>
<radialGradient id="paint5_radial_69_1079" cx="0" cy="0" r="1" gradientUnits="userSpaceOnUse" gradientTransform="translate(327.614 128.901) rotate(11.9993) scale(15.9932 14.4197)">
<stop stop-color="#9091BF"/>
<stop offset="1" stop-color="#0085FF"/>
</radialGradient>
<linearGradient id="paint6_linear_69_1079" x1="291.287" y1="152.64" x2="236.591" y2="141.236" gradientUnits="userSpaceOnUse">
<stop stop-color="#021342"/>
<stop offset="0.466667" stop-color="#5B65B4"/>
<stop offset="1" stop-color="#1E8D9D"/>
</linearGradient>
<radialGradient id="paint7_radial_69_1079" cx="0" cy="0" r="1" gradientUnits="userSpaceOnUse" gradientTransform="translate(266.99 151.694) rotate(9.81593) scale(27.7402 20.6608)">
<stop stop-color="#9091BF"/>
<stop offset="1" stop-color="#0085FF"/>
</radialGradient>
<linearGradient id="paint8_linear_69_1079" x1="280.31" y1="311.43" x2="234.28" y2="306.789" gradientUnits="userSpaceOnUse">
<stop stop-color="#021342"/>
<stop offset="0.466667" stop-color="#5B65B4"/>
<stop offset="1" stop-color="#1E8D9D"/>
</linearGradient>
<radialGradient id="paint9_radial_69_1079" cx="0" cy="0" r="1" gradientUnits="userSpaceOnUse" gradientTransform="translate(260.515 309.837) rotate(19.6835) scale(23.651 33.2555)">
<stop stop-color="#9091BF"/>
<stop offset="1" stop-color="#0085FF"/>
</radialGradient>
<radialGradient id="paint10_diamond_69_1079" cx="0" cy="0" r="1" gradientUnits="userSpaceOnUse" gradientTransform="translate(255.225 307.538) rotate(90) scale(23.2509 20.6426)">
<stop stop-color="#FF1515"/>
<stop offset="1" stop-color="#15F754"/>
</radialGradient>
<linearGradient id="paint11_linear_69_1079" x1="45.7269" y1="89.5523" x2="-0.303111" y2="84.9105" gradientUnits="userSpaceOnUse">
<stop stop-color="#021342"/>
<stop offset="0.466667" stop-color="#5B65B4"/>
<stop offset="1" stop-color="#1E8D9D"/>
</linearGradient>
<radialGradient id="paint12_radial_69_1079" cx="0" cy="0" r="1" gradientUnits="userSpaceOnUse" gradientTransform="translate(25.9322 87.959) rotate(19.6834) scale(23.651 33.2555)">
<stop stop-color="#9091BF"/>
<stop offset="1" stop-color="#0085FF"/>
</radialGradient>
<radialGradient id="paint13_diamond_69_1079" cx="0" cy="0" r="1" gradientUnits="userSpaceOnUse" gradientTransform="translate(20.6426 85.6598) rotate(90) scale(23.2509 20.6426)">
<stop stop-color="#FF1515"/>
<stop offset="1" stop-color="#15F754"/>
</radialGradient>
<linearGradient id="paint14_linear_69_1079" x1="342.744" y1="167.28" x2="279.577" y2="163.259" gradientUnits="userSpaceOnUse">
<stop stop-color="#021342"/>
<stop offset="0.466667" stop-color="#5B65B4"/>
<stop offset="1" stop-color="#1E8D9D"/>
</linearGradient>
<radialGradient id="paint15_radial_69_1079" cx="0" cy="0" r="1" gradientUnits="userSpaceOnUse" gradientTransform="translate(315.744 163.836) rotate(29.5438) scale(34.9146 66.4049)">
<stop stop-color="#9091BF"/>
<stop offset="1" stop-color="#0085FF"/>
</radialGradient>
<linearGradient id="paint16_linear_69_1079" x1="163.77" y1="77.3196" x2="109.074" y2="65.9154" gradientUnits="userSpaceOnUse">
<stop stop-color="#021342"/>
<stop offset="0.466667" stop-color="#5B65B4"/>
<stop offset="1" stop-color="#1E8D9D"/>
</linearGradient>
<radialGradient id="paint17_radial_69_1079" cx="0" cy="0" r="1" gradientUnits="userSpaceOnUse" gradientTransform="translate(139.473 76.3738) rotate(9.81593) scale(27.7402 20.6608)">
<stop stop-color="#9091BF"/>
<stop offset="1" stop-color="#0085FF"/>
</radialGradient>
<linearGradient id="paint18_linear_69_1079" x1="78.8668" y1="134.376" x2="24.1707" y2="122.971" gradientUnits="userSpaceOnUse">
<stop stop-color="#021342"/>
<stop offset="0.466667" stop-color="#5B65B4"/>
<stop offset="1" stop-color="#1E8D9D"/>
</linearGradient>
<radialGradient id="paint19_radial_69_1079" cx="0" cy="0" r="1" gradientUnits="userSpaceOnUse" gradientTransform="translate(54.5699 133.43) rotate(9.81593) scale(27.7402 20.6608)">
<stop stop-color="#9091BF"/>
<stop offset="1" stop-color="#0085FF"/>
</radialGradient>
<linearGradient id="paint20_linear_69_1079" x1="306.069" y1="136.068" x2="279.331" y2="133.585" gradientUnits="userSpaceOnUse">
<stop stop-color="#021342"/>
<stop offset="0.466667" stop-color="#5B65B4"/>
<stop offset="1" stop-color="#1E8D9D"/>
</linearGradient>
<radialGradient id="paint21_radial_69_1079" cx="0" cy="0" r="1" gradientUnits="userSpaceOnUse" gradientTransform="translate(294.589 135.065) rotate(21.223) scale(13.8557 20.7298)">
<stop stop-color="#9091BF"/>
<stop offset="1" stop-color="#0085FF"/>
</radialGradient>
<clipPath id="clip0_69_1079">
<rect width="366" height="317.057" fill="white" transform="translate(0 15.7471)"/>
</clipPath>
</defs>
</svg>
