<svg width="366" height="349" viewBox="0 0 366 349" fill="none" xmlns="http://www.w3.org/2000/svg">
<rect y="0.169189" width="366" height="348.213" fill="url(#paint0_linear_69_960)"/>
<g clip-path="url(#clip0_69_960)">
<g filter="url(#filter0_f_69_960)">
<path d="M338.635 288.003C326.644 297.135 312.034 306.386 297.67 310.748C293.529 312.043 289.257 312.869 284.932 313.212C280.888 313.537 276.819 313.221 272.874 312.276C262.507 309.698 252.892 305.182 243.589 299.907C240.549 298.181 237.544 296.375 234.557 294.53C229.682 291.517 224.854 288.398 220.014 285.354C219.289 284.893 218.568 284.441 217.844 283.993H217.839C216.671 283.259 215.499 282.536 214.325 281.823C214.119 281.695 213.912 281.572 213.701 281.445C211.483 280.101 209.227 278.787 206.932 277.505C206.651 277.351 206.37 277.193 206.089 277.039C201.65 274.577 197.087 272.344 192.419 270.349C189.353 269.058 186.248 267.894 183.111 266.901H183.107C181.908 266.523 180.704 266.167 179.496 265.842C175.874 264.849 172.183 264.126 168.453 263.681C163.314 263.059 158.116 263.1 152.987 263.804C152.64 263.853 152.297 263.901 151.95 263.958C138.07 266.181 125.402 273.674 111.46 275.44C111.007 275.497 110.559 275.55 110.107 275.59C109.913 275.607 109.72 275.629 109.527 275.642C105.475 275.989 101.398 275.889 97.3681 275.344C86.1099 273.859 75.146 269.251 65.2759 263.444C42.2016 249.867 23.4892 228.997 12.1124 204.829C10.1588 200.687 8.42426 196.446 6.91602 192.122C2.6991 180.131 0.376831 167.556 0.0328184 154.85C-1.03458 110.766 24.0163 66.5375 63.3476 46.5996C102.683 26.6616 154.428 33.2549 186.151 63.8844C205.395 82.465 216.53 107.643 231.013 130.138C245.495 152.628 266.079 174.112 292.627 177.389C306.152 179.058 320.305 175.829 333.268 180.029C340.445 182.357 346.568 186.811 351.501 192.486C354.818 196.337 357.593 200.623 359.751 205.225C361.332 208.551 362.615 212.012 363.585 215.565C363.765 216.219 363.932 216.874 364.095 217.528C370.552 243.901 360.234 271.548 338.635 288.003Z" fill="url(#paint1_linear_69_960)"/>
<path d="M338.635 288.003C326.644 297.135 312.034 306.386 297.67 310.748C293.529 312.043 289.257 312.869 284.932 313.212C280.888 313.537 276.819 313.221 272.874 312.276C262.507 309.698 252.892 305.182 243.589 299.907C240.549 298.181 237.544 296.375 234.557 294.53C229.682 291.517 224.854 288.398 220.014 285.354C219.289 284.893 218.568 284.441 217.844 283.993H217.839C216.671 283.259 215.499 282.536 214.325 281.823C214.119 281.695 213.912 281.572 213.701 281.445C211.483 280.101 209.227 278.787 206.932 277.505C206.651 277.351 206.37 277.193 206.089 277.039C201.65 274.577 197.087 272.344 192.419 270.349C189.353 269.058 186.248 267.894 183.111 266.901H183.107C181.908 266.523 180.704 266.167 179.496 265.842C175.874 264.849 172.183 264.126 168.453 263.681C163.314 263.059 158.116 263.1 152.987 263.804C152.64 263.853 152.297 263.901 151.95 263.958C138.07 266.181 125.402 273.674 111.46 275.44C111.007 275.497 110.559 275.55 110.107 275.59C109.913 275.607 109.72 275.629 109.527 275.642C105.475 275.989 101.398 275.889 97.3681 275.344C86.1099 273.859 75.146 269.251 65.2759 263.444C42.2016 249.867 23.4892 228.997 12.1124 204.829C10.1588 200.687 8.42426 196.446 6.91602 192.122C2.6991 180.131 0.376831 167.556 0.0328184 154.85C-1.03458 110.766 24.0163 66.5375 63.3476 46.5996C102.683 26.6616 154.428 33.2549 186.151 63.8844C205.395 82.465 216.53 107.643 231.013 130.138C245.495 152.628 266.079 174.112 292.627 177.389C306.152 179.058 320.305 175.829 333.268 180.029C340.445 182.357 346.568 186.811 351.501 192.486C354.818 196.337 357.593 200.623 359.751 205.225C361.332 208.551 362.615 212.012 363.585 215.565C363.765 216.219 363.932 216.874 364.095 217.528C370.552 243.901 360.234 271.548 338.635 288.003Z" fill="url(#paint2_radial_69_960)"/>
<path d="M338.635 288.003C326.644 297.135 312.034 306.386 297.67 310.748C293.529 312.043 289.257 312.869 284.932 313.212C280.888 313.537 276.819 313.221 272.874 312.276C262.507 309.698 252.892 305.182 243.589 299.907C240.549 298.181 237.544 296.375 234.557 294.53C229.682 291.517 224.854 288.398 220.014 285.354C219.289 284.893 218.568 284.441 217.844 283.993H217.839C216.671 283.259 215.499 282.536 214.325 281.823C214.119 281.695 213.912 281.572 213.701 281.445C211.483 280.101 209.227 278.787 206.932 277.505C206.651 277.351 206.37 277.193 206.089 277.039C201.65 274.577 197.087 272.344 192.419 270.349C189.353 269.058 186.248 267.894 183.111 266.901H183.107C181.908 266.523 180.704 266.167 179.496 265.842C175.874 264.849 172.183 264.126 168.453 263.681C163.314 263.059 158.116 263.1 152.987 263.804C152.64 263.853 152.297 263.901 151.95 263.958C138.07 266.181 125.402 273.674 111.46 275.44C111.007 275.497 110.559 275.55 110.107 275.59C109.913 275.607 109.72 275.629 109.527 275.642C105.475 275.989 101.398 275.889 97.3681 275.344C86.1099 273.859 75.146 269.251 65.2759 263.444C42.2016 249.867 23.4892 228.997 12.1124 204.829C10.1588 200.687 8.42426 196.446 6.91602 192.122C2.6991 180.131 0.376831 167.556 0.0328184 154.85C-1.03458 110.766 24.0163 66.5375 63.3476 46.5996C102.683 26.6616 154.428 33.2549 186.151 63.8844C205.395 82.465 216.53 107.643 231.013 130.138C245.495 152.628 266.079 174.112 292.627 177.389C306.152 179.058 320.305 175.829 333.268 180.029C340.445 182.357 346.568 186.811 351.501 192.486C354.818 196.337 357.593 200.623 359.751 205.225C361.332 208.551 362.615 212.012 363.585 215.565C363.765 216.219 363.932 216.874 364.095 217.528C370.552 243.901 360.234 271.548 338.635 288.003Z" fill="url(#paint3_diamond_69_960)" fill-opacity="0.35"/>
</g>
<path d="M122.625 240.26H81.3351C75.1489 240.26 70.134 245.275 70.134 251.461V251.461C70.134 257.647 75.1489 262.662 81.3351 262.662H122.625C128.812 262.662 133.827 257.647 133.827 251.461C133.827 245.275 128.812 240.26 122.625 240.26Z" fill="#3F3D56"/>
<path d="M110.107 256.952V275.589C105.865 276 101.591 275.917 97.3682 275.343V256.952H110.107Z" fill="#3F3D56"/>
<path d="M152.987 263.804C152.64 263.852 152.297 263.901 151.95 263.958C138.07 266.181 125.402 273.674 111.459 275.44C111.007 275.497 110.559 275.55 110.107 275.589C109.913 275.607 109.72 275.629 109.527 275.642C106.122 272.308 102.718 268.759 99.5204 265.082C97.7853 263.093 96.1074 261.063 94.5304 259.007C90.4365 253.701 86.9664 248.246 84.6734 242.887C84.9062 240.317 83.3073 234.374 82.543 229.823L82.5387 229.819C82.2136 227.908 82.0379 226.247 82.2004 225.18C83.1317 219.022 88.1612 219.729 89.7073 213.693C91.1021 212.536 92.5872 211.491 94.1483 210.57C94.4074 210.417 94.671 210.263 94.9433 210.109L111.723 198.513L118.136 204.803L127.896 214.379L138.474 224.75L129.495 233.82C129.495 233.82 136.998 242.469 145.77 254C148.124 257.097 150.571 260.404 152.987 263.804Z" fill="#2F2E41"/>
<path d="M297.67 256.952V310.748C293.529 312.043 289.257 312.869 284.932 313.212V256.952H297.67Z" fill="#3F3D56"/>
<path d="M314.142 252.559H272.852C266.666 252.559 261.651 257.574 261.651 263.76V263.76C261.651 269.946 266.666 274.961 272.852 274.961H314.142C320.329 274.961 325.343 269.946 325.343 263.76C325.343 257.574 320.329 252.559 314.142 252.559Z" fill="#3F3D56"/>
<path d="M213.701 281.445C211.483 280.101 209.227 278.787 206.932 277.505C206.651 277.351 206.37 277.193 206.089 277.039L207.6 276.393L211.676 274.641L211.716 274.623L211.76 274.772L213.701 281.445Z" fill="#FFB6B6"/>
<path d="M220.013 285.354C219.289 284.893 218.568 284.44 217.844 283.992H217.839C216.671 283.259 215.499 282.536 214.325 281.822C214.119 281.695 213.912 281.572 213.701 281.445C211.483 280.101 209.227 278.787 206.932 277.505C206.651 277.351 206.37 277.193 206.089 277.039C201.65 274.577 197.087 272.344 192.419 270.349C189.353 269.058 186.248 267.894 183.111 266.901H183.107L180.643 262.776L169.551 244.2L167.114 240.119C167.114 240.119 158.798 242.579 147.031 244.938C142.748 245.799 138.013 246.642 133.045 247.354C127.734 248.109 122.164 248.711 116.63 249.001C113.99 249.142 111.358 249.212 108.767 249.19C102.068 249.146 95.633 248.518 89.9973 247.024C88.1173 245.259 82.4508 242.856 78.3921 240.655H78.3877C76.6834 239.733 75.269 238.85 74.5266 238.064C70.2482 233.539 73.9029 230.012 70.0989 225.075C70.0477 223.263 70.1402 221.451 70.3756 219.654C70.4152 219.355 70.4547 219.052 70.503 218.745L71.7022 198.381L80.6103 197.204L94.1659 195.411L108.85 193.47L110.467 206.129C110.467 206.129 121.901 205.55 136.387 205.743C159.655 206.059 190.79 208.378 195.006 218.332C195.402 219.268 195.797 220.212 196.192 221.156C197.132 223.414 198.064 225.684 198.986 227.965C202.329 236.223 205.518 244.56 208.43 252.44C210.24 257.343 211.944 262.069 213.512 266.492C214.773 270.05 215.942 273.415 217.009 276.512C217.984 279.341 218.867 281.945 219.653 284.282C219.776 284.647 219.895 285.007 220.013 285.354Z" fill="#2F2E41"/>
<path d="M138.067 161.972L109.93 138.076L128.237 119.549L141.008 140.468L188.349 149.854C189.772 148.782 191.477 148.148 193.254 148.029C195.032 147.91 196.806 148.31 198.359 149.181C199.913 150.053 201.18 151.357 202.005 152.936C202.831 154.515 203.179 156.3 203.007 158.073C202.835 159.847 202.151 161.532 201.039 162.923C199.926 164.314 198.432 165.352 196.74 165.909C195.048 166.466 193.23 166.519 191.509 166.061C189.787 165.603 188.236 164.654 187.044 163.329L138.067 161.972Z" fill="#A0616A"/>
<path d="M85.064 106.67C81.8123 117.249 112.781 142.478 112.781 142.478C113.125 139.939 130.683 161.838 131.878 159.855C135.273 154.218 139.009 140.285 142.928 138.504C145.17 137.486 132.311 123.331 132.311 123.331C132.311 123.331 125.752 114.653 117.091 103.654C114.701 100.5 111.551 98.001 107.934 96.3911C104.318 94.7812 100.353 94.1124 96.4093 94.447C96.4093 94.447 88.3157 96.0916 85.064 106.67Z" fill="#EBEBEB"/>
<path d="M98.7565 83.2516C109.267 83.2516 117.787 74.7314 117.787 64.2211C117.787 53.7109 109.267 45.1907 98.7565 45.1907C88.2463 45.1907 79.7261 53.7109 79.7261 64.2211C79.7261 74.7314 88.2463 83.2516 98.7565 83.2516Z" fill="#A0616A"/>
<path d="M108.272 95.8294C112.371 98.2668 114.824 102.745 116.232 107.302C118.838 115.739 120.407 124.462 120.904 133.279L122.391 159.674L140.808 215.875C124.846 229.381 64.8514 218.945 64.8514 218.945C64.8514 218.945 63.0097 218.331 64.8514 216.489C66.693 214.648 68.4859 216.279 66.6443 214.438C64.8026 212.596 66.0722 214.648 66.6861 212.806C67.3 210.964 66.6861 212.192 66.0722 211.578C65.4583 210.964 70.8246 205.439 70.8246 205.439L65.9135 173.179L59.7747 108.107C67.1413 98.8988 81.9566 93.4706 81.9566 93.4706L85.7846 86.5801L104.925 88.1113L108.272 95.8294Z" fill="#EBEBEB"/>
<path d="M114.444 54.1106C115.923 55.2137 117.019 56.753 117.577 58.5117C117.792 55.6377 117.805 52.7521 117.618 49.8762C117.394 47.8552 115.971 47.4006 114.323 46.8739C112.835 46.398 111.153 45.8604 110.7 43.8985C104.718 38.079 94.3044 38.3725 87.1776 40.4024C83.256 41.5195 80.9996 42.9546 80.7977 43.7953L80.7558 43.9684L80.5966 44.048C77.5738 45.5595 76.9853 50.3322 77.0242 54.0698C77.0979 61.1118 79.5293 69.1096 80.899 69.7593C80.9715 69.7937 80.9898 69.7802 81.0212 69.7541C83.0837 68.1058 85.6 69.8793 86.7058 70.8434C87.358 66.4668 89.458 62.4349 92.6705 59.3917C95.883 56.3486 100.023 54.4698 104.428 54.0553C105.867 53.9162 107.294 53.6769 108.7 53.339C109.412 53.1546 110.145 53.0584 110.882 53.0527C112.149 53.0334 113.392 53.4026 114.444 54.1106Z" fill="#2F2E41"/>
<path d="M90.4649 190.643L84.6435 187.662C84.3316 187.44 84.11 187.113 84.0193 186.741C83.9286 186.369 83.9747 185.976 84.1493 185.635C84.3239 185.295 84.6152 185.028 84.9702 184.884C85.3252 184.74 85.72 184.729 86.0826 184.852L91.904 187.833C92.2159 188.056 92.4375 188.383 92.5282 188.755C92.6189 189.127 92.5728 189.519 92.3982 189.86C92.2236 190.201 91.9323 190.468 91.5773 190.611C91.2224 190.755 90.8275 190.767 90.4649 190.643L90.4649 190.643Z" fill="#6C63FF"/>
<path d="M70.8727 182.656L61.2964 147.005L86.887 142.16L85.5109 166.631L119.135 201.253C120.915 201.18 122.678 201.627 124.208 202.538C125.739 203.45 126.971 204.788 127.755 206.388C128.538 207.988 128.839 209.781 128.621 211.549C128.403 213.317 127.676 214.984 126.527 216.346C125.378 217.707 123.858 218.705 122.152 219.218C120.445 219.731 118.627 219.736 116.918 219.233C115.209 218.73 113.683 217.74 112.526 216.385C111.37 215.03 110.633 213.368 110.405 211.601L70.8727 182.656Z" fill="#A0616A"/>
<path d="M58.6777 107.032C49.9913 113.89 61.1403 152.247 61.1403 152.247C62.8664 150.353 64.8723 178.35 66.9822 177.397C72.9787 174.688 83.9694 165.345 88.2066 166.106C90.6297 166.542 88.091 147.587 88.091 147.587C88.091 147.587 87.6241 136.719 86.7465 122.748C86.5717 118.794 85.3991 114.948 83.3381 111.568C81.277 108.189 78.3945 105.386 74.9587 103.42C74.9587 103.42 67.364 100.175 58.6777 107.032Z" fill="#EBEBEB"/>
<path d="M359.75 205.225L12.1124 204.829C10.1588 200.687 8.42425 196.446 6.91602 192.122L351.501 192.486C354.818 196.337 357.593 200.623 359.75 205.225Z" fill="#3F3D56"/>
<path d="M249.027 297.39C247.23 298.26 245.417 299.099 243.589 299.907C240.549 298.181 237.544 296.375 234.557 294.53L245.635 289.663L249.027 297.39Z" fill="#FFB6B6"/>
<path d="M329.797 236.86C327.996 239.276 326.138 241.643 324.223 243.963C322.457 246.102 320.645 248.2 318.785 250.257C318.017 251.109 317.239 251.957 316.444 252.796C314.981 254.364 313.486 255.906 311.959 257.422C309.209 258.287 303.64 259.811 297.67 261.234C293.326 262.267 288.771 263.246 284.932 263.87C282.782 264.256 280.608 264.488 278.426 264.564C275.835 264.586 273.203 264.516 270.563 264.375C267.585 264.217 264.603 263.971 261.655 263.655C253.99 262.851 246.567 261.599 240.162 260.312C237.817 259.846 235.612 259.372 233.582 258.911C229.739 258.045 226.523 257.237 224.195 256.622C221.573 255.937 220.079 255.493 220.079 255.493L213.513 266.492L210.104 272.198L207.6 276.393L206.932 277.505C206.651 277.351 206.37 277.193 206.089 277.039C201.65 274.577 197.087 272.344 192.419 270.349C189.353 269.058 186.248 267.894 183.111 266.901H183.107C181.908 266.523 180.704 266.167 179.496 265.842C179.874 264.827 180.256 263.805 180.643 262.776C181.363 260.857 182.098 258.919 182.848 256.965C184.469 252.73 186.147 248.434 187.873 244.16C189.287 240.651 190.728 237.154 192.187 233.706C192.859 232.116 194.225 230.719 196.135 229.494C197.049 228.918 198.001 228.407 198.986 227.965C204.455 225.474 212.511 223.853 221.388 222.812C222.122 222.729 222.86 222.645 223.602 222.566C230.951 221.793 238.748 221.394 246.04 221.209C249.69 221.117 253.213 221.082 256.49 221.077C257.548 221.077 258.578 221.08 259.578 221.086H259.582C262.283 221.099 264.77 221.139 266.957 221.183C267.383 221.192 267.796 221.205 268.2 221.214H268.205C268.477 221.218 268.745 221.227 269.008 221.231C273.792 221.354 276.726 221.503 276.726 221.503L277.864 212.578L278.097 210.777L278.316 209.064V209.059L278.343 208.844L278.523 208.84L281.686 208.778L308.269 208.26L322.791 207.974L320.49 217.84L316.69 234.119C317.077 236.693 329.929 234.677 329.797 236.86Z" fill="#2F2E41"/>
<path d="M252.303 295.765C251.218 296.318 250.125 296.863 249.026 297.39C247.23 298.26 245.417 299.098 243.588 299.907C240.549 298.18 237.544 296.375 234.557 294.53C229.682 291.517 224.854 288.398 220.013 285.354C219.289 284.893 218.568 284.44 217.844 283.992H217.839C215.845 281.032 213.811 277.948 211.76 274.772C211.729 274.728 211.703 274.685 211.676 274.641C211.149 273.832 210.625 273.018 210.104 272.198C206.823 267.059 203.524 261.7 200.322 256.227L208.43 252.44L223.506 245.403L226.106 244.191L233.582 258.911L240.25 272.04L241.735 274.961L252.303 295.765Z" fill="#2F2E41"/>
<path d="M254.576 225.096L293.011 188.029L303.664 157.866L287.95 151.033C279.879 158.764 271.155 182.846 271.155 182.846L244.706 216.495C244.5 216.565 244.294 216.64 244.091 216.73C242.9 217.255 241.864 218.079 241.084 219.122C240.304 220.164 239.806 221.39 239.639 222.681C239.471 223.972 239.64 225.285 240.128 226.492C240.615 227.699 241.406 228.76 242.424 229.572C243.442 230.384 244.652 230.92 245.937 231.127C247.222 231.335 248.54 231.208 249.761 230.758C250.983 230.308 252.068 229.55 252.911 228.558C253.755 227.566 254.328 226.374 254.576 225.096Z" fill="#FFB8B8"/>
<path d="M283.529 154.401L303.46 160.728L303.536 160.716C310.954 159.473 317.11 147.357 320.967 137.411C322.236 134.131 322.213 130.491 320.901 127.227C319.589 123.963 317.087 121.32 313.901 119.83C311.543 118.747 308.929 118.345 306.354 118.67C303.78 118.995 301.348 120.033 299.333 121.668L289.098 130.031L283.529 154.401Z" fill="#6C63FF"/>
<g filter="url(#filter1_d_69_960)">
<path d="M329.527 237.27C329.644 237.292 329.763 237.245 329.834 237.15C334.906 230.423 330.184 215.597 327.572 208.751C326.91 207.016 327.831 205.051 329.611 204.524C331.025 204.105 331.947 202.746 331.812 201.277L331.036 192.794L330.906 191.481C330.682 189.212 331.517 186.966 333.171 185.396L334.966 183.691C335.018 183.642 335.051 183.577 335.061 183.506L338.153 161.503L342.199 146.94C343.723 141.434 343.756 135.622 342.292 130.1C340.828 124.578 337.922 119.545 333.87 115.517L326.385 108.086C325.863 107.568 325.4 106.993 325.004 106.374L318.551 96.2735C316.763 93.4747 313.702 91.7463 310.382 91.6606L305.098 91.5242C301.395 91.4286 297.943 93.3876 296.126 96.6154L295.346 98.0014C293.923 100.529 291.426 102.207 288.743 103.309C284.962 104.863 281.612 107.359 279.029 110.59C275.489 115.019 273.615 120.55 273.733 126.218L274.276 153.524C274.289 154.153 274.242 154.782 274.137 155.402L268.454 188.77C268.374 189.238 268.328 189.711 268.316 190.186L268.264 192.148C268.202 194.519 267.265 196.784 265.633 198.505L263.982 200.248C262.934 201.354 262.47 202.889 262.73 204.39L262.907 205.412C263.193 207.064 262.283 208.691 260.726 209.311C259.657 209.737 258.861 210.655 258.591 211.773L257.402 216.699C257.058 218.122 256.403 219.447 255.515 220.61C253.645 223.06 250.65 227.197 250.613 228.612C250.606 228.897 250.809 229.179 251.254 229.497C254.75 231.998 274.288 237.417 283.081 234.159C292.447 230.692 329.157 237.204 329.527 237.27Z" fill="url(#paint4_linear_69_960)"/>
<path d="M329.527 237.27C329.644 237.292 329.763 237.245 329.834 237.15C334.906 230.423 330.184 215.597 327.572 208.751C326.91 207.016 327.831 205.051 329.611 204.524C331.025 204.105 331.947 202.746 331.812 201.277L331.036 192.794L330.906 191.481C330.682 189.212 331.517 186.966 333.171 185.396L334.966 183.691C335.018 183.642 335.051 183.577 335.061 183.506L338.153 161.503L342.199 146.94C343.723 141.434 343.756 135.622 342.292 130.1C340.828 124.578 337.922 119.545 333.87 115.517L326.385 108.086C325.863 107.568 325.4 106.993 325.004 106.374L318.551 96.2735C316.763 93.4747 313.702 91.7463 310.382 91.6606L305.098 91.5242C301.395 91.4286 297.943 93.3876 296.126 96.6154L295.346 98.0014C293.923 100.529 291.426 102.207 288.743 103.309C284.962 104.863 281.612 107.359 279.029 110.59C275.489 115.019 273.615 120.55 273.733 126.218L274.276 153.524C274.289 154.153 274.242 154.782 274.137 155.402L268.454 188.77C268.374 189.238 268.328 189.711 268.316 190.186L268.264 192.148C268.202 194.519 267.265 196.784 265.633 198.505L263.982 200.248C262.934 201.354 262.47 202.889 262.73 204.39L262.907 205.412C263.193 207.064 262.283 208.691 260.726 209.311C259.657 209.737 258.861 210.655 258.591 211.773L257.402 216.699C257.058 218.122 256.403 219.447 255.515 220.61C253.645 223.06 250.65 227.197 250.613 228.612C250.606 228.897 250.809 229.179 251.254 229.497C254.75 231.998 274.288 237.417 283.081 234.159C292.447 230.692 329.157 237.204 329.527 237.27Z" fill="url(#paint5_radial_69_960)" fill-opacity="0.2"/>
</g>
<path d="M305.935 86.6145C318.09 86.6145 327.943 76.761 327.943 64.6061C327.943 52.4512 318.09 42.5977 305.935 42.5977C293.78 42.5977 283.926 52.4512 283.926 64.6061C283.926 76.761 293.78 86.6145 305.935 86.6145Z" fill="#FFB8B8"/>
<path d="M303.25 86.909C306.658 86.9621 310.064 86.7241 313.432 86.1974C316.77 85.5186 324.238 80.0464 326.319 76.7534C327.866 74.3068 328.855 70.4862 329.412 67.7122C330.163 64.0412 330.134 60.2535 329.328 56.5943C328.522 52.9351 326.956 49.4861 324.733 46.4704C323.878 45.2091 322.698 44.2022 321.318 43.5562C321.196 43.5084 321.07 43.466 320.943 43.4298C318.932 42.9007 317.125 41.7827 315.754 40.2193C315.488 39.9031 315.2 39.6064 314.892 39.3316C313.342 38.0241 311.506 37.1018 309.532 36.6402C306.345 35.7874 301.734 36.6339 295.826 39.1586C292.858 40.427 289.612 39.968 287.114 39.4263C286.974 39.3992 286.83 39.4093 286.695 39.4556C286.56 39.5018 286.439 39.5826 286.345 39.6898C285.283 40.6873 283.882 41.2456 282.425 41.2526C281.532 41.2918 280.596 42.5276 279.464 44.1393C279.207 44.5051 278.907 44.9321 278.691 45.1918L278.662 44.6928L278.157 45.2494C277.364 46.1242 276.804 47.1856 276.531 48.3348C276.258 49.4839 276.281 50.6835 276.596 51.8218C276.911 52.96 277.51 53.9999 278.335 54.8447C279.161 55.6894 280.187 56.3115 281.317 56.6531C282.215 56.8919 283.135 57.0385 284.063 57.0906C284.625 57.1411 285.206 57.1934 285.763 57.29C287.551 57.6561 289.213 58.4795 290.587 59.6797C291.962 60.88 293.001 62.4161 293.605 64.1381C293.748 64.5362 293.98 64.8961 294.284 65.1902C294.588 65.4842 294.955 65.7044 295.358 65.8339C295.76 65.9634 296.187 65.9987 296.605 65.9369C297.024 65.8752 297.422 65.7182 297.77 65.478C298.351 65.0262 299.031 64.7214 299.755 64.5897C300.478 64.458 301.223 64.5031 301.925 64.7214C302.532 65.0589 303.005 65.5947 303.263 66.2391C303.578 66.957 304.099 67.5649 304.76 67.9854C307.022 69.1517 307.178 74.3182 306.366 78.6252C305.583 82.7768 304.035 85.78 302.601 85.9285C301.498 86.0426 301.372 86.121 301.292 86.3162L301.22 86.4908L301.344 86.6543C301.954 86.8752 302.604 86.9621 303.25 86.909Z" fill="#2F2E41"/>
<path d="M288.994 147.747L280.508 130.828C268.191 131.67 243.745 145.911 243.745 145.911L197.491 155.718C196.121 155.191 194.636 155.035 193.186 155.264C191.736 155.494 190.373 156.101 189.232 157.026C188.092 157.95 187.215 159.158 186.69 160.529C186.164 161.9 186.01 163.385 186.241 164.834C186.472 166.284 187.081 167.647 188.007 168.787C188.933 169.926 190.142 170.801 191.513 171.325C192.885 171.848 194.37 172.001 195.819 171.768C197.269 171.535 198.631 170.924 199.769 169.997L258.606 165.78L288.994 147.747Z" fill="#FFB8B8"/>
<g filter="url(#filter2_d_69_960)">
<path d="M279.489 143.616C282.927 147.52 288.784 148.137 292.96 145.034L304.98 136.101C306.765 134.775 308.057 132.892 308.651 130.749L311.638 119.987C312.394 117.222 312.362 114.301 311.545 111.554C310.729 108.806 309.16 106.342 307.016 104.439L-nan -nanL307.016 104.439C304.093 101.88 300.307 100.526 296.423 100.651C292.54 100.777 288.849 102.372 286.097 105.114C277.757 113.439 268.244 125.052 270.288 133.105C270.301 133.159 270.328 133.209 270.364 133.25L279.489 143.616Z" fill="url(#paint6_linear_69_960)"/>
<path d="M279.489 143.616C282.927 147.52 288.784 148.137 292.96 145.034L304.98 136.101C306.765 134.775 308.057 132.892 308.651 130.749L311.638 119.987C312.394 117.222 312.362 114.301 311.545 111.554C310.729 108.806 309.16 106.342 307.016 104.439L-nan -nanL307.016 104.439C304.093 101.88 300.307 100.526 296.423 100.651C292.54 100.777 288.849 102.372 286.097 105.114C277.757 113.439 268.244 125.052 270.288 133.105C270.301 133.159 270.328 133.209 270.364 133.25L279.489 143.616Z" fill="url(#paint7_radial_69_960)" fill-opacity="0.2"/>
</g>
<path d="M258.137 194.577H198.837V202.484H258.137V194.577Z" fill="white"/>
<path d="M106.593 194.577H47.2927V202.484H106.593V194.577Z" fill="white"/>
<path d="M113.517 156.554V194.2C113.517 194.68 113.708 195.14 114.047 195.479C114.387 195.818 114.847 196.009 115.326 196.009H171.114C171.594 196.009 172.054 195.818 172.393 195.479C172.732 195.14 172.923 194.68 172.924 194.2V156.554C172.922 156.075 172.731 155.615 172.392 155.276C172.053 154.938 171.594 154.747 171.114 154.747H115.326C114.847 154.747 114.388 154.938 114.048 155.276C113.709 155.615 113.518 156.075 113.517 156.554Z" fill="#3F3D56"/>
<path d="M114.826 157.022V193.736C114.826 193.992 114.928 194.238 115.109 194.419C115.291 194.6 115.536 194.702 115.793 194.703H170.65C170.906 194.702 171.152 194.6 171.333 194.419C171.514 194.238 171.616 193.992 171.617 193.736V157.022C171.617 156.766 171.515 156.519 171.334 156.338C171.152 156.156 170.906 156.054 170.65 156.053H115.793C115.536 156.054 115.29 156.156 115.109 156.338C114.928 156.519 114.826 156.766 114.826 157.022Z" fill="#6C63FF"/>
<path d="M112.35 201.542C112.452 201.67 112.582 201.773 112.73 201.844C112.878 201.915 113.04 201.951 113.204 201.95H172.939C173.103 201.95 173.264 201.914 173.412 201.843C173.559 201.773 173.689 201.671 173.792 201.544C173.895 201.417 173.968 201.269 174.006 201.11C174.045 200.951 174.047 200.786 174.014 200.626L173.087 196.221C173.048 196.042 172.965 195.874 172.846 195.735C172.726 195.595 172.574 195.488 172.402 195.423C172.278 195.374 172.146 195.349 172.012 195.349H114.127C113.994 195.349 113.862 195.374 113.737 195.423C113.566 195.488 113.413 195.595 113.294 195.735C113.174 195.874 113.091 196.042 113.053 196.221L112.126 200.626C112.093 200.786 112.096 200.951 112.135 201.109C112.173 201.268 112.247 201.416 112.35 201.542Z" fill="#2F2E41"/>
<path d="M169.963 197.246H171.374C171.492 197.246 171.588 197.15 171.588 197.032V196.357C171.588 196.238 171.492 196.142 171.374 196.142H169.963C169.844 196.142 169.748 196.238 169.748 196.357V197.032C169.748 197.15 169.844 197.246 169.963 197.246Z" fill="#3F3D56"/>
<path d="M166.283 197.246H167.694C167.812 197.246 167.908 197.15 167.908 197.032V196.357C167.908 196.238 167.812 196.142 167.694 196.142H166.283C166.165 196.142 166.069 196.238 166.069 196.357V197.032C166.069 197.15 166.165 197.246 166.283 197.246Z" fill="#3F3D56"/>
<path d="M162.603 197.246H164.014C164.133 197.246 164.229 197.15 164.229 197.032V196.357C164.229 196.238 164.133 196.142 164.014 196.142H162.603C162.485 196.142 162.389 196.238 162.389 196.357V197.032C162.389 197.15 162.485 197.246 162.603 197.246Z" fill="#3F3D56"/>
<path d="M158.924 197.246H160.335C160.453 197.246 160.549 197.15 160.549 197.032V196.357C160.549 196.238 160.453 196.142 160.335 196.142H158.924C158.805 196.142 158.709 196.238 158.709 196.357V197.032C158.709 197.15 158.805 197.246 158.924 197.246Z" fill="#3F3D56"/>
<path d="M155.244 197.246H156.655C156.773 197.246 156.869 197.15 156.869 197.032V196.357C156.869 196.238 156.773 196.142 156.655 196.142H155.244C155.126 196.142 155.03 196.238 155.03 196.357V197.032C155.03 197.15 155.126 197.246 155.244 197.246Z" fill="#3F3D56"/>
<path d="M151.564 197.246H152.975C153.094 197.246 153.19 197.15 153.19 197.032V196.357C153.19 196.238 153.094 196.142 152.975 196.142H151.564C151.446 196.142 151.35 196.238 151.35 196.357V197.032C151.35 197.15 151.446 197.246 151.564 197.246Z" fill="#3F3D56"/>
<path d="M147.885 197.246H149.296C149.414 197.246 149.51 197.15 149.51 197.032V196.357C149.51 196.238 149.414 196.142 149.296 196.142H147.885C147.766 196.142 147.67 196.238 147.67 196.357V197.032C147.67 197.15 147.766 197.246 147.885 197.246Z" fill="#3F3D56"/>
<path d="M144.205 197.246H145.616C145.735 197.246 145.831 197.15 145.831 197.032V196.357C145.831 196.238 145.735 196.142 145.616 196.142H144.205C144.087 196.142 143.991 196.238 143.991 196.357V197.032C143.991 197.15 144.087 197.246 144.205 197.246Z" fill="#3F3D56"/>
<path d="M140.525 197.246H141.936C142.055 197.246 142.151 197.15 142.151 197.032V196.357C142.151 196.238 142.055 196.142 141.936 196.142H140.525C140.407 196.142 140.311 196.238 140.311 196.357V197.032C140.311 197.15 140.407 197.246 140.525 197.246Z" fill="#3F3D56"/>
<path d="M136.846 197.246H138.257C138.375 197.246 138.471 197.15 138.471 197.032V196.357C138.471 196.238 138.375 196.142 138.257 196.142H136.846C136.727 196.142 136.631 196.238 136.631 196.357V197.032C136.631 197.15 136.727 197.246 136.846 197.246Z" fill="#3F3D56"/>
<path d="M133.166 197.246H134.577C134.695 197.246 134.792 197.15 134.792 197.032V196.357C134.792 196.238 134.695 196.142 134.577 196.142H133.166C133.048 196.142 132.952 196.238 132.952 196.357V197.032C132.952 197.15 133.048 197.246 133.166 197.246Z" fill="#3F3D56"/>
<path d="M129.486 197.246H130.897C131.016 197.246 131.112 197.15 131.112 197.032V196.357C131.112 196.238 131.016 196.142 130.897 196.142H129.486C129.368 196.142 129.272 196.238 129.272 196.357V197.032C129.272 197.15 129.368 197.246 129.486 197.246Z" fill="#3F3D56"/>
<path d="M125.807 197.246H127.218C127.336 197.246 127.432 197.15 127.432 197.032V196.357C127.432 196.238 127.336 196.142 127.218 196.142H125.807C125.688 196.142 125.592 196.238 125.592 196.357V197.032C125.592 197.15 125.688 197.246 125.807 197.246Z" fill="#3F3D56"/>
<path d="M122.127 197.246H123.538C123.656 197.246 123.752 197.15 123.752 197.032V196.357C123.752 196.238 123.656 196.142 123.538 196.142H122.127C122.009 196.142 121.913 196.238 121.913 196.357V197.032C121.913 197.15 122.009 197.246 122.127 197.246Z" fill="#3F3D56"/>
<path d="M118.447 197.246H119.858C119.977 197.246 120.073 197.15 120.073 197.032V196.357C120.073 196.238 119.977 196.142 119.858 196.142H118.447C118.329 196.142 118.233 196.238 118.233 196.357V197.032C118.233 197.15 118.329 197.246 118.447 197.246Z" fill="#3F3D56"/>
<path d="M114.768 197.246H116.179C116.297 197.246 116.393 197.15 116.393 197.032V196.357C116.393 196.238 116.297 196.142 116.179 196.142H114.768C114.649 196.142 114.553 196.238 114.553 196.357V197.032C114.553 197.15 114.649 197.246 114.768 197.246Z" fill="#3F3D56"/>
<path d="M170.006 199.086H171.417C171.536 199.086 171.632 198.99 171.632 198.872V198.197C171.632 198.078 171.536 197.982 171.417 197.982H170.006C169.888 197.982 169.792 198.078 169.792 198.197V198.872C169.792 198.99 169.888 199.086 170.006 199.086Z" fill="#3F3D56"/>
<path d="M166.327 199.086H167.737C167.856 199.086 167.952 198.99 167.952 198.872V198.197C167.952 198.078 167.856 197.982 167.737 197.982H166.327C166.208 197.982 166.112 198.078 166.112 198.197V198.872C166.112 198.99 166.208 199.086 166.327 199.086Z" fill="#3F3D56"/>
<path d="M162.647 199.086H164.058C164.176 199.086 164.272 198.99 164.272 198.872V198.197C164.272 198.078 164.176 197.982 164.058 197.982H162.647C162.528 197.982 162.432 198.078 162.432 198.197V198.872C162.432 198.99 162.528 199.086 162.647 199.086Z" fill="#3F3D56"/>
<path d="M158.967 199.086H160.378C160.497 199.086 160.593 198.99 160.593 198.872V198.197C160.593 198.078 160.497 197.982 160.378 197.982H158.967C158.849 197.982 158.753 198.078 158.753 198.197V198.872C158.753 198.99 158.849 199.086 158.967 199.086Z" fill="#3F3D56"/>
<path d="M155.287 199.086H156.698C156.817 199.086 156.913 198.99 156.913 198.872V198.197C156.913 198.078 156.817 197.982 156.698 197.982H155.287C155.169 197.982 155.073 198.078 155.073 198.197V198.872C155.073 198.99 155.169 199.086 155.287 199.086Z" fill="#3F3D56"/>
<path d="M151.608 199.086H153.019C153.137 199.086 153.233 198.99 153.233 198.872V198.197C153.233 198.078 153.137 197.982 153.019 197.982H151.608C151.489 197.982 151.393 198.078 151.393 198.197V198.872C151.393 198.99 151.489 199.086 151.608 199.086Z" fill="#3F3D56"/>
<path d="M147.928 199.086H149.339C149.457 199.086 149.553 198.99 149.553 198.872V198.197C149.553 198.078 149.457 197.982 149.339 197.982H147.928C147.81 197.982 147.714 198.078 147.714 198.197V198.872C147.714 198.99 147.81 199.086 147.928 199.086Z" fill="#3F3D56"/>
<path d="M144.249 199.086H145.66C145.778 199.086 145.874 198.99 145.874 198.872V198.197C145.874 198.078 145.778 197.982 145.66 197.982H144.249C144.13 197.982 144.034 198.078 144.034 198.197V198.872C144.034 198.99 144.13 199.086 144.249 199.086Z" fill="#3F3D56"/>
<path d="M140.569 199.086H141.98C142.098 199.086 142.194 198.99 142.194 198.872V198.197C142.194 198.078 142.098 197.982 141.98 197.982H140.569C140.451 197.982 140.354 198.078 140.354 198.197V198.872C140.354 198.99 140.451 199.086 140.569 199.086Z" fill="#3F3D56"/>
<path d="M136.889 199.086H138.3C138.419 199.086 138.515 198.99 138.515 198.872V198.197C138.515 198.078 138.419 197.982 138.3 197.982H136.889C136.771 197.982 136.675 198.078 136.675 198.197V198.872C136.675 198.99 136.771 199.086 136.889 199.086Z" fill="#3F3D56"/>
<path d="M133.21 199.086H134.621C134.739 199.086 134.835 198.99 134.835 198.872V198.197C134.835 198.078 134.739 197.982 134.621 197.982H133.21C133.091 197.982 132.995 198.078 132.995 198.197V198.872C132.995 198.99 133.091 199.086 133.21 199.086Z" fill="#3F3D56"/>
<path d="M129.53 199.086H130.941C131.059 199.086 131.155 198.99 131.155 198.872V198.197C131.155 198.078 131.059 197.982 130.941 197.982H129.53C129.411 197.982 129.315 198.078 129.315 198.197V198.872C129.315 198.99 129.411 199.086 129.53 199.086Z" fill="#3F3D56"/>
<path d="M125.85 199.086H127.261C127.38 199.086 127.476 198.99 127.476 198.872V198.197C127.476 198.078 127.38 197.982 127.261 197.982H125.85C125.732 197.982 125.636 198.078 125.636 198.197V198.872C125.636 198.99 125.732 199.086 125.85 199.086Z" fill="#3F3D56"/>
<path d="M122.171 199.086H123.581C123.7 199.086 123.796 198.99 123.796 198.872V198.197C123.796 198.078 123.7 197.982 123.581 197.982H122.171C122.052 197.982 121.956 198.078 121.956 198.197V198.872C121.956 198.99 122.052 199.086 122.171 199.086Z" fill="#3F3D56"/>
<path d="M118.491 199.086H119.902C120.02 199.086 120.116 198.99 120.116 198.872V198.197C120.116 198.078 120.02 197.982 119.902 197.982H118.491C118.372 197.982 118.276 198.078 118.276 198.197V198.872C118.276 198.99 118.372 199.086 118.491 199.086Z" fill="#3F3D56"/>
<path d="M114.811 199.086H116.222C116.341 199.086 116.437 198.99 116.437 198.872V198.197C116.437 198.078 116.341 197.982 116.222 197.982H114.811C114.693 197.982 114.597 198.078 114.597 198.197V198.872C114.597 198.99 114.693 199.086 114.811 199.086Z" fill="#3F3D56"/>
<path d="M139.465 201.294H153.755C153.873 201.294 153.969 201.198 153.969 201.08V200.405C153.969 200.286 153.873 200.19 153.755 200.19H139.465C139.347 200.19 139.251 200.286 139.251 200.405V201.08C139.251 201.198 139.347 201.294 139.465 201.294Z" fill="#3F3D56"/>
</g>
<defs>
<filter id="filter0_f_69_960" x="-5" y="30.2262" width="376" height="288.11" filterUnits="userSpaceOnUse" color-interpolation-filters="sRGB">
<feFlood flood-opacity="0" result="BackgroundImageFix"/>
<feBlend mode="normal" in="SourceGraphic" in2="BackgroundImageFix" result="shape"/>
<feGaussianBlur stdDeviation="2.5" result="effect1_foregroundBlur_69_960"/>
</filter>
<filter id="filter1_d_69_960" x="239.613" y="86.5209" width="122.754" height="175.755" filterUnits="userSpaceOnUse" color-interpolation-filters="sRGB">
<feFlood flood-opacity="0" result="BackgroundImageFix"/>
<feColorMatrix in="SourceAlpha" type="matrix" values="0 0 0 0 0 0 0 0 0 0 0 0 0 0 0 0 0 0 127 0" result="hardAlpha"/>
<feOffset dx="4" dy="10"/>
<feGaussianBlur stdDeviation="7.5"/>
<feComposite in2="hardAlpha" operator="out"/>
<feColorMatrix type="matrix" values="0 0 0 0 0 0 0 0 0 0 0 0 0 0 0 0 0 0 0.1 0"/>
<feBlend mode="normal" in2="BackgroundImageFix" result="effect1_dropShadow_69_960"/>
<feBlend mode="normal" in="SourceGraphic" in2="effect1_dropShadow_69_960" result="shape"/>
</filter>
<filter id="filter2_d_69_960" x="259.007" y="95.6433" width="72.1748" height="76.3647" filterUnits="userSpaceOnUse" color-interpolation-filters="sRGB">
<feFlood flood-opacity="0" result="BackgroundImageFix"/>
<feColorMatrix in="SourceAlpha" type="matrix" values="0 0 0 0 0 0 0 0 0 0 0 0 0 0 0 0 0 0 127 0" result="hardAlpha"/>
<feOffset dx="4" dy="10"/>
<feGaussianBlur stdDeviation="7.5"/>
<feComposite in2="hardAlpha" operator="out"/>
<feColorMatrix type="matrix" values="0 0 0 0 0 0 0 0 0 0 0 0 0 0 0 0 0 0 0.1 0"/>
<feBlend mode="normal" in2="BackgroundImageFix" result="effect1_dropShadow_69_960"/>
<feBlend mode="normal" in="SourceGraphic" in2="effect1_dropShadow_69_960" result="shape"/>
</filter>
<linearGradient id="paint0_linear_69_960" x1="183" y1="0.169189" x2="183" y2="348.382" gradientUnits="userSpaceOnUse">
<stop stop-color="#003932"/>
<stop offset="0.4875" stop-color="#1F2C9D" stop-opacity="0.64"/>
<stop offset="1" stop-color="#EEF3F2"/>
</linearGradient>
<linearGradient id="paint1_linear_69_960" x1="405.376" y1="197.561" x2="2.17257" y2="137.29" gradientUnits="userSpaceOnUse">
<stop stop-color="#021342"/>
<stop offset="0.466667" stop-color="#5B65B4"/>
<stop offset="1" stop-color="#1E8D9D"/>
</linearGradient>
<radialGradient id="paint2_radial_69_960" cx="0" cy="0" r="1" gradientUnits="userSpaceOnUse" gradientTransform="translate(229.893 188.032) rotate(13.5677) scale(203.086 205.336)">
<stop stop-color="#9091BF"/>
<stop offset="1" stop-color="#0085FF"/>
</radialGradient>
<radialGradient id="paint3_diamond_69_960" cx="0" cy="0" r="1" gradientUnits="userSpaceOnUse" gradientTransform="translate(183 174.281) rotate(90) scale(139.055 183)">
<stop stop-color="#FF1515"/>
<stop offset="1" stop-color="#15F754"/>
</radialGradient>
<linearGradient id="paint4_linear_69_960" x1="353.345" y1="176.553" x2="249.422" y2="169.05" gradientUnits="userSpaceOnUse">
<stop stop-color="#021342"/>
<stop offset="0.466667" stop-color="#5B65B4"/>
<stop offset="1" stop-color="#1E8D9D"/>
</linearGradient>
<radialGradient id="paint5_radial_69_960" cx="0" cy="0" r="1" gradientUnits="userSpaceOnUse" gradientTransform="translate(308.873 171.553) rotate(26.5511) scale(55.9294 99.152)">
<stop stop-color="#9091BF"/>
<stop offset="1" stop-color="#0085FF"/>
</radialGradient>
<linearGradient id="paint6_linear_69_960" x1="316.72" y1="129.759" x2="269.654" y2="125.239" gradientUnits="userSpaceOnUse">
<stop stop-color="#021342"/>
<stop offset="0.466667" stop-color="#5B65B4"/>
<stop offset="1" stop-color="#1E8D9D"/>
</linearGradient>
<radialGradient id="paint7_radial_69_960" cx="0" cy="0" r="1" gradientUnits="userSpaceOnUse" gradientTransform="translate(296.498 128.05) rotate(20.5876) scale(24.3009 35.4665)">
<stop stop-color="#9091BF"/>
<stop offset="1" stop-color="#0085FF"/>
</radialGradient>
<clipPath id="clip0_69_960">
<rect width="366" height="278.099" fill="white" transform="translate(0 35.2261)"/>
</clipPath>
</defs>
</svg>
