<svg width="71" height="68" viewBox="0 0 71 68" fill="none" xmlns="http://www.w3.org/2000/svg">
<path fill-rule="evenodd" clip-rule="evenodd" d="M34.9239 60.0692C46.4908 55.6886 46.7313 55.5672 57.1046 48.8431C64.2923 44.3182 66.983 34.979 63.0706 27.2496C61.3767 23.9032 58.7069 21.3756 55.5824 19.8376C46.8039 15.4048 46.687 15.3614 37.2168 12.3908C33.2158 11.1304 28.738 11.3721 24.6997 13.4162C20.4139 15.5855 17.4711 19.3556 16.2303 23.6315L16.2302 23.6315C13.5683 32.8119 13.5366 32.9378 12.3614 42.2819C11.9077 45.5285 12.4062 48.9417 13.9988 52.0882C17.9098 59.8147 27.0238 63.1763 34.9239 60.0692Z" fill="#33477C"/>
<path d="M35.0122 32.0773C35.614 31.0939 35.8896 29.9454 35.7997 28.796C35.7573 27.9395 35.398 27.1293 34.7916 26.5229C34.1852 25.9164 33.375 25.5571 32.5184 25.5148C31.6619 25.5571 30.8517 25.9164 30.2452 26.5229C29.6388 27.1293 29.2795 27.9395 29.2372 28.796C29.1537 29.9478 29.4371 31.0964 30.0465 32.0773C29.6528 32.1866 27.0715 33.3898 27.0715 35.3585C27.0715 35.6486 27.1868 35.9268 27.3919 36.1319C27.597 36.337 27.8752 36.4523 28.1653 36.4523C28.4554 36.4523 28.7336 36.337 28.9387 36.1319C29.1438 35.9268 29.259 35.6486 29.259 35.3585C29.259 35.0523 30.2325 34.396 30.659 34.2648H30.7793C31.231 34.1678 31.6473 33.9483 31.9825 33.6304C32.3422 33.7144 32.7165 33.7144 33.0762 33.6304C33.4114 33.9483 33.8277 34.1678 34.2793 34.2648H34.3559C34.8262 34.4398 35.7559 35.107 35.7997 35.4132C35.7997 35.7033 35.9149 35.9815 36.12 36.1866C36.3251 36.3917 36.6033 36.507 36.8934 36.507C37.1835 36.507 37.4617 36.3917 37.6668 36.1866C37.8719 35.9815 37.9872 35.7033 37.9872 35.4132C37.9872 33.4335 35.4059 32.2304 35.0122 32.0773ZM32.5184 27.7023C32.7951 27.7403 33.0518 27.8677 33.2492 28.0652C33.4467 28.2627 33.5742 28.5193 33.6122 28.796C33.6861 29.2451 33.6544 29.7053 33.5196 30.14C33.3848 30.5748 33.1506 30.9722 32.8356 31.3007C32.7956 31.3452 32.7467 31.3808 32.692 31.4051C32.6374 31.4295 32.5782 31.4421 32.5184 31.4421C32.4586 31.4421 32.3994 31.4295 32.3448 31.4051C32.2901 31.3808 32.2412 31.3452 32.2012 31.3007C31.8862 30.9722 31.652 30.5748 31.5172 30.14C31.3824 29.7053 31.3507 29.2451 31.4247 28.796C31.4626 28.5193 31.5901 28.2627 31.7876 28.0652C31.9851 27.8677 32.2417 27.7403 32.5184 27.7023Z" fill="white"/>
<path d="M49.1542 46.0663L40.9839 37.9069C42.7605 35.7346 43.6342 32.9625 43.4242 30.1641C43.2142 27.3657 41.9366 24.755 39.8556 22.8722C37.7747 20.9893 35.0497 19.9784 32.2443 20.0485C29.4389 20.1185 26.7677 21.2642 24.7834 23.2486C22.799 25.2329 21.6533 27.9041 21.5832 30.7095C21.5132 33.5149 22.5241 36.2399 24.407 38.3209C26.2898 40.4018 28.9004 41.6794 31.6989 41.8894C34.4973 42.0994 37.2694 41.2257 39.4417 39.4491L47.6011 47.6194C47.7027 47.7219 47.8237 47.8033 47.957 47.8588C48.0903 47.9143 48.2332 47.9429 48.3776 47.9429C48.522 47.9429 48.665 47.9143 48.7983 47.8588C48.9315 47.8033 49.0525 47.7219 49.1542 47.6194C49.2567 47.5177 49.3381 47.3968 49.3936 47.2635C49.4491 47.1302 49.4777 46.9872 49.4777 46.8428C49.4777 46.6984 49.4491 46.5555 49.3936 46.4222C49.3381 46.2889 49.2567 46.168 49.1542 46.0663ZM26.3276 37.1741C24.8955 35.7435 24.0036 33.8606 23.804 31.8462C23.6044 29.8318 24.1094 27.8105 25.233 26.1267C26.3566 24.4429 28.0293 23.2007 29.966 22.6119C31.9027 22.023 33.9837 22.1239 35.8544 22.8973C37.7251 23.6707 39.2698 25.0688 40.2253 26.8533C41.1808 28.6379 41.488 30.6986 41.0945 32.6842C40.701 34.6699 39.6312 36.4577 38.0674 37.7431C36.5036 39.0285 34.5425 39.7319 32.5183 39.7335C31.3688 39.7344 30.2305 39.5088 29.1683 39.0697C28.1061 38.6305 27.1408 37.9864 26.3276 37.1741Z" fill="white"/>
</svg>
