<svg width="71" height="68" viewBox="0 0 71 68" fill="none" xmlns="http://www.w3.org/2000/svg">
<path fill-rule="evenodd" clip-rule="evenodd" d="M34.7567 59.3195C46.3235 54.9389 46.5641 54.8176 56.9374 48.0934C64.125 43.5685 66.8158 34.2293 62.9033 26.4999C61.2095 23.1535 58.5397 20.6259 55.4152 19.088C46.6365 14.6551 46.5198 14.6118 37.0492 11.641C33.0483 10.3807 28.5707 10.6224 24.5325 12.6665C20.2467 14.8358 17.3039 18.606 16.0631 22.8818L16.063 22.8818C13.4011 32.0622 13.3694 32.1881 12.1942 41.5322C11.7405 44.7788 12.239 48.192 13.8316 51.3385C17.7426 59.065 26.8565 62.4266 34.7567 59.3195Z" fill="#33477C"/>
<g clip-path="url(#clip0_245_8)">
<path d="M38.8343 19.944C38.8343 19.944 42.9437 20.7765 45.4574 23.6665C47.9706 26.5558 47.8856 26.8227 48.8912 29.6202C49.2268 30.534 49.8962 30.4508 50.1474 30.4083C50.3987 30.3665 51.1524 29.9896 50.7131 28.6915C50.2731 27.3927 48.3306 20.399 39.6493 18.1377C38.7556 17.9696 38.4262 18.2633 38.2843 18.6715C38.1437 19.0802 38.2468 19.7952 38.8343 19.944Z" fill="white"/>
<path d="M31.453 19.944C31.453 19.944 27.3443 20.7765 24.8318 23.6665C22.3187 26.5558 22.4037 26.8227 21.398 29.6202C21.0624 30.534 20.393 30.4508 20.1418 30.4083C19.8905 30.3665 19.1349 29.9896 19.5743 28.6915C20.0143 27.3927 21.9555 20.399 30.638 18.1377C31.5312 17.9696 31.8612 18.2633 32.0024 18.6715C32.1437 19.0802 32.0418 19.7952 31.453 19.944Z" fill="white"/>
<path d="M31.4717 47.4533C31.4717 47.4533 27.358 46.6383 24.8336 43.7596C22.3092 40.8802 22.3917 40.6121 21.3748 37.8196C21.0355 36.9077 20.3667 36.994 20.1167 37.0371C19.8655 37.079 19.1117 37.4596 19.5567 38.7558C20.0011 40.0533 21.9723 47.0377 30.6648 49.2633C31.5592 49.4277 31.8873 49.1321 32.0261 48.724C32.1655 48.314 32.0598 47.599 31.4717 47.4533Z" fill="white"/>
<path d="M38.8518 47.5021C38.8518 47.5021 42.9581 46.6534 45.4587 43.7527C47.9599 40.8521 47.8731 40.5846 48.8668 37.7827C49.1987 36.8677 49.8687 36.9496 50.1218 36.9902C50.3724 37.0302 51.1281 37.4034 50.6949 38.7052C50.2593 40.0046 48.3462 47.0059 39.6737 49.3046C38.7818 49.4752 38.4512 49.1846 38.3074 48.7765C38.1649 48.369 38.2649 47.6534 38.8518 47.5021Z" fill="white"/>
<path d="M39.0562 26.5171C39.0562 26.5171 41.0981 27.2864 42.3231 29.8308C42.6525 30.3964 43.1868 30.5846 43.7518 30.3021C44.3168 30.0196 44.3012 29.3302 44.1762 29.0789C44.0506 28.8258 42.9512 26.1402 39.92 24.7114C39.355 24.5227 38.9462 24.9783 38.8206 25.1039C38.6943 25.2289 38.4587 25.9989 39.0562 26.5171Z" fill="white"/>
<path d="M31.4199 26.5171C31.4199 26.5171 29.378 27.2864 28.153 29.8308C27.823 30.3964 27.2893 30.5846 26.7236 30.3021C26.158 30.0196 26.1743 29.3302 26.2993 29.0789C26.4249 28.8258 27.5243 26.1402 30.5555 24.7114C31.1211 24.5227 31.5293 24.9783 31.6549 25.1039C31.7805 25.2289 32.0161 25.9989 31.4199 26.5171Z" fill="white"/>
<path d="M31.4199 40.4677C31.4199 40.4677 29.378 39.6983 28.153 37.1546C27.823 36.5896 27.2893 36.4008 26.7236 36.6833C26.158 36.9658 26.1743 37.6546 26.2993 37.9071C26.4249 38.1583 27.5243 40.844 30.5555 42.2733C31.1211 42.4615 31.5293 42.0058 31.6549 41.8802C31.7805 41.7552 32.0161 40.9858 31.4199 40.4677Z" fill="white"/>
<path d="M39.0562 40.4684C39.0562 40.4684 41.0981 39.699 42.3231 37.1534C42.6525 36.5884 43.1868 36.3996 43.7518 36.6827C44.3168 36.9652 44.3012 37.6552 44.1762 37.9065C44.0506 38.1596 42.9512 40.8452 39.92 42.274C39.355 42.4627 38.9462 42.0071 38.8206 41.8815C38.695 41.7559 38.4587 40.9865 39.0562 40.4684Z" fill="white"/>
<path d="M54.6661 32.2227H36.418V14.4808C36.418 13.9252 35.9674 13.4758 35.413 13.4758H34.8474C34.293 13.4758 33.8424 13.9252 33.8424 14.4808V32.2221H16.598C16.0424 32.2221 15.593 32.6727 15.593 33.2271V33.7921C15.593 34.3471 16.0424 34.7971 16.598 34.7971H33.8418V52.5477C33.8418 53.1027 34.2924 53.5527 34.8468 53.5527H35.4124C35.9668 53.5527 36.4174 53.1021 36.4174 52.5477V34.7983H54.6655C55.2211 34.7983 55.6705 34.3477 55.6705 33.7933V33.2277C55.6711 32.6727 55.2218 32.2227 54.6661 32.2227Z" fill="white"/>
</g>
<defs>
<clipPath id="clip0_245_8">
<rect width="40" height="40" fill="white" transform="translate(15.6323 13.5152)"/>
</clipPath>
</defs>
</svg>
